<svg width="769" height="713" viewBox="0 0 769 713" fill="none" xmlns="http://www.w3.org/2000/svg">
<path d="M784.727 476.18C801.809 532.581 755.611 594.474 679.499 619.356C603.387 644.239 504.52 630.733 446.704 588.607C440.323 583.958 434.315 578.962 428.307 573.967C412.796 561.072 397.29 548.181 375.41 541.272C350.428 533.382 322.772 534.938 294.836 536.511C277.097 537.51 259.245 538.514 241.895 537.111C200.07 533.727 161.493 515.132 142.881 489.384C112.72 447.658 137.745 395.298 185.053 361.948C232.361 328.596 297.5 310.223 361.185 293.707C385.545 287.39 401.009 270.94 410.199 254.334C413.756 247.906 416.643 241.3 419.527 234.699C424.093 224.248 428.653 213.81 435.862 204.108C466.387 163.027 544.912 143.267 609.307 157.712C673.701 172.157 719.048 217.082 721.001 263.168C721.337 271.106 720.538 279.032 719.739 286.958L719.739 286.96C718.974 294.548 718.209 302.136 718.439 309.735C718.934 325.978 723.964 341.998 729.365 357.835C735.805 376.717 742.819 395.551 752.535 413.779C755.915 420.121 759.624 426.395 763.333 432.669C771.759 446.925 780.183 461.174 784.727 476.18Z" fill="#FB6340"/>
<path d="M380.658 260.647C406.526 242.507 422.605 216.115 428.356 187.898C429.11 184.199 429.679 180.309 428.198 176.581C426.717 172.854 422.61 169.356 417.909 169.176C411.171 168.918 407.695 174.837 405.426 179.801C389.844 213.896 359.736 243.831 317.843 256.621C301.754 261.534 284.405 263.834 267.176 266.111L240.264 269.666C218.589 272.529 196.624 275.463 177.161 282.913C157.697 290.363 140.698 302.996 134.894 320.037C133.046 325.461 132.436 331.576 135.558 336.997C138.758 342.552 145.492 346.554 152.555 348.596C159.618 350.638 167.054 350.968 174.333 351.056C179.662 351.121 185.057 351.059 190.032 349.859C198.167 347.897 204.416 343.114 210.496 338.459C210.901 338.148 211.306 337.839 211.71 337.531C222.346 329.422 233.694 321.883 246.116 315.574C264.231 306.374 284.468 299.856 304.656 293.354C331.851 284.595 358.957 275.865 380.658 260.647Z" fill="#FB6340"/>
<path d="M326.35 620.35L326.369 620.347C327.618 620.171 328.866 619.996 330.116 619.833C349.882 617.257 370.626 617.813 390.868 621.461C398.587 622.851 406.637 624.874 412.429 629.476C419.594 635.171 427.523 640.243 435.995 644.551C439.283 646.222 442.758 647.811 446.484 648.306C450.212 648.8 454.269 647.984 456.226 645.586C458.603 642.672 457.231 638.479 454.901 635.185C451.082 629.785 445.075 625.55 439.176 621.477C419.816 608.109 399.751 594.867 376.745 586.592C353.739 578.318 327.061 575.543 305.802 583.522C298.462 586.277 291.736 590.448 288.444 596.407C285.152 602.365 285.984 610.319 291.972 615.519C296.724 619.646 303.853 621.447 310.529 621.652C315.908 621.816 321.135 621.082 326.35 620.35Z" fill="#FB6340"/>
<path d="M715.332 600.307L715.324 600.321C714.817 601.225 714.309 602.13 713.788 603.026C705.544 617.211 693.575 629.947 678.736 640.326C673.078 644.284 666.595 648.035 658.729 648.657C648.995 649.427 639.476 651.089 630.436 653.599C626.928 654.573 623.401 655.72 620.849 657.747C618.297 659.776 616.898 662.877 618.262 665.695C619.92 669.118 624.941 671.018 629.574 671.719C637.167 672.869 644.778 671.868 652.166 670.829C676.41 667.419 700.913 663.48 721.979 654.407C743.044 645.333 760.533 630.313 764.1 611.622C765.332 605.168 764.785 598.168 760.531 592.158C756.278 586.148 747.728 581.427 739.144 581.779C732.334 582.058 726.582 585.373 722.704 589.455C719.579 592.744 717.453 596.53 715.332 600.307Z" fill="#FB6340"/>
<path d="M530.616 142.956L530.633 142.947C531.763 142.305 532.895 141.663 534.035 141.035C552.067 131.094 570.992 127.639 595.449 120.518C603.995 119.156 613.438 120.368 620.958 119.567C632.322 118.357 637.733 120.279 650.384 125.138C653.913 126.493 653.813 126.12 660.835 129.341C667.857 132.563 708.102 155.748 708.542 152.511C709.077 148.577 672.099 114.13 667.716 111.518C660.532 107.239 651.903 104.984 643.481 102.859C615.847 95.8876 587.591 89.3067 559.528 89.0239C531.466 88.742 503.204 95.5852 487.078 111.753C481.51 117.335 477.441 124.182 477.909 131.652C478.374 139.121 484.193 147.179 493.41 150.456C500.722 153.056 508.94 152.342 515.705 150.114C521.156 148.319 525.891 145.634 530.616 142.956Z" fill="#FB6340"/>
<path d="M780.5 313.962C775.215 313.298 770.541 316.117 767.511 319.487C761.528 326.142 759.852 335.152 760.79 343.884C761.729 352.617 765.071 361.217 768.39 369.724L796.9 442.812C798.983 448.151 801.384 453.878 806.785 457.404C808.476 458.507 810.551 459.368 812.563 459.183C815.001 458.958 816.717 457.282 817.903 455.556C824.391 446.119 821.14 433.71 818.178 422.4L818.07 421.99C813.723 405.387 810.609 388.654 808.752 371.924C808.23 367.218 807.809 362.464 808.656 357.901C811.309 343.595 803.497 327.473 789.191 317.734C786.602 315.973 783.689 314.362 780.5 313.962Z" fill="#FB6340"/>
<path d="M619.368 446.749C625.433 446.93 631.805 449.717 634.016 454.239C634.423 452.199 636.288 450.431 638.747 449.755L636.187 453.554L640.863 452.757L635.485 456.802C641.546 461.904 643.486 469.234 643.211 476.038C643.043 480.203 642.182 484.504 644.073 488.474C645.932 492.378 651.832 495.617 656.395 493.893L656.622 493.802C662.037 491.534 668.67 491.017 674.757 492.389C683.504 494.36 690.324 499.784 697.479 504.333C703.796 508.348 710.829 511.865 718.602 513.42C726.376 514.976 735.003 514.354 741.207 510.691C744.287 508.874 746.727 506.363 750.216 505.056C753.705 503.749 758.095 504.68 760.46 507.225C761.507 508.351 761.857 513.185 760.476 519.165C760.969 518.942 761.503 518.757 762.079 518.617C779.108 514.47 795.542 508.184 807.93 498.289C811.868 495.144 815.354 491.67 818.801 488.18L820.807 486.142L822.019 484.898C829.541 477.128 836.695 468.695 837.418 458.884L837.45 458.357L837.506 457.203C837.629 455.015 837.954 452.716 840.187 451.626C843.277 450.116 847.315 452.16 850.215 454.095L871.116 468.044C871.652 468.402 872.203 468.774 872.533 469.261C873.994 471.415 870.144 473.363 867.108 473.069C861.589 472.536 856.013 468.91 851.042 470.642C847.548 471.86 846.366 475.113 845.505 478.131L845.289 478.9C840.154 497.417 826.313 514.055 806.971 524.957C801.985 527.767 796.666 530.2 791.354 532.63L780.623 537.539L782.79 537.445C801.128 536.614 820.292 534.614 833.942 525.477C843.03 519.395 848.631 510.804 853.745 502.224L855.595 499.096L856.353 497.791C859.449 492.408 862.198 486.751 861.528 480.79C861.271 478.501 864.366 476.805 867.279 476.894C870.189 476.981 872.854 478.297 875.349 479.569L894.263 489.211C895.753 489.971 897.339 490.82 897.981 492.113C898.624 493.408 897.669 495.187 895.93 495.116L878.919 494.423C877.323 494.359 875.571 494.33 874.371 495.113C873.451 495.713 873.059 496.662 872.741 497.586L863.994 523.475C861.53 530.765 854.046 536.126 846.381 540.522C827.998 551.067 806.583 558.415 783.976 561.934C781.52 562.316 779.046 562.654 776.537 562.803C767.109 563.36 757.65 561.231 748.434 559.011C751.263 562.783 751.249 566.415 743.125 568.212C735.929 569.804 709.549 549.267 703.561 549.068C670.88 547.975 661.13 535.559 648.143 528.263C648.143 528.263 629.222 533.967 615.48 534.241C583.267 534.885 557.268 523.176 549.547 523.567C541.827 523.958 538.317 528.63 535.225 526.774L534.633 525.12C534.821 524.6 537.403 521.319 548.054 521.141C562.928 520.892 588.557 525.666 606.275 524.136C624.875 522.53 639.262 517.35 639.039 516.974C638.582 516.209 641.884 511.975 637.663 510.94C633.442 509.906 575.048 502.964 558.659 491.135L558.459 490.987C555.574 488.764 551.781 482.608 556.776 484.816L557.321 483.051C562.705 485.444 579.243 490.121 596.284 494.593C614.301 499.323 637.645 500.14 637.964 499.853C645.067 493.46 636.029 491.488 634.211 490.752C629.955 489.031 624.965 488.592 621.047 486.409C611.649 481.172 612.481 468.5 602.356 464.236C600.824 463.591 599.098 463.181 597.821 462.246C595.632 460.644 595.436 457.88 596.662 455.841C597.886 453.801 600.228 452.352 602.616 451.117C607.573 448.553 613.304 446.568 619.368 446.749Z" fill="white"/>
<path d="M637.165 484.908C638.293 484.699 638.947 483.807 638.625 482.917C638.303 482.026 637.127 481.474 635.999 481.684C634.871 481.893 634.218 482.784 634.54 483.675C634.862 484.565 636.037 485.117 637.165 484.908Z" fill="#FFB61D"/>
<path d="M624.2 487.59C625.029 487.436 625.441 486.596 625.123 485.713C624.804 484.83 623.874 484.239 623.046 484.393C622.218 484.547 621.805 485.387 622.124 486.27C622.443 487.153 623.372 487.744 624.2 487.59Z" fill="#FFB61D"/>
<path d="M549.642 511.517C529.207 511.164 508.881 513.979 490.196 519.751C489.592 513.734 489.38 507.708 489.563 501.703C483.813 504.492 474.678 501.298 473.192 495.977C471.705 490.656 478.457 485.324 485.293 486.42C486 482.259 484.536 477.82 481.298 474.313C479.746 472.631 482.889 470.911 485.39 470.447L499.208 467.88C501.14 467.521 503.577 466.313 502.563 464.925C500.159 461.633 501.763 457.065 505.91 455.392C509.982 453.75 515.759 455.199 518.127 458.416L518.255 458.596C520.634 462.08 526.959 462.153 531.708 461.195L534.069 460.708C538.175 459.873 542.518 459.18 546.107 460.948C550.4 463.063 551.232 467.544 551.481 471.45L551.497 471.709C551.811 477.136 552.016 482.564 552.112 487.988C563.304 508.925 555.308 511.615 549.642 511.517Z" fill="white"/>
<path d="M380.695 526.04C374.917 516.023 371.076 505.386 369.347 494.617L369.268 494.095C368.919 491.643 368.902 488.99 370.928 487.227C372.445 485.908 374.777 485.397 377.028 484.978L394.268 481.819C395.053 481.675 395.92 481.538 396.658 481.837C397.395 482.135 397.717 483.076 397.021 483.382C395.36 484.112 394.917 485.948 395.666 487.375C396.416 488.803 398.085 489.85 399.853 490.551C404.07 492.221 409.629 492.061 412.684 489.448C415.74 486.836 414.837 481.734 410.513 480.256C418.512 478.633 426.571 477.159 434.678 475.834L437.719 475.344C438.704 475.188 439.804 475.05 440.685 475.475C441.346 475.794 441.732 476.364 442.053 476.914C444.535 481.148 445.23 485.951 444.005 490.376C443.81 491.08 443.083 491.952 442.245 491.599C438.685 490.097 434.031 491.255 431.85 493.76C429.668 496.266 429.731 499.742 431.323 502.635C432.854 505.42 436.618 507.999 440.237 507.172C443.086 506.522 445.579 503.929 448.305 505.023L449.319 518.692C449.498 521.121 449.314 524.075 446.565 525.113C430.699 531.104 412.904 534.177 394.945 534.028L394.072 534.016C391.884 533.973 389.659 533.805 387.682 533.026C384.241 531.669 382.275 528.779 380.695 526.04Z" fill="white"/>
<path d="M483.723 398.968L524.889 392.015L525.562 391.904C526.803 391.706 528.071 391.562 529.326 391.764C532.161 392.222 534.13 394.284 535.648 396.24C543.754 406.683 547.659 418.975 546.648 430.864L546.6 431.352C546.441 432.821 546.081 434.324 544.827 435.366C543.794 436.225 542.308 436.64 540.839 436.98L540.525 437.051C534.521 438.41 528.369 439.422 522.135 440.076C524.738 437.952 524.184 434.064 521.288 431.971C518.392 429.878 513.784 429.636 510.506 431.1C508.508 431.991 506.907 433.542 506.725 435.363C506.542 437.184 508.08 439.193 510.385 439.637C511.979 439.944 512.383 441.77 511.446 442.772C510.51 443.774 508.838 444.142 507.282 444.453L486.841 448.531C485.305 448.837 483.684 449.145 482.117 448.811C479.896 448.339 478.369 446.719 477.221 445.143C474.453 441.341 472.735 437.104 472.222 432.821C474.56 435.844 480.324 436.873 483.839 434.895C487.352 432.916 487.818 428.379 484.776 425.752C481.734 423.124 475.877 423.004 472.971 425.51L472.446 424.491C470.61 420.922 468.871 417.283 468.457 413.508C468.005 409.374 469.385 404.974 473.298 402.33C476.152 400.401 479.968 399.615 483.723 398.968Z" fill="white"/>
<path d="M369.088 462.241C363.352 463.325 357.54 464.204 351.678 464.876L351.109 464.939C349 465.157 346.735 465.232 344.958 464.279C342.559 462.991 342.116 460.461 341.886 458.218L341.864 457.995C340.898 448.145 338.369 438.332 334.357 428.852L333.658 427.218C332.431 424.276 331.454 420.862 334.027 418.754C334.81 418.113 335.836 417.692 336.874 417.313L337.219 417.188C356.119 410.395 377.069 406.84 398.247 406.831C401.037 406.83 402.774 409.49 402.633 411.658C402.492 413.825 401.239 415.857 401.284 418.033C401.327 420.209 403.605 422.744 406.312 422.313C411.947 421.414 418.3 425.015 419.129 429.526C419.96 434.037 415.174 438.463 409.382 438.612C408.023 438.647 408.11 440.231 408.624 441.235L414.312 452.356C415.241 454.171 412.106 455.381 409.688 455.674L395.58 457.388C393.363 457.657 390.562 458.492 390.841 460.251C391.537 464.63 387.243 468.947 381.687 469.456C376.13 469.964 370.221 466.58 369.088 462.241Z" fill="white"/>
<path fill-rule="evenodd" clip-rule="evenodd" d="M347.376 535.955C349.033 535.966 351.442 536.083 351.738 537.27C357.689 561.192 345.462 558.868 338.361 567.372C336.484 569.618 336.492 574.103 335.447 574.401C339.98 575.123 347.913 579.933 358.014 578.335C386.161 573.88 390.501 555.829 390.501 555.829C389.294 550.526 382.633 541.814 387.701 543.655C391.2 544.926 387.478 536.246 391.686 536.393C392.95 536.439 393.006 542.661 394.005 542.847C394.557 542.951 394.698 541.224 395.488 539.725C396.147 538.475 397.468 537.394 397.882 537.562C398.162 537.677 398.491 539.227 398.014 540.679C397.345 542.72 395.769 544.858 396.18 545.088C396.632 545.342 400.887 539.977 401.375 540.285C404.613 542.332 400.038 573.7 376.919 583.778L375.086 584.572C361.586 590.383 355.602 591.949 340.656 590.55C333.569 589.885 335.828 608.022 334.341 614.477C333.401 618.551 325.68 629.552 319.712 627.776C311.837 625.433 304.072 619.784 297.253 617.466L296.817 617.324C292.213 615.86 282.379 614.17 267.318 612.256L267.845 611.919C270.291 610.38 276.637 606.548 280.833 601.72C286.794 594.86 286.915 582.492 290.177 575.226C293.399 568.051 301.019 567.596 296.225 567.328C296.225 567.328 283.384 564.717 278.101 565.245C260.46 567.007 240.447 577.604 234.793 583.08C227.037 590.595 239.779 597.142 224.766 595.57C219.763 595.047 225.496 575.085 239.6 564.791C259.204 550.484 280.144 543.646 307.836 555.423C319.105 560.216 322.058 565.805 326.033 569.744L325.157 568.761C351.178 562.42 303.863 548.749 335.139 537.277C338.424 536.073 342.287 535.967 346.01 535.957L347.376 535.955Z" fill="white"/>
<path d="M338.197 556.228C339.325 556.019 339.978 555.127 339.656 554.237C339.334 553.347 338.159 552.795 337.031 553.004C335.903 553.213 335.249 554.105 335.571 554.995C335.893 555.885 337.069 556.438 338.197 556.228Z" fill="#FFB61D"/>
<path d="M350.892 556.884C352.02 556.675 352.673 555.784 352.351 554.893C352.029 554.003 350.854 553.451 349.726 553.66C348.598 553.869 347.945 554.761 348.267 555.651C348.589 556.542 349.764 557.094 350.892 556.884Z" fill="#FFB61D"/>
<path fill-rule="evenodd" clip-rule="evenodd" d="M246.28 636.509C273.07 644.607 238.344 632.998 270.061 648.631C276.466 651.788 293.061 623.864 300.614 637.178C303.369 642.035 303.207 647.653 306.256 652.41C309.101 656.847 333.672 649.294 334.914 646.89C339.415 638.177 310.288 623.365 304.522 621.203C272.342 609.145 264.157 611.919 246.098 633.951L246.28 636.509Z" fill="white"/>
<path fill-rule="evenodd" clip-rule="evenodd" d="M743.537 222.018C748.068 221.618 752.28 221.245 750.823 217.206C750.476 216.246 732.685 210.546 729.49 214.609C725.38 219.834 722.648 225.457 720.001 230.904C714.446 242.338 709.269 252.994 692.516 257.553L692.314 257.61C685.862 259.49 700.007 261.867 712.06 253.92C720.347 248.455 728.939 234.443 733.021 227.788C734.089 226.046 734.848 224.809 735.213 224.36L735.309 224.25C736.923 222.602 740.311 222.303 743.537 222.018ZM768.281 229.081L786.175 235.528C789.661 236.784 787.72 241.248 784.166 242.105C782.103 242.603 779.904 242.466 777.693 242.328C776.094 242.229 774.488 242.129 772.924 242.269C764.068 243.06 759.839 250.656 756.464 257.02C753.381 262.834 749.732 268.449 745.559 273.803L744.993 274.522L744.399 275.259C740.992 279.423 736.912 283.38 731.153 285.372C722.672 288.306 712.486 286.336 703.643 283.422C701.485 282.71 699.341 281.942 697.194 281.173C690.548 278.791 683.891 276.406 676.773 275.699C672.068 279.14 667.902 283.016 664.335 287.217L664.5 287.045C674.784 291.898 683.339 299.072 688.795 307.415L687.188 307.488L686.129 307.539C676.228 308.043 665.841 309.183 659.299 314.666C656.994 316.599 655.194 319.033 653.415 321.441C652.176 323.117 650.947 324.78 649.564 326.251C650.097 326.38 650.643 326.516 651.203 326.659C661.072 327.875 671.098 327.964 680.863 326.923C682.356 326.765 683.856 326.58 685.359 326.394C692.323 325.537 699.376 324.669 706.178 326.292L708.57 326.878C712.402 327.803 716.579 328.586 718.684 326.298C719.29 325.639 719.553 324.843 719.818 324.043C719.98 323.555 720.141 323.067 720.381 322.608C721.014 321.394 722.743 320.3 724.296 320.912L725.935 323.959C725.574 321.87 727.446 319.77 730.045 319.347C732.644 318.924 735.621 320.236 736.579 322.228C738.319 325.842 733.826 329.035 729.759 331.044L708.627 341.303C701.076 344.969 691.461 345.585 682.452 344.327C674.066 343.157 666.076 340.488 658.306 337.565L656.583 336.912C650.701 334.668 643.052 332.464 638.524 335.859C648.055 334.568 657.192 339.683 664.959 344.684L665.707 345.168C666.967 345.985 668.273 346.85 668.932 348.014C670.775 351.273 666.737 354.415 663.03 356.248C667.007 357.069 666.829 361.631 664.972 364.388C662.27 368.4 658.031 371.714 652.961 373.908L652.954 375.373C652.956 375.472 652.959 375.523 652.962 375.524C655.502 374.899 658.094 377.356 657.715 379.429C657.337 381.502 655.092 382.986 652.795 384.01C645.223 387.383 635.396 387.659 627.154 384.731L626.041 385.514C621.193 388.9 616.09 392.159 610.033 394.069C603.51 396.125 595.615 396.408 589.32 393.519L589.847 394.02C590.983 395.111 592.065 396.258 592.567 397.584C593.146 399.114 592.741 400.958 591.08 401.792C588.34 403.169 584.765 401.098 582.395 399.184C582.145 401.043 583.724 402.789 585.259 404.486C587.011 406.423 588.705 408.296 587.564 410.202C586.375 412.187 582.834 412.394 580.025 411.876C569.501 409.935 561.86 401.546 560.969 393.185C560.08 384.823 564.93 376.78 571.986 370.753C564.884 368.44 558.758 364.169 554.99 358.903C555.627 359.293 557.157 357.375 559.33 354.65C563.306 349.667 569.434 341.984 576.195 340.789C577.489 340.559 579.86 340.961 582.18 341.356L582.181 341.356C583.862 341.641 585.517 341.922 586.721 341.956C586.78 341.845 586.861 341.739 586.963 341.64L585.427 341.152C582.341 340.188 579.175 339.331 575.922 339.298C572.127 339.26 568.138 340.613 566.7 343.302C563.183 349.879 557.859 355.808 551.177 360.592L558.311 366.545C556.643 367.634 554.189 367.947 552.065 367.36L551.802 367.282L551.989 367.394C555.682 369.669 555.064 374.947 550.858 376.315C546.923 378.63 540.817 375.037 539.879 371.137C539.221 368.404 540.042 365.721 540.864 363.033C541.214 361.885 541.565 360.737 541.802 359.584C542.601 355.687 542.101 351.617 541.606 347.571C540.925 342.027 540.251 336.532 542.935 331.601C544.815 328.147 548.188 325.361 551.797 322.92C566.123 313.231 585.319 307.982 604.723 308.448C604.654 299.177 607.845 290.024 613.858 282.253L614.218 281.795C616.548 278.904 619.737 276.115 624.067 275.714L624.411 275.687C628.755 275.415 631.457 272.202 633.634 269.287L634.306 268.389L634.836 267.696C639.204 262.043 644.665 256.561 652.706 254.584C659.86 252.825 667.802 254.176 675.164 255.948C683.493 257.953 691.643 260.486 699.502 263.516L700.886 264.057L701.292 264.217L701.744 264.395L702.003 264.499C709.448 267.449 717.595 270.678 725.247 268.863C733.09 267.001 737.029 260.677 740.659 254.851L740.66 254.849L740.662 254.847C740.954 254.377 741.245 253.91 741.536 253.449C746.034 246.317 751.705 239.719 757.506 233.21L759.998 230.425C760.752 229.584 761.572 228.701 762.807 228.331C764.546 227.81 766.533 228.451 768.281 229.081ZM660.138 355.912C658.425 355.958 656.252 356.481 653.621 357.481C655.47 357.143 657.014 356.828 658.255 356.536C658.845 356.363 659.426 356.175 659.989 355.968L660.138 355.912ZM589.872 338.828C590.29 338.238 590.732 337.616 591.268 337.054C592.362 336.278 593.714 335.736 595.214 335.573C600.29 335.026 605.533 338.487 606.292 342.501C605.528 348.099 600.125 352.216 594.781 356.289C591.488 358.798 588.219 361.29 586.071 364.101C586.465 362.992 586.999 362.067 587.653 361.437C589.695 359.474 591.925 357.688 594.028 356.003C595.795 354.588 597.473 353.244 598.87 351.931C601.069 349.863 602.389 348.042 603.412 346.63L603.413 346.629C604.195 345.55 604.804 344.71 605.498 344.183C605.555 344.141 606.868 338.569 598.162 336.705C591.587 335.297 590.18 338.885 589.423 340.814C589.177 341.439 589 341.89 588.738 341.939C588.67 341.952 588.572 341.961 588.446 341.967C588.443 341.4 588.543 340.834 588.736 340.285C589.131 339.872 589.493 339.364 589.872 338.828ZM591.014 337.242C589.936 338.075 589.136 339.142 588.736 340.285L588.59 340.432C588.292 340.717 587.973 340.946 587.611 341.09C586.882 341.382 584.611 340.598 582.687 339.933C581.537 339.536 580.51 339.182 580.012 339.126C576.731 338.759 576.38 338.811 574.306 339.114C573.955 339.166 573.556 339.224 573.085 339.289L572.221 339.405C572.032 339.431 571.825 339.463 571.604 339.496C569.888 339.755 567.417 340.127 567.528 338.994C569.51 318.709 605.295 307.722 606.75 329.965C606.871 331.804 606.084 333.579 605.298 335.355C604.905 336.243 604.512 337.13 604.233 338.026C600.849 335.768 597.712 334.83 594.82 335.211C593.208 335.423 592.119 336.162 591.268 337.054L591.014 337.242ZM652.541 307.937L652.545 307.925C651.607 311.388 650.745 315.508 649.958 320.282C650.336 316.099 651.208 311.964 652.541 307.937ZM670.175 307.691L669.893 307.753C667.647 308.251 665.705 308.899 664.067 309.697C662.251 310.583 660.429 311.837 658.603 313.46C661.933 310.994 665.883 309.023 670.175 307.691Z" fill="white"/>
<path fill-rule="evenodd" clip-rule="evenodd" d="M575.414 407.362C574.288 409.278 571.655 409.228 568.784 407.89C562.778 405.088 558.365 398.322 557.522 390.253C556.678 382.185 562.913 377.614 569.593 371.798C565.485 371.274 556.086 364.8 552.754 357.409C555.854 359.336 557.471 363.542 560.572 365.469C563.513 367.298 568.774 369.205 571.716 371.033C572.092 371.267 572.499 371.701 572.173 371.954C565.593 377.037 560.927 379.19 559.753 389.83C558.581 400.47 571.183 407.719 572.338 407.216C573.762 406.596 572.633 405.054 571.371 404.155C567.81 401.617 568.761 397.154 569.651 393.541C571.085 394.317 569.471 397.63 571.059 400.454C572.609 403.212 576.417 405.657 575.414 407.362Z" fill="#E7EAEE"/>
<path d="M599.806 369.447C600.934 369.238 601.587 368.346 601.265 367.456C600.943 366.565 599.768 366.013 598.64 366.223C597.512 366.432 596.859 367.323 597.181 368.214C597.503 369.104 598.678 369.656 599.806 369.447Z" fill="#FFB61D"/>
<path d="M590.365 364.806C591.493 364.597 592.146 363.706 591.824 362.815C591.502 361.925 590.327 361.373 589.199 361.582C588.071 361.791 587.417 362.683 587.739 363.573C588.061 364.464 589.237 365.016 590.365 364.806Z" fill="#FFB61D"/>
<path d="M277.671 449.33C279.486 450.854 278.527 453.693 276.031 454.187C270.442 445.06 264.564 435.634 254.707 428.98C235.833 416.241 206.471 416.355 189.178 402.31C182.966 408.137 170.643 409.232 162.303 404.699C157.116 401.88 150.15 402.708 144.571 404.588C138.991 406.466 133.893 409.278 127.892 410.233C125.288 410.647 122.278 410.621 120.177 409.242C118.076 407.862 117.888 404.784 120.34 404.02C131.02 400.696 141.699 397.371 152.379 394.046C153.218 393.786 154.103 393.495 154.601 392.912C155.164 392.252 155.099 391.376 155.014 390.567C154.31 383.863 152.711 376.012 145.104 372.603C138.8 369.779 131.033 371.358 124.684 373.65C118.335 375.943 112.024 378.948 104.897 378.799C97.7695 378.65 89.9786 373.462 91.8822 368.18C93.1572 364.643 88.967 361.018 84.4959 359.548C80.025 358.079 75.0468 357.87 70.6472 356.263C66.2474 354.656 62.3921 350.695 64.2151 347.325C65.017 345.843 66.7417 344.82 68.4939 343.982C74.2935 341.212 81.3566 339.773 88.2508 340.709C95.1452 341.646 101.744 345.172 104.629 350.203C106.98 354.302 107.22 359.534 111.955 362.126C118.146 365.516 125.883 361.535 132.982 360.163C140.244 358.759 148.544 360.471 154.259 364.549C159.974 368.629 162.92 374.943 161.81 380.737C167.81 372.375 177.316 365.05 189.499 363.168C200.753 361.43 212.813 364.588 222.626 369.75C232.439 374.911 240.401 381.938 248.228 388.883C251.144 391.47 256.426 392.186 260.043 390.483C263.66 388.78 265.183 384.862 263.45 381.718C267.122 381.672 268.816 385.294 269.932 388.067C272.276 393.892 277.061 399.184 283.355 402.913C284.088 400.368 284.399 397.734 284.274 395.096C288.766 397.538 291.635 401.748 291.652 405.923C291.67 410.099 288.837 414.113 284.364 416.249C281.984 417.386 278.898 418.292 278.29 420.441C285.647 426.312 292.428 432.618 298.551 439.282C301.833 442.856 305.002 447.649 302.093 451.193C296.596 449.388 292.498 445.669 288.632 442.087C282.603 436.499 276.573 430.911 270.543 425.323" fill="white"/>
<path fill-rule="evenodd" clip-rule="evenodd" d="M269.281 370.331C271.061 378.212 277.581 385.526 286.505 389.653C288.561 388.003 289.329 385.429 288.445 383.142C292.283 386.056 292.482 390.937 290.329 394.578C288.177 398.22 284.175 400.907 280.28 403.486C278.049 404.963 275.726 406.48 272.872 407.083C268.518 408.004 263.831 406.646 259.518 405.309L246.864 401.39C255.206 408.418 269.281 410.794 279.985 406.982C291.008 414.26 299.594 423.809 304.551 434.305L301.319 431.604C301.286 431.57 301.247 431.537 301.202 431.505L301.319 431.604C301.837 432.14 300.885 433.019 299.973 432.861C299.004 432.693 298.39 431.94 297.878 431.266C291.572 422.946 283.006 415.624 272.954 409.962L291.195 426.913C295.094 430.536 299.225 434.297 304.768 436.12C307.703 432.538 304.507 427.691 301.196 424.077C295.022 417.338 288.184 410.961 280.766 405.024C281.264 403.26 283.409 402.324 285.483 401.419L285.484 401.419C285.962 401.209 286.439 401.002 286.89 400.786C291.401 398.626 294.257 394.567 294.24 390.344C294.222 386.121 291.329 381.865 286.799 379.395C286.925 382.062 286.612 384.726 285.872 387.3C279.526 383.529 274.702 378.177 272.337 372.287C271.212 369.483 269.503 365.82 265.801 365.867C267.548 369.046 266.013 373.009 262.365 374.73C258.717 376.451 253.391 375.728 250.451 373.112C242.558 366.09 234.53 358.984 224.634 353.764C214.739 348.544 202.579 345.351 191.231 347.109C178.945 349.013 169.36 356.42 163.309 364.876C164.429 359.017 161.458 352.631 155.696 348.506C149.933 344.382 141.562 342.651 134.24 344.071C132.383 344.43 130.482 344.968 128.577 345.507C123.138 347.046 117.66 348.594 113.037 346.056C109.772 344.263 108.627 341.222 107.471 338.153C106.936 336.735 106.399 335.309 105.65 333.999C102.74 328.912 96.0861 325.346 89.1339 324.399C82.1817 323.452 75.0597 324.908 69.2116 327.709C67.4448 328.556 65.7053 329.589 64.8971 331.089C63.0588 334.497 66.9464 338.502 71.3828 340.127C73.7177 340.982 76.2144 341.446 78.7129 341.91C80.9618 342.328 83.2121 342.746 85.3478 343.45C89.8564 344.936 94.0817 348.601 92.7961 352.179C90.8766 357.52 98.733 362.766 105.92 362.916C111.861 363.041 117.24 360.985 122.542 358.96C123.654 358.535 124.763 358.112 125.872 357.71C132.274 355.392 140.107 353.794 146.464 356.651C154.134 360.097 155.747 368.036 156.457 374.816C156.542 375.634 156.608 376.52 156.04 377.188C155.538 377.777 154.646 378.071 153.8 378.334L121.492 388.42C119.02 389.192 119.209 392.306 121.328 393.701C123.447 395.095 126.482 395.122 129.108 394.703C133.123 394.062 136.737 392.595 140.358 391.125C142.194 390.379 144.033 389.633 145.926 388.994C151.553 387.093 158.576 386.255 163.807 389.107C172.217 393.691 184.643 392.583 190.906 386.691C200.083 394.164 212.628 397.673 225.23 401.198C236.576 404.371 247.967 407.557 256.985 413.66C266.925 420.388 272.852 429.92 278.488 439.148C281.004 438.649 281.972 435.779 280.143 434.237L278.663 437.159C272.312 422.142 257.216 409.253 238.595 402.95C233.984 401.389 229.107 400.177 224.24 398.966C213.547 396.307 202.904 393.661 195.244 387.363C194.554 386.796 193.882 386.185 193.54 385.455C193.108 384.534 193.254 383.54 193.395 382.581L193.416 382.445C193.975 378.608 193.865 374.534 191.63 370.985C189.397 367.435 184.597 364.579 179.669 364.899C189.128 367.461 194.392 377.208 189.948 383.932C185.504 390.656 172.543 392.556 164.639 387.641C158.305 383.703 149.307 386.004 142.385 388.744C135.462 391.483 127.246 394.531 120.09 391.63C131.379 386.683 143.394 382.695 155.869 379.753C158.841 379.052 158.95 375.847 158.501 373.397C157.81 369.63 157.099 365.804 155.1 362.288C153.1 358.771 149.603 355.544 144.975 354.268C139.418 352.736 133.499 354.235 128.108 355.73L113.78 359.702C110.693 360.557 107.516 361.425 104.189 361.328C100.862 361.231 97.3024 359.95 95.8134 357.571C94.8729 356.068 94.8833 354.414 94.8938 352.747C94.9013 351.546 94.9088 350.339 94.5616 349.175C93.5731 345.863 89.8179 343.359 85.8362 341.928C83.3964 341.052 80.8252 340.483 78.2518 339.914C76.6248 339.554 74.9969 339.195 73.4007 338.756C70.3961 337.932 67.0376 336.321 66.9048 333.864C66.8199 332.294 68.1476 330.947 69.5991 329.916C74.499 326.435 81.6698 324.986 88.3535 326.124C95.0375 327.262 101.073 330.962 104.14 335.799C104.897 336.992 105.506 338.272 106.115 339.55C107.522 342.504 108.923 345.445 112.119 347.267C115.936 349.444 121.093 349.211 125.472 348.218C126.973 347.877 128.446 347.459 129.918 347.041C132.74 346.241 135.557 345.441 138.558 345.19C148.652 344.349 159.222 350.946 160.534 358.906C160.607 359.347 160.657 359.796 160.708 360.245C160.889 361.848 161.072 363.467 162.253 364.783C163.766 366.471 167.825 366.764 168.377 364.816C170.845 356.091 181.507 349.942 192.909 348.912C204.312 347.882 216.082 351.304 225.731 356.624C235.378 361.944 243.199 369.052 250.593 376.258C253.198 378.797 258.281 378.946 261.741 377.402C265.203 375.859 267.388 373.074 269.281 370.331ZM254.376 387.51C254.48 387.479 254.866 387.817 255.45 388.328C256.885 389.584 259.511 391.88 262.017 392.261C262.185 393.019 260.573 392.896 259.758 392.445C257.443 391.161 254.934 389.657 254.376 387.51ZM264.189 399.214C265.816 400.331 259.189 402.27 256.489 401.534C256.869 401.398 257.41 401.332 258.009 401.259C258.72 401.172 259.513 401.076 260.215 400.841C261.241 400.497 262.188 400.04 262.904 399.696C263.597 399.362 264.072 399.133 264.189 399.214ZM260.76 394.578C258.161 395.458 253.765 393.201 252.788 390.491C254.298 392.349 257.669 393.417 259.532 394.007C260.48 394.308 261.037 394.485 260.76 394.578ZM274.636 404.089C270.997 404.766 267.595 400.214 269.132 399.595C269.476 399.38 269.651 399.811 269.911 400.449C270.183 401.12 270.548 402.017 271.298 402.63C272.132 403.311 273.488 403.616 274.279 403.795C274.878 403.931 275.154 403.993 274.636 404.089ZM276.306 396.718C277.23 396.918 278.154 397.323 278.615 397.987C279.075 398.652 278.886 399.598 278.045 399.911C277.648 399.637 277.725 399.402 277.806 399.154C277.926 398.789 278.054 398.398 276.701 397.816C276.131 397.57 275.554 397.525 275.15 397.493C274.839 397.469 274.629 397.452 274.604 397.359C274.439 396.766 275.555 396.556 276.306 396.718ZM267.21 391.654C267.066 391.787 266.967 391.878 267.101 391.937C267.517 392.117 267.946 392.161 268.27 391.914C268.515 391.724 268.567 391.425 268.542 391.148C268.4 389.604 265.888 388.448 264.16 389.134C264.448 389.445 264.802 389.496 265.231 389.559C265.727 389.63 266.323 389.716 267.035 390.234C267.994 390.933 267.507 391.381 267.21 391.654ZM271.591 405.647C269.27 405.553 265.706 401.94 266.737 401.424C267.381 401.102 267.388 401.133 267.461 401.458C267.528 401.755 267.65 402.299 268.365 403.044C269.255 403.967 270.282 404.66 270.937 405.102C271.385 405.404 271.659 405.588 271.591 405.647ZM729.638 223.328C725.199 224.632 722.632 228.245 721.497 231.863C720.947 233.612 720.652 235.41 720.356 237.207L720.355 237.208C720.04 239.129 719.723 241.049 719.099 242.908C716.12 251.781 706.656 258.089 697.371 263.533C695.77 264.472 692.484 264.781 692.513 263.183C708.836 257.379 719.793 243.795 719.666 229.52C719.651 227.839 716.578 226.989 714.727 227.779C713.053 228.493 712.194 229.929 711.459 231.332L711.23 231.773C705.186 243.461 694.403 254.398 678.842 257.871C677.74 258.116 675.95 257.875 676.155 256.99C687.713 254.508 697.07 247.9 703.502 240.091C709.934 232.282 713.741 223.285 717.096 214.292C717.615 212.901 720.004 212.733 721.88 212.876C727.637 213.316 733.357 214.29 738.884 215.77C741.852 216.565 741.076 220.303 738.458 221.495C736.954 222.181 735.207 222.407 733.452 222.635C732.153 222.804 730.851 222.973 729.638 223.328ZM722.371 216.438L721.933 216.417C720.605 216.366 719.178 216.466 718.408 217.254C718.11 217.559 717.951 217.933 717.818 218.309L716.115 223.305C717.953 223.299 719.807 223.552 721.564 224.044C722.999 224.447 724.673 224.162 725.697 223.339C726.719 222.516 727.041 221.198 726.489 220.085C726.283 219.67 727.121 219.391 727.601 219.635C727.959 219.818 728.156 220.123 728.354 220.427L728.355 220.428C728.42 220.531 728.487 220.633 728.56 220.731C728.847 221.118 729.432 221.482 729.93 221.3C730.32 220.796 730.398 220.144 730.136 219.57C730.111 218.932 731.492 219.248 731.893 219.818C732.294 220.388 732.949 221.183 733.649 220.881C734.684 220.455 734.592 219.162 733.76 218.462C732.929 217.763 731.674 217.514 730.494 217.325C727.806 216.896 725.092 216.6 722.371 216.438ZM714.959 225.424C717.166 226.471 719.924 226.733 722.29 226.122C720.269 224.918 717.463 224.614 715.208 225.339L714.959 225.424ZM641.247 384.344C633.662 387.727 623.817 388.004 615.559 385.067C610.367 388.737 604.941 392.369 598.406 394.431C591.871 396.494 583.962 396.778 577.655 393.881C578.973 395.127 580.327 396.423 580.908 397.957C581.488 399.492 581.082 401.341 579.418 402.178C576.673 403.558 573.091 401.48 570.716 399.562C570.466 401.426 572.048 403.177 573.586 404.879C575.341 406.821 577.039 408.7 575.895 410.612C574.704 412.603 571.157 412.809 568.343 412.29C557.799 410.344 550.143 401.931 549.251 393.546C548.361 385.16 553.219 377.094 560.288 371.049C553.173 368.729 547.036 364.447 543.261 359.166C544.9 360.167 546.302 361.425 547.704 362.682C549.105 363.938 550.508 365.196 552.148 366.197C553.704 367.148 555.498 367.842 557.293 368.537L557.294 368.537C559.089 369.232 560.882 369.926 562.439 370.877C562.836 371.12 563.266 371.571 562.921 371.834C555.959 377.116 550.998 384.392 551.284 392.162C551.569 399.931 557.97 407.975 567.537 410.427C569.222 410.859 571.135 411.102 572.64 410.459C574.146 409.815 574.784 407.969 573.449 407.034C569.683 404.397 567.824 400.192 568.766 396.438L577.766 401.222C579.219 400.61 579.004 398.869 578.141 397.708C577.867 397.34 577.547 396.987 577.227 396.634L577.225 396.633C576.536 395.873 575.849 395.116 575.639 394.225C575.331 392.92 577.024 391.388 578.47 392.113C584.246 395.008 591.75 394.738 597.832 392.732C603.915 390.726 608.882 387.215 613.734 383.763L619.462 379.689C619.53 381.32 618.42 382.906 616.651 383.703C624.495 386.194 633.618 385.738 640.651 382.503C641.862 381.946 643.065 381.263 643.615 380.246C644.165 379.231 643.802 377.812 642.504 377.284C642.347 377.219 642.177 377.168 642.008 377.117C641.676 377.017 641.346 376.918 641.105 376.717C640.74 376.413 640.899 375.759 641.415 375.833C643.96 375.207 646.556 377.671 646.177 379.75C645.799 381.829 643.549 383.317 641.247 384.344ZM585.328 365.593C583.71 365.492 582.338 366.611 582.098 367.853C581.859 369.096 582.517 370.381 583.426 371.46C583.105 370.111 582.959 369.076 583.277 368.09C583.414 367.665 584.13 367.155 584.759 366.706C585.572 366.127 586.241 365.65 585.328 365.593ZM582.874 362.508C584.883 361.679 587.564 361.884 589.446 363.01C591.328 364.136 592.311 366.123 591.856 367.881C591.526 367.693 591.315 367.278 591.051 366.759C590.269 365.225 589.019 362.773 582.874 362.508ZM585.384 375.02C584.943 375.823 587.971 377.167 591.254 375.241C591.862 374.884 591.289 374.963 590.386 375.086C589.562 375.2 588.465 375.351 587.739 375.243C587.124 375.152 586.734 374.896 586.441 374.703C586.009 374.419 585.791 374.277 585.384 375.02ZM593.752 375.876C595.801 374.489 595.298 377.531 590.179 378.122C589.718 378.175 589.079 378.147 588.953 377.787C588.91 377.66 589.321 377.553 589.963 377.385C590.958 377.124 592.505 376.72 593.752 375.876ZM577.123 373.376C578.273 373.904 579.589 373.678 580.414 373.382C580.916 373.202 581.041 372.776 580.509 372.745C580.385 372.738 580.188 372.749 579.951 372.764C579.408 372.795 578.658 372.84 578.095 372.699C577.733 372.609 577.376 372.138 577.068 371.735C576.754 371.321 576.492 370.976 576.335 371.19C576.027 371.611 575.974 372.847 577.123 373.376ZM578.769 375.578C579.393 376.022 577.671 376.15 577.191 375.872C576.71 375.595 575.892 374.366 576.49 374.255C576.662 374.223 576.796 374.416 576.954 374.646C577.101 374.86 577.27 375.106 577.514 375.237C577.988 375.492 578.244 375.495 578.432 375.497C578.561 375.498 578.657 375.5 578.769 375.578ZM652.377 359.102C653.779 360.349 652.788 362.225 651.654 363.541C647.044 368.894 640.845 373.372 633.648 376.549C642.09 375.026 649.449 370.61 653.447 364.667C655.308 361.9 655.486 357.326 651.502 356.503C655.216 354.664 659.261 351.514 657.414 348.246C656.755 347.079 655.446 346.211 654.183 345.39L653.435 344.906C645.653 339.891 636.499 334.761 626.95 336.056C631.486 332.651 639.15 334.862 645.042 337.112L646.769 337.767C654.553 340.698 662.558 343.374 670.96 344.548C679.985 345.809 689.619 345.191 697.183 341.515L718.355 331.226C722.429 329.211 726.931 326.01 725.188 322.384C724.228 320.387 721.245 319.072 718.641 319.496C716.037 319.92 714.162 322.026 714.524 324.121L712.881 321.066C711.326 320.452 709.594 321.549 708.96 322.767C708.719 323.227 708.558 323.717 708.396 324.205C708.13 325.008 707.866 325.807 707.259 326.467C705.15 328.761 700.966 327.977 697.126 327.049L694.73 326.461C687.915 324.832 680.849 325.704 673.872 326.564C672.366 326.749 670.863 326.935 669.368 327.095C659.585 328.138 649.54 328.048 639.653 326.829C649.672 330.589 660.598 329.499 671.62 328.4C677.174 327.847 682.752 327.291 688.25 327.351C692.612 327.4 697.704 328.205 699.866 331.246C703.006 335.661 697.285 340.599 691.374 342.166C681.709 344.73 670.835 343.189 660.872 340.492L659.748 340.182C656.126 339.165 652.556 338.009 648.988 336.855C642.44 334.737 635.899 332.62 629.06 331.359C635.328 330.455 638.563 326.073 641.868 321.596C643.651 319.182 645.454 316.741 647.764 314.802C654.552 309.106 665.472 308.084 675.704 307.603L677.314 307.531C671.849 299.163 663.277 291.969 652.974 287.102L674.466 305.968C658.593 304.842 642.933 312.855 638.194 324.526C638.432 306.03 648.389 288.082 665.27 275.723C672.401 276.432 679.071 278.825 685.729 281.213L685.734 281.215C687.883 281.986 690.03 282.755 692.19 283.468C701.05 286.391 711.254 288.366 719.751 285.424C725.861 283.309 730.083 278.984 733.618 274.542L734.185 273.822C738.365 268.453 742.021 262.822 745.11 256.99C748.491 250.609 752.728 242.992 761.6 242.198C763.167 242.058 764.776 242.158 766.378 242.257C768.593 242.395 770.796 242.532 772.863 242.033C776.424 241.174 778.368 236.696 774.876 235.437L756.949 228.972C755.196 228.34 753.206 227.697 751.464 228.22C750.227 228.591 749.405 229.476 748.649 230.321L746.154 233.114C740.342 239.64 734.66 246.256 730.154 253.41C729.862 253.873 729.569 254.343 729.275 254.815C725.639 260.659 721.692 267.001 713.834 268.867C706.168 270.688 698.006 267.45 690.547 264.49C690.172 264.342 689.799 264.194 689.427 264.047L688.042 263.506C680.168 260.467 672.002 257.926 663.658 255.916C656.283 254.14 648.325 252.784 641.158 254.548C632.773 256.611 627.189 262.483 622.724 268.392L622.051 269.293C619.87 272.216 617.162 275.44 612.81 275.711L612.465 275.738C608.128 276.142 604.933 278.938 602.599 281.838L602.237 282.296C596.213 290.09 593.016 299.269 593.086 308.567C573.646 308.099 554.414 313.363 540.061 323.08C536.445 325.528 533.066 328.321 531.183 331.785C528.494 336.731 529.17 342.242 529.851 347.802C530.349 351.859 530.848 355.94 530.047 359.848C529.81 361.005 529.459 362.157 529.108 363.307C528.285 366.003 527.462 368.693 528.121 371.434C529.061 375.346 535.179 378.949 539.121 376.628C543.405 375.234 543.974 369.784 540.066 367.568C542.252 368.26 544.847 367.967 546.587 366.829L539.441 360.86C546.135 356.062 551.469 350.116 554.992 343.521C556.433 340.824 560.429 339.466 564.231 339.504C567.49 339.537 570.663 340.398 573.754 341.364L575.293 341.853C574.114 342.988 575.793 345.106 577.657 344.837C575.093 341.234 578.474 336.318 583.559 335.77C588.645 335.22 593.897 338.692 594.658 342.716C593.893 348.331 588.479 352.46 583.124 356.545C577.315 360.977 571.576 365.355 571.92 371.519C572.268 377.728 580.368 383.247 588.222 382.624C596.075 382.002 601.882 375.38 599.905 369.3C599.905 369.3 601.058 369.183 601.115 368.168C601.207 366.57 601.206 364.819 601.206 363.082C601.206 359.818 601.205 356.609 601.81 354.58C603.503 348.89 608.597 343.686 615.811 342.195C618.102 341.721 620.296 341.024 622.488 340.328L622.489 340.327C625.29 339.437 628.086 338.548 631.075 338.129C636.406 337.382 643.036 338.743 645.278 342.72C639.135 342.908 633.117 344.19 627.806 346.44L648.807 344.572C653.42 344.162 656.225 349.475 653.952 352.579C651.809 355.506 647.383 356.745 643.163 357.691L642.398 357.86C643.58 358.928 645.482 358.707 647.386 358.486C649.286 358.266 651.187 358.044 652.377 359.102ZM735.088 268.722C730.786 275.429 725.57 282.747 716.267 284.775C708.133 286.548 699.429 283.691 691.377 281.049L690.783 280.855L688.862 280.231C679.892 277.346 670.76 274.8 661.511 272.605C654.348 270.906 646.3 269.475 639.924 272.166L651.801 272.853C650.244 273.976 650.355 276.221 652.023 277.365C651.541 275.277 654.054 273.425 656.726 273.267C659.4 273.111 662.017 274.21 664.187 275.537C651.951 282.264 643.241 292.697 640.172 304.295C639.601 306.452 639.22 308.645 638.837 310.836C638.32 313.806 637.801 316.775 636.816 319.652C635.103 324.651 631.664 329.549 625.807 331.879C624.987 332.206 624.124 332.48 623.262 332.754C621.536 333.304 619.814 333.852 618.447 334.812C618.373 334.864 618.299 334.917 618.224 334.971L618.08 335.074L617.973 335.15C616.377 336.298 614.407 337.712 612.779 336.633C610.112 334.865 606.551 333.966 603.165 334.204C603.385 318.893 612.842 304.156 628.198 295.194C629.067 294.687 628.268 293.588 627.467 292.959L615.674 283.7C614.585 282.844 614.955 281.337 616.055 280.571C617.154 279.805 618.72 279.598 620.21 279.473C629.701 278.67 639.599 280.006 648.43 283.28C649.843 283.804 651.983 284.177 652.476 283.058C641.94 278.049 629.147 277.198 617.193 278.121C626.869 275.499 638.057 276.064 647.593 279.659L648.057 279.833C650.329 280.676 653.016 281.52 654.881 280.397C643.897 275.453 630.71 273.783 618.693 275.812C620.63 273.907 622.346 271.871 624.061 269.835L624.062 269.834L624.063 269.833C625.806 267.765 627.548 265.696 629.522 263.765C633.441 259.934 638.559 256.559 644.828 255.697C649.379 255.07 654.128 255.819 658.689 256.747C668.33 258.708 677.745 261.49 686.709 265.024C687.344 265.274 687.983 265.529 688.628 265.785C697.161 269.183 706.471 272.891 715.086 270.585C720.34 269.179 724.192 265.707 726.887 261.937C728.378 259.852 729.582 257.647 730.789 255.442C731.761 253.662 732.736 251.881 733.86 250.161C735.483 247.682 737.521 245.254 740.593 243.851C743.663 242.448 747.982 242.333 750.792 244.235L735.088 268.722ZM531.813 347.005C531.131 341.519 530.456 336.095 533.566 331.43C535.087 329.146 537.413 327.272 539.849 325.553C552.312 316.761 568.562 311.272 585.599 310.102C589.768 309.816 595.371 310.672 596.39 313.693C596.433 313.882 596.477 314.07 596.523 314.258C596.496 314.062 596.451 313.873 596.39 313.693C593.484 300.805 598.475 287.243 609.57 277.984C613.157 284.383 619.103 290.032 626.475 294.041C613.527 301.687 604.709 313.398 602.3 326.146L602.261 326.348C601.562 329.926 600.035 334.444 595.427 334.443L593.795 323.587C593.645 322.592 593.453 321.52 592.568 320.769C591.582 319.929 590.052 319.743 588.601 319.673L588.092 319.652C579.728 319.358 570.446 319.308 564.474 323.662C561.315 325.967 559.603 329.16 558.091 332.394L556.975 334.813C554.314 340.525 551.017 346.036 547.131 351.265C545.565 353.371 543.82 355.499 541.167 356.774C538.515 358.049 534.713 358.231 532.262 356.555C532.614 353.445 532.213 350.214 531.813 347.005ZM594.199 378.878C590.091 381.083 586.111 381.113 581.929 380.128C580.139 379.705 578.365 379.063 577.058 377.996C575.098 376.395 574.468 374.072 574.485 371.909C574.512 368.675 575.808 365.502 578.155 362.924C579.777 361.141 581.854 359.668 583.932 358.195L583.932 358.194C584.649 357.685 585.365 357.177 586.063 356.656C592.877 351.569 598.013 345.121 600.896 338.032C601.472 336.617 603.474 335.82 605.399 335.848C607.325 335.876 609.172 336.571 610.845 337.38C612.042 337.958 613.268 339.323 612.167 339.932C604.47 344.195 599.623 351.379 599.365 358.906C599.359 359.111 599.354 359.318 599.351 359.525C599.327 360.713 599.303 361.914 598.718 362.98C598.032 364.232 597.228 368.34 598.955 369.895C598.955 369.895 598.307 376.674 594.199 378.878ZM586.189 321.124C587.68 321.112 589.336 321.185 590.452 322.003C591.366 322.673 591.686 323.681 591.921 324.627C592.855 328.371 593.189 332.184 592.915 335.949C592.869 336.585 592.326 337.441 591.593 337.131C589.983 334.619 586.171 333.042 582.713 333.459C579.255 333.876 576.451 336.249 576.184 338.987C576.131 339.528 575.381 339.864 574.685 339.847C574.163 339.835 573.665 339.679 573.179 339.503L572.695 339.323C567.734 337.482 561.867 337.346 556.982 338.96C558.4 334.816 560.676 330.881 563.697 327.35C564.932 325.905 566.332 324.498 568.218 323.578C569.995 322.711 572.1 322.324 574.185 322.024C578.127 321.458 582.148 321.156 586.189 321.124ZM753.187 240.666C750.632 239.377 747.55 238.771 744.601 238.985L746.651 235.151C747.307 233.946 748.123 232.684 749.674 232.226C750.793 231.894 752.071 232.059 753.27 232.26C757.284 232.936 761.217 233.985 764.956 235.38C766.204 235.845 767.485 236.385 768.276 237.278C769.067 238.169 769.172 239.51 768.154 240.175C767.136 240.84 765.086 240.18 765.223 239.13L765.23 239.013C765.231 238.43 764.687 237.843 763.959 237.671L763.444 239.612C763.394 239.782 763.324 239.951 763.166 240.069C762.526 240.543 761.57 239.722 761.274 239.045L761.231 238.952C760.905 238.29 760.146 237.511 759.437 237.868C759.749 239.046 759.088 240.311 757.832 240.94C756.577 241.57 754.801 241.528 753.516 240.837L753.187 240.666ZM538.675 371.65L535.811 367.776C535.106 367.753 534.655 368.391 534.754 368.94C534.82 369.306 535.047 369.639 535.305 369.96L535.703 370.436C537.041 372.058 537.719 373.991 537.61 375.873C535.452 373.919 533.854 371.592 532.98 369.131C531.952 368.91 531.772 370.201 532.125 370.99L534.232 375.7C531.89 374.717 530.454 372.682 530.063 370.653C529.672 368.623 530.184 366.587 530.888 364.65C531.255 363.64 531.695 362.613 532.578 361.836C533.463 361.06 534.894 360.584 536.204 360.922C537.293 361.201 538.012 361.926 538.742 362.659C539.293 363.214 539.85 363.775 540.577 364.154C540.835 364.289 541.127 364.421 541.423 364.555C542.571 365.075 543.798 365.63 543.435 366.488C541.157 365.906 538.967 365.081 536.948 364.043C537.378 366.884 538.922 369.655 541.318 371.886C541.808 372.342 540.976 373.019 540.247 372.874C539.517 372.729 539.056 372.165 538.675 371.65ZM720.001 323.488C720.744 322.608 721.423 321.803 721.924 321.895C723.386 322.162 720.71 325.029 719.096 325.999C719.483 326.678 720.658 326.123 721.272 325.594C721.885 325.066 723.843 324.256 723.583 324.755C721.96 327.868 717.748 330.886 713.304 332.151C711.502 332.663 709.058 332.698 707.959 331.401C706.954 330.218 707.702 328.728 708.632 327.538L708.858 327.257C709.257 326.779 709.984 326.248 710.626 326.57C712.334 327.425 714.304 326.099 715.482 324.893C715.482 324.893 718.329 321.162 719.056 321.231C719.78 321.3 718.385 325.17 718.385 325.17C718.929 324.761 719.481 324.107 720.002 323.489L720.001 323.488ZM702.202 329.773C702.641 329.6 703.186 329.66 703.666 329.79C705.413 330.266 706.688 331.716 706.609 333.137C706.528 334.559 705.102 335.816 703.316 336.042C703.062 336.074 702.79 336.085 702.551 335.997C702.049 335.814 701.922 335.31 701.866 334.886L701.449 331.778C701.349 331.028 701.36 330.102 702.202 329.773ZM616.555 338.481C618.964 337.671 621.613 337.266 624.281 337.301C624.431 338.14 623.365 338.733 622.41 339.087C619.463 340.182 616.266 340.895 612.983 341.189C613.352 339.857 614.965 339.015 616.555 338.481ZM751.35 242.779L743.589 240.91C746.722 239.914 750.702 240.625 753.135 242.616C752.795 243.034 751.977 242.93 751.35 242.779ZM628.269 332.141C625.667 333.255 623.13 334.459 620.67 335.748C623.967 336.465 627.65 334.716 628.269 332.141ZM599.731 334.443C600.552 334.426 600.548 335.457 600.071 335.963C598.618 337.503 595.796 338.138 593.406 337.462L599.731 334.443ZM750.501 229.523C750.926 229.353 751.449 229.412 751.93 229.485C755.062 229.96 758.107 230.886 760.864 232.201L749.929 230.119C749.994 229.865 750.209 229.641 750.501 229.523ZM612.609 277.429L612.722 277.463C613.548 277.205 614.457 277.097 615.361 277.151C615.028 278.368 614.369 279.52 613.436 280.511C612.489 279.674 612.159 278.445 612.609 277.429ZM772.106 236.432L772.144 236.476C773.32 236.619 774.365 237.392 774.616 238.304C772.122 237.817 769.82 236.635 768.228 235.025C769.654 235.139 771.047 235.645 772.106 236.432ZM598.272 339.161L598.176 339.362C597.839 340.056 597.415 340.821 596.524 341.077C595.632 341.334 594.347 340.565 594.808 339.92C595.76 339.329 597.029 339.051 598.272 339.161ZM535.596 358.65C536.474 358.649 537.574 358.951 537.683 359.636C535.728 359.792 533.744 359.793 531.771 359.639C532.853 359.003 534.211 358.652 535.596 358.65ZM710.594 325.947C710.219 326.174 709.609 325.627 709.95 325.371C709.95 325.371 711.354 320.946 712.461 323.656C712.766 324.325 711.25 325.495 710.594 325.947ZM599.064 368.084C598.845 366.861 598.433 364.554 599.232 364.405C600.33 364.1 600.446 365.708 600.527 366.841C600.549 367.153 600.568 367.43 600.606 367.62C600.736 368.285 600.157 368.935 599.17 368.786C599.172 368.685 599.125 368.427 599.064 368.084ZM350.394 458.058C356.301 457.38 362.157 456.49 367.937 455.396C369.079 459.78 375.034 463.198 380.633 462.685C386.231 462.171 390.558 457.809 389.857 453.385C389.576 451.607 392.399 450.764 394.632 450.491L408.848 448.76C411.285 448.464 414.444 447.242 413.508 445.408L407.776 434.17C407.258 433.157 407.17 431.555 408.54 431.52C414.376 431.37 419.199 426.898 418.362 422.34C417.526 417.782 411.124 414.143 405.446 415.05C402.718 415.486 400.423 412.926 400.379 410.727C400.355 409.544 400.709 408.404 401.063 407.262C401.368 406.28 401.673 405.297 401.739 404.285C401.881 402.095 400.13 399.407 397.319 399.408C375.978 399.418 354.868 403.01 335.823 409.872L335.475 409.999C334.429 410.383 333.396 410.807 332.607 411.456C330.014 413.585 330.999 417.035 332.235 420.008L332.94 421.658C336.983 431.238 339.531 441.153 340.504 451.105L340.527 451.331C340.759 453.597 341.205 456.154 343.622 457.454C345.413 458.419 347.696 458.343 349.82 458.122L350.394 458.058ZM386.708 453.778C387.094 454.372 387.127 455.059 387.02 455.702L386.984 455.899C386.244 459.357 381.185 461.721 376.817 460.592C372.366 459.443 369.759 454.957 371.67 451.736C364.605 453.791 357.209 455.216 349.663 455.976C347.328 456.212 344.014 455.794 343.84 453.94C342.648 441.193 339.133 428.494 333.434 416.348C332.402 414.147 335.469 412.335 338.118 411.408C355.205 405.432 373.903 402.068 392.905 401.552C395.336 401.486 398.796 402.319 398.379 404.181C397.399 408.565 398.055 413.223 400.247 417.45C400.807 418.527 402.425 419.773 403.446 418.991C406.196 416.883 411.388 417.196 413.963 419.626C416.539 422.055 415.927 426.061 412.724 427.742C409.522 429.423 404.437 428.405 402.425 425.681C403.719 431.823 406.221 437.851 409.813 443.486C411.058 445.44 407.571 446.913 404.887 447.247L383.461 449.914C383.107 450.835 384.064 451.542 385.072 452.284C385.701 452.748 386.348 453.225 386.708 453.778ZM481.736 396.036L523.066 389.042L523.742 388.931C524.987 388.732 526.261 388.586 527.521 388.79C530.367 389.251 532.344 391.325 533.868 393.292C542.006 403.795 545.927 416.16 544.911 428.117L544.864 428.609C544.704 430.086 544.342 431.597 543.083 432.646C542.047 433.51 540.555 433.927 539.08 434.27L538.764 434.341C532.736 435.708 526.56 436.726 520.301 437.383C522.914 435.248 522.358 431.336 519.451 429.231C516.544 427.127 511.917 426.883 508.626 428.355C506.62 429.252 505.012 430.812 504.83 432.643C504.647 434.475 506.19 436.496 508.505 436.942C510.105 437.251 510.511 439.087 509.57 440.095C508.63 441.103 506.951 441.474 505.389 441.786L484.867 445.888C483.325 446.196 481.697 446.504 480.124 446.17C477.895 445.695 476.361 444.065 475.209 442.48C472.43 438.656 470.705 434.394 470.189 430.086C472.537 433.127 478.324 434.162 481.853 432.172C485.38 430.182 485.848 425.618 482.793 422.976C479.739 420.333 473.859 420.213 470.942 422.733L470.414 421.708C468.571 418.118 466.825 414.458 466.41 410.66C465.956 406.501 467.341 402.077 471.27 399.418C474.135 397.478 477.966 396.687 481.736 396.036ZM527.822 391.091C526.616 390.792 525.345 390.939 524.123 391.123L523.819 391.17C510.899 393.171 498.039 395.36 485.246 397.736L480.984 398.535C478.288 399.045 475.514 399.593 473.357 400.914C470.136 402.883 468.822 406.306 468.964 409.58C469.104 412.854 470.505 416.05 471.893 419.187C477.861 416.568 486.707 420.483 487.844 425.91C488.98 431.338 482.956 436.531 475.995 436.739C476.298 438.465 476.629 440.253 477.829 441.751C479.03 443.249 481.365 444.371 483.474 443.921L502.414 439.877C503.587 439.626 505.047 438.837 504.38 438.004C500.591 433.273 504.082 426.278 510.827 425.087C517.572 423.896 525.216 428.925 524.942 434.373C529.413 434.34 533.839 433.685 537.949 432.446C539.283 432.044 540.647 431.542 541.449 430.625C542.238 429.722 542.365 428.556 542.428 427.442C543.07 416.092 539.393 404.455 531.981 394.38C531.023 393.077 529.849 391.702 528.089 391.165L527.822 391.091ZM382.586 525.066C376.771 514.96 372.905 504.228 371.165 493.364L371.085 492.838C370.734 490.364 370.718 487.687 372.756 485.909C374.282 484.578 376.63 484.062 378.894 483.64L396.244 480.452C397.034 480.307 397.907 480.169 398.649 480.47C399.391 480.772 399.716 481.721 399.015 482.029C397.343 482.765 396.897 484.618 397.651 486.059C398.406 487.499 400.085 488.555 401.865 489.261C406.108 490.947 411.703 490.785 414.777 488.149C417.852 485.514 416.943 480.366 412.591 478.876C420.642 477.239 428.751 475.751 436.91 474.415L439.971 473.921C440.962 473.764 442.069 473.623 442.955 474.052C443.621 474.374 444.009 474.949 444.332 475.504C446.829 479.775 447.53 484.62 446.296 489.085C446.1 489.795 445.368 490.675 444.525 490.319C440.943 488.803 436.259 489.972 434.064 492.499C431.869 495.027 431.932 498.534 433.534 501.453C435.075 504.262 438.863 506.864 442.504 506.03C443.53 505.796 444.511 505.31 445.471 504.834C447.196 503.978 448.862 503.152 450.624 503.862L451.645 517.652C451.825 520.102 451.64 523.082 448.873 524.129C432.907 530.174 414.999 533.274 396.926 533.123L396.047 533.111C393.845 533.068 391.607 532.898 389.617 532.112C386.154 530.744 384.175 527.828 382.586 525.066ZM448.186 506.815C444.022 509.502 437.199 509.13 432.938 506.222C428.677 503.313 427.184 498.301 429.039 494.301C430.893 490.3 435.789 487.447 441.216 486.819L441.668 486.767C442.429 486.679 443.198 486.559 443.723 486.148C444.386 485.628 444.451 484.8 444.416 484.048C444.278 481.045 443.141 478.038 441.149 475.4L418.783 479.701C420.968 484.551 417.579 490.31 411.562 491.976C405.545 493.641 397.889 490.94 395.244 486.217L394.858 485.513C394.461 484.805 393.992 484.12 393.133 483.783C392.53 483.548 391.846 483.536 391.18 483.555L390.931 483.563C384.059 483.8 375.645 484.934 373.847 490.073C373.234 491.822 373.582 493.715 373.986 495.538C376.308 506.006 380.364 516.3 386.023 526.078L386.291 526.534C387.16 527.984 388.228 529.441 390.013 530.19C391.241 530.705 392.646 530.812 394.02 530.859L394.362 530.87C411.901 531.385 429.384 528.635 444.964 522.921L445.827 522.599C446.592 522.312 447.38 521.999 447.867 521.46C448.502 520.758 448.503 519.815 448.482 518.935L448.186 506.815ZM578.491 510.264C578.491 510.264 577.848 508.206 577.932 507.474C578.083 506.153 579.195 504.108 579.195 504.108C579.243 504.597 579.254 505.127 579.266 505.674C579.306 507.55 579.35 509.621 580.871 510.878C582.043 511.846 595.447 515.603 599.823 516.254C618.536 519.037 637.131 521.247 655.813 523.467L655.815 523.467L655.816 523.467L655.833 523.469C663.466 524.377 671.115 525.286 678.791 526.236C666.567 527.295 654.121 524.964 641.977 522.651C643.312 533.125 654.036 541.938 666.054 547.031C674.804 550.741 684.319 552.926 693.832 555.112L693.833 555.112L693.835 555.112C697.385 555.928 700.936 556.744 704.446 557.638L705.739 557.972C718.234 561.254 730.764 566 738.743 574.276C740.205 575.794 743.186 576.259 745.141 575.274C747.097 574.289 747.722 572.008 746.484 570.377C749.28 571.428 749.159 574.961 746.707 576.286C744.254 577.61 740.709 577.092 738.078 575.792C736.096 574.813 734.473 573.468 732.853 572.123L732.851 572.123L732.851 572.121L732.846 572.119C732.318 571.68 731.79 571.242 731.249 570.817C721.504 563.153 707.955 559.788 694.667 556.873L688.432 555.516C674.004 552.329 658.87 548.093 649.785 538.67C631.31 544.702 610.571 546.803 590.27 544.697C585.927 544.247 581.604 543.608 577.283 542.97C570.399 541.954 563.521 540.938 556.578 540.684C552.711 540.542 547.748 541.374 547.4 544.37C547.399 544.37 547.398 544.371 547.396 544.378C547.378 544.439 547.25 544.839 546.137 545.129C545.615 545.265 544.855 544.614 544.525 544.15C544.345 544.036 544.161 543.655 543.873 542.857C543.718 542.426 544.147 540.339 545.812 538.786C546.971 537.707 548.497 537.11 549.296 536.797C549.657 536.655 549.869 536.572 549.834 536.529C549.751 536.428 548.158 536.4 546.998 537.168C546.101 537.761 545.308 538.472 544.577 539.125L544.577 539.126C543.447 540.137 542.47 541.01 541.509 541.097C540.207 541.217 539.145 540.917 538.769 539.916C538.394 538.915 538.29 537.63 539.041 536.818C540.646 535.08 543.078 533.835 545.785 533.364C546.37 533.262 547.039 533.208 547.545 533.487C548.051 533.765 548.116 534.498 547.541 534.626C544.091 535.401 540.216 536.617 539.88 539.709C539.781 540.609 542.331 540.276 543.139 539.656C543.608 539.296 543.966 538.862 544.325 538.428C544.584 538.114 544.844 537.8 545.146 537.513C546.049 536.654 547.338 536.053 548.752 535.832C549.321 535.743 549.98 535.73 550.442 536.03C550.906 536.329 550.907 537.028 550.346 537.14C546.739 537.861 544.328 540.964 545.111 543.872C545.162 543.973 545.433 544.427 545.896 544.461C546.436 544.5 546.866 544.081 546.876 544.045C547.802 541.026 550.603 538.603 554.628 538.807C556.149 538.884 557.682 539.146 559.208 539.408C561.876 539.867 564.523 540.321 567.054 539.77L563.196 533.611C555.344 530.252 545.39 530.405 538.132 533.996C537.355 534.38 536.545 534.879 536.433 535.604C536.321 536.328 537.434 537.143 538.186 536.731C537.21 537.95 534.372 536.717 534.381 535.249C534.39 533.781 536.039 532.721 537.659 532.035C546.748 528.187 557.803 529.888 568.485 531.531L568.494 531.532C570.474 531.837 572.441 532.139 574.38 532.404C595.99 535.355 618.403 533.134 637.811 526.119C637.616 528.217 634.786 529.367 632.288 530.077C614.565 535.115 595.037 536.62 575.972 534.418C574.639 536.911 576.814 539.993 579.879 541.452C582.945 542.911 586.623 543.148 590.139 543.312C609.843 544.229 630.276 543.933 647.725 537.426L639.697 524.058L639.545 523.816C639.196 523.287 638.716 522.763 637.996 522.709L637.814 522.695C611.731 520.727 591.853 519.227 561.921 505.847C561.86 505.82 561.801 505.793 561.743 505.764C563.494 511.133 561.779 512.706 552.34 512.91C531.744 513.355 511.229 515.4 492.383 521.237C491.775 515.152 491.561 509.057 491.745 502.983C485.946 505.804 476.732 502.573 475.234 497.191C473.734 491.811 480.543 486.417 487.439 487.526C488.152 483.317 486.675 478.827 483.409 475.28C481.843 473.579 485.014 471.839 487.536 471.369L501.472 468.773C503.421 468.41 505.879 467.188 504.856 465.784C502.432 462.455 504.049 457.833 508.232 456.142C512.338 454.48 518.166 455.948 520.553 459.2L520.683 459.383C523.082 462.907 529.461 462.98 534.251 462.011L536.632 461.519C540.774 460.675 545.154 459.974 548.774 461.762C553.104 463.9 553.943 468.433 554.194 472.383L554.21 472.645C554.319 474.536 554.061 476.135 553.803 477.744C553.31 480.81 552.812 483.909 554.83 489.111C555.653 491.231 556.455 493.169 557.211 494.939C557.145 493.609 557.186 492.715 557.186 492.715C557.186 492.715 612.267 511.04 641.633 509.454C644.148 506.477 640.555 502.255 636.33 500.557C634.548 499.841 632.637 499.35 630.731 498.859C628.115 498.187 625.509 497.517 623.257 496.271C618.786 493.795 616.647 489.635 614.526 485.511C612.22 481.026 609.935 476.583 604.697 474.391C604.23 474.196 603.744 474.023 603.26 473.849C602.166 473.457 601.072 473.066 600.193 472.427C598.019 470.846 597.825 468.12 599.042 466.106C600.258 464.094 602.584 462.664 604.956 461.446C609.878 458.917 615.569 456.958 621.592 457.136C627.614 457.315 633.942 460.065 636.137 464.528C636.541 462.515 638.394 460.77 640.835 460.102L638.293 463.852L642.937 463.065L637.596 467.057C643.614 472.091 645.541 479.324 645.268 486.037C645.235 486.86 645.173 487.687 645.112 488.517C644.868 491.832 644.621 495.175 646.123 498.309C647.969 502.161 653.828 505.357 658.359 503.655L658.585 503.566C663.962 501.329 670.549 500.819 676.594 502.172C683.643 503.75 689.433 507.574 695.163 511.358C696.493 512.237 697.82 513.113 699.158 513.958C705.431 517.92 712.415 521.39 720.134 522.925C727.854 524.46 736.421 523.847 742.582 520.233C743.715 519.569 744.761 518.81 745.806 518.053C747.579 516.767 749.347 515.485 751.529 514.672C754.994 513.383 760.199 513.937 761.702 516.813C758.888 514.648 754.212 515.041 750.968 516.551C749.136 517.404 747.57 518.532 746.003 519.662C744.791 520.533 743.58 521.406 742.244 522.154C735.554 525.898 726.269 526.112 718.142 524.099C710.27 522.15 703.284 518.353 696.751 514.287L696.12 513.892C695.457 513.475 694.793 513.055 694.13 512.633L694.129 512.633L694.127 512.631L694.126 512.631L694.123 512.63L694.123 512.629L694.121 512.628L694.119 512.627L694.117 512.626C689.499 509.696 684.845 506.743 679.465 504.861C673.429 502.75 666.144 502.194 660.718 504.756L660.388 504.917C655.246 507.503 647.662 504.313 644.947 499.815C642.232 495.317 642.958 490.182 643.743 485.367C644.553 480.401 638.178 475.967 631.803 474.983C625.887 474.07 619.615 475.282 615.127 478.208C613.673 479.155 613.999 480.96 614.595 482.444L614.661 482.608C616.856 487.829 620.635 493.044 626.802 495.752C628.636 496.558 630.62 497.114 632.6 497.67C635.078 498.365 637.552 499.059 639.717 500.236C643.613 502.354 645.863 507.261 642.306 509.46C649.663 509.159 657.062 509.194 664.454 509.568C626.794 513.415 588.222 506.011 558.116 494C557.897 494.857 557.839 495.73 557.927 496.599C558.281 497.415 558.623 498.193 558.948 498.933C559.407 499.977 559.832 500.947 560.217 501.848C562.472 504.661 566.153 506.826 570.309 507.306C569.245 505.233 569.353 502.848 570.596 500.923C570.171 503.228 569.743 507.574 578.491 510.264ZM619.995 459.02C616.565 459.145 613.164 459.506 609.841 460.095C609.735 460.467 609.791 460.871 609.996 461.228C613.776 460.785 617.69 460.879 621.494 461.503C620.492 462.874 617.938 462.64 615.862 462.45L615.74 462.44C612.194 462.116 608.585 462.55 605.411 463.681C603.792 464.258 602.246 465.041 601.253 466.189C600.259 467.337 599.902 468.902 600.687 470.208C601.689 471.875 604.181 472.678 606.483 472.963C612.187 473.669 618.14 472.063 621.891 468.806C622.194 468.542 622.839 468.769 622.988 469.118C623.137 469.468 622.949 469.837 622.722 470.146C621.405 471.937 618.836 472.908 616.288 473.509C615.544 473.685 614.788 473.838 614.032 473.991C612.199 474.363 610.365 474.734 608.714 475.423C609.373 476.541 611.352 476.6 612.867 476.409C618.658 475.679 624.194 474.003 629.028 471.518C630.238 470.896 631.859 471.733 632.99 472.522L641.237 478.279C642.627 476.509 641.63 474.085 640.035 472.31C639.411 471.618 638.703 470.969 637.994 470.322C636.889 469.312 635.787 468.305 635.018 467.134C634.594 466.489 634.278 465.804 633.963 465.121C633.52 464.161 633.078 463.204 632.339 462.361C629.733 459.393 624.482 458.855 619.995 459.02ZM572.616 534.401L566.505 532.99C565.828 532.833 564.738 532.988 564.988 533.507C565.582 535.686 566.751 538.273 569.137 539.737C570.642 540.659 571.642 541.088 575.794 541.129L573.342 535.173C573.213 534.858 573.022 534.494 572.616 534.401ZM640.774 486.836C641.307 486.424 641.526 485.826 641.725 485.254C642.081 484.232 642.439 483.153 642.093 482.103C641.747 481.053 640.424 480.083 639.09 480.287C638.427 480.389 637.892 480.752 637.465 481.152C636.516 482.04 635.945 483.176 635.859 484.355C636.716 484.934 637.865 484.06 638.228 483.256C638.59 482.452 639.181 481.411 640.277 481.574C640.27 483.455 639.73 485.314 638.705 486.979C639.288 487.391 640.242 487.247 640.774 486.836ZM669.575 535.634C667.454 534.07 665.162 532.381 662.345 532.268C671.217 539.794 682.775 545.376 695.219 548.144C699.565 549.111 704.007 549.742 708.446 550.372C714.637 551.252 720.819 552.131 726.717 553.916C734.105 556.153 740.862 559.797 746.216 564.431C742.146 557.16 732.125 552.88 722.36 550.902C717.939 550.006 713.437 549.458 708.937 548.912C703.496 548.251 698.059 547.59 692.773 546.314C684.349 544.281 676.461 540.686 669.962 535.918C669.833 535.825 669.704 535.729 669.575 535.634ZM688.62 534.804L688.883 535.058C690.063 536.227 691.144 537.77 690.128 538.899C689.32 539.8 687.611 539.831 686.19 539.598C683.118 539.096 680.236 537.733 678.197 535.82C679.689 535.278 680.946 534.372 681.754 533.255C682.427 532.325 684.151 532.167 685.447 532.614C686.744 533.061 687.708 533.948 688.62 534.804ZM688.87 538.043C689.535 535.849 685.718 533.505 684.292 533.572C683.67 533.602 683.227 534.179 682.751 534.799C682.261 535.436 681.738 536.118 680.953 536.299C680.953 536.299 688.205 540.239 688.87 538.043ZM759.739 530.809C792.58 523.778 820.334 504.968 833.765 480.642C834.459 479.383 836.585 478.968 838.322 479.355C840.059 479.741 841.492 480.722 842.856 481.673C843.855 481.358 843.424 480.07 842.485 479.593C842.022 479.358 841.498 479.222 840.974 479.086C840.435 478.946 839.898 478.807 839.426 478.56C837.52 477.56 837.573 475.418 837.855 473.687L839.109 465.971C839.277 464.937 839.674 463.693 840.97 463.468C841.917 463.302 842.869 463.792 843.676 464.258C852.472 469.339 860.908 474.815 868.922 480.646C865.658 481.701 861.894 480.98 858.181 480.269C854.034 479.474 849.95 478.691 846.698 480.409C843.863 481.904 842.909 484.771 842.067 487.392C839.315 495.964 835.664 504.407 829.891 511.908C816.48 529.33 792.914 540.176 769.209 548.671C786.402 550.434 803.965 548.557 819.518 543.296C828.418 540.285 836.848 536.049 842.407 529.878C844.657 527.381 846.394 524.616 848.122 521.863L860.854 501.578C861.6 500.391 863.97 500.957 865.367 501.799C866.764 502.64 868.618 503.669 870.022 502.937C868.189 501.163 865.639 499.838 862.864 499.22C861.868 496.878 860.865 494.359 861.731 492.054C862.597 489.749 866.208 488.033 868.891 489.367C877.686 493.742 886.275 498.382 894.632 503.273C891.17 504.399 887.279 503.805 883.418 503.215L883.417 503.215L883.415 503.216C882.222 503.033 881.033 502.851 879.859 502.721C874.886 502.167 868.625 503.365 867.825 507.188C865.64 517.645 863.324 528.383 856.313 537.287C844.603 552.157 822.196 559.191 801.096 565.208C791.739 567.875 782.102 570.548 771.984 570.351C764.619 570.207 757.365 568.544 750.215 566.895L744.541 565.587C743.209 566.138 744.982 567.645 746.47 568.003C756.006 570.295 765.82 572.612 775.6 572.039C778.092 571.892 780.549 571.559 782.987 571.182C805.438 567.709 826.705 560.459 844.96 550.055C852.572 545.717 860.005 540.427 862.451 533.233L871.071 507.883C871.402 506.912 871.778 505.882 872.757 505.248C873.949 504.476 875.688 504.503 877.273 504.567L894.167 505.251C895.893 505.321 896.841 503.565 896.203 502.288C895.566 501.012 893.99 500.174 892.511 499.425L873.728 489.91C871.251 488.655 868.605 487.356 865.714 487.269C862.823 487.183 859.749 488.855 860.004 491.115C860.757 497.784 857.147 504.067 853.619 510.009C848.157 519.203 842.434 528.673 832.608 535.209C818.518 544.58 798.509 546.343 779.658 547.109L790.315 542.267C795.59 539.869 800.873 537.468 805.825 534.695C825.032 523.938 838.778 507.521 843.878 489.249C844.762 486.078 845.824 482.405 849.591 481.101C852.686 480.028 856.019 481.036 859.426 482.067C861.451 482.679 863.502 483.299 865.546 483.496C868.56 483.786 872.383 481.864 870.933 479.738C870.605 479.258 870.058 478.891 869.525 478.538L848.77 464.773C845.891 462.864 841.88 460.847 838.812 462.336C836.346 463.532 836.223 466.203 836.114 468.558L836.104 468.772L836.099 468.869L836.093 468.978C835.545 479.925 826.778 489.132 818.363 497.611C814.68 501.32 810.988 505.038 806.777 508.38C794.475 518.144 778.155 524.346 761.244 528.438C756.467 529.594 754.711 533.779 753.103 537.61C752.913 538.065 752.724 538.515 752.532 538.955C749.731 545.38 744.493 551.065 737.628 555.129C739.347 556.029 741.478 554.901 742.834 553.778C749.269 548.444 753.979 541.837 756.447 534.676C756.993 533.097 757.722 531.241 759.739 530.809ZM634.347 490.873C634.061 492.337 632.705 493.604 630.923 494.073C629.142 494.542 627.005 494.194 625.529 493.194C624.987 492.826 624.682 491.968 625.37 491.89C627.298 493.099 630.351 492.937 631.896 491.542C632.564 490.938 633.818 490.148 634.347 490.873ZM616.189 484.002C615.956 482.865 616.789 481.683 618.122 481.259C619.455 480.836 621.171 481.208 622.106 482.123C621.088 482.313 620.352 482.293 619.74 482.278C618.495 482.246 617.76 482.227 616.189 484.002ZM629.207 488.161L627.816 488.994L627.71 488.969C627.522 489.665 626.059 489.189 625.715 488.51C625.644 488.37 625.58 488.219 625.515 488.067C625.268 487.484 625.009 486.878 624.299 486.728C623.845 487.749 623.909 488.969 624.721 489.893C625.532 490.817 627.169 491.328 628.428 490.892C629.687 490.455 630.176 488.989 629.207 488.161ZM628.025 479.253C630.076 479.007 630.641 478.994 631.569 479.935C631.753 480.12 630.826 480.086 629.943 480.053C629.294 480.029 628.667 480.006 628.525 480.072C622.384 482.895 625.975 479.498 628.025 479.253ZM628.449 482.102C629.806 482.59 630.484 485.42 628.661 485.202C627.897 485.112 625.564 481.063 628.449 482.102ZM708.209 546.386C707.492 545.963 707.756 544.92 708.611 544.796C709.053 544.918 709.426 545.201 709.594 545.543C709.423 546.013 708.843 546.362 708.21 546.374L708.209 546.386ZM691.198 543.792L692.3 543.438L692.383 543.395C692.57 542.729 691.018 542.296 690.686 542.922C690.681 543.247 690.876 543.576 691.198 543.792ZM700.697 545.863C700.081 546.13 699.663 545.239 699.873 544.71L701.675 544.987C701.552 545.374 701.183 545.699 700.708 545.84L700.697 545.863ZM676.014 536.336C675.712 536.022 675.031 536.008 674.745 536.308L674.875 536.37C674.674 536.76 675.132 537.278 675.679 537.28C676.136 537.156 676.315 536.649 676.014 536.336ZM620.754 486.743C620.112 486.862 619.262 486.49 618.984 485.62C618.705 484.751 618.714 483.898 619.817 484.145C620.921 484.392 621.416 486.62 620.754 486.743ZM283.964 437.462C284.497 437.793 285.316 437.451 285.502 436.96C285.688 436.469 285.448 435.933 285.206 435.44C281.693 428.329 276.726 421.613 270.56 415.635C268.804 413.933 266.823 411.771 267.875 409.838C274.367 416.63 280.924 423.509 285.189 431.254C286.353 433.368 287.351 435.734 286.475 437.858C285.6 439.981 282.022 441.399 279.686 439.976C282.158 439.053 283.409 436.572 282.454 434.487C283.904 434.916 284.673 436.431 283.964 437.462ZM366.681 576.241C380.215 573.085 395.575 568.55 399.439 557.92C400.44 555.164 398.677 551.453 397.223 548.394C396.056 545.936 395.089 543.901 395.917 543.121C397.775 541.37 400.866 544.418 400.866 544.418C400.86 544.316 400.853 544.202 400.845 544.08C400.834 543.92 400.821 543.745 400.806 543.558C400.624 541.123 400.287 536.637 402.462 537.087C403.356 537.273 403.836 539.394 404.166 540.852L404.166 540.852C404.243 541.195 404.313 541.5 404.376 541.735C404.412 541.963 404.472 542.148 404.553 542.273C404.575 542.259 404.599 542.241 404.621 542.221C404.632 542.218 404.643 542.21 404.654 542.197C404.662 542.189 404.67 542.177 404.678 542.164C404.909 541.903 405.145 541.322 405.409 540.675C405.952 539.336 406.61 537.715 407.577 538.086C409.094 538.668 406.603 544.65 406.603 544.65C406.603 544.65 410.153 539.186 411.281 541.021C412.408 542.855 406.863 562.35 398.674 571.115C390.484 579.881 376.867 586.469 362.826 587.631C361.594 583.319 361.39 577.475 366.681 576.241ZM404.678 542.164C404.659 542.185 404.64 542.204 404.621 542.221C404.543 542.246 404.465 542.056 404.376 541.735C404.296 541.215 404.344 540.475 404.58 539.731C404.572 539.973 404.562 540.208 404.551 540.428C404.503 541.415 404.469 542.13 404.735 542.026C404.723 542.063 404.711 542.095 404.699 542.121C404.692 542.138 404.685 542.151 404.678 542.164ZM405.831 537.783C405.207 538.306 404.807 539.019 404.58 539.731C404.648 537.83 404.558 535.464 402.756 535.609C399.7 535.855 398.189 540.188 399.427 542.11C398.03 540.656 394.878 541.984 394.633 543.743C394.444 545.092 395.2 546.39 395.95 547.68L395.95 547.681C396.177 548.071 396.404 548.462 396.604 548.852C399.797 555.087 395.893 562.198 389.54 566.325C383.551 570.217 375.822 572.045 368.2 573.665L366.422 574.041C362.064 574.948 357.281 575.753 353.13 574.158C348.855 572.514 346.903 567.09 350.892 565.324C361.018 560.844 366.351 550.793 363.433 541.689C362.571 538.998 363.958 536.367 365.299 533.825C365.419 533.596 365.54 533.368 365.657 533.141L365.948 532.574C367.42 529.646 368.131 525.858 365.174 523.541C363.222 527.243 357.906 529.579 352.717 529.014C350.552 528.779 348.464 528.1 346.389 527.426C343.612 526.524 340.857 525.629 337.97 525.814C332.324 526.176 328.519 531.514 330.986 535.614C329.169 534.912 327.427 536.81 327.812 538.349C328.039 539.253 328.644 540.062 329.253 540.873C329.68 541.443 330.108 542.014 330.408 542.622C330.756 543.329 330.923 544.07 331.092 544.813C331.205 545.315 331.318 545.817 331.488 546.309C332.366 548.86 334.645 550.947 336.89 553.002L336.892 553.004L336.895 553.007C337.12 553.213 337.344 553.418 337.566 553.623L338.172 554.189C340.77 556.645 343.142 559.701 342.41 562.733C341.68 565.766 336.166 567.7 333.53 565.269C320.611 553.355 299.001 547.628 280.234 551.145C258.504 555.216 243.035 570.198 235.237 586.487C234.264 588.518 233.374 590.678 233.793 592.871C234.212 595.065 236.341 597.276 239.155 597.511C241.97 597.748 244.568 595.139 242.998 593.251C244.728 594.21 246.973 592.581 247.042 590.965C247.081 590.056 246.756 589.166 246.43 588.272C246.175 587.576 245.92 586.878 245.836 586.168C245.427 582.686 249.065 579.954 252.456 577.821L253.141 577.391C261.139 572.391 269.648 567.672 279.493 565.245C289.619 562.746 301.465 562.969 310.718 567.618C301.685 571.241 298.834 579.986 296.912 587.93L296.647 589.037C294.714 597.08 291.615 606.039 282.234 609.413C283.171 610.894 285.363 611.856 287.414 611.684L257.186 635.596L260.968 637.82C255.981 650.225 249.617 662.247 241.968 673.71C237.809 679.944 231.925 686.696 222.805 687.122C221.156 687.199 219.479 687.055 217.807 686.912C215.359 686.703 212.923 686.494 210.608 686.981C206.711 687.801 204.133 692.319 207.624 694.108C215.354 698.071 223.7 701.268 232.381 703.591L232.605 703.651C233.659 703.925 234.792 704.154 235.795 703.867C236.81 703.577 237.451 702.827 238.028 702.119L274.502 657.349C277.497 653.705 280.898 649.985 286.125 648.559L286.563 648.431C290.384 647.253 292.943 644.651 295.51 642.042C296.628 640.906 297.746 639.768 298.972 638.747C303.118 635.288 311.406 633.47 314.981 637.568C316.88 639.746 316.383 642.413 315.893 645.041L315.893 645.042C315.747 645.826 315.601 646.605 315.52 647.368C315.167 650.689 318.05 655.16 322.146 654.336L345.073 649.724C345.899 649.564 346.784 649.438 347.573 649.72C348.398 650.013 348.887 650.668 349.262 651.329L349.429 651.633C352.312 657.06 354.241 662.765 355.144 668.532C356.122 674.782 355.333 682.003 348.946 685.55C344.919 687.787 339.611 688.003 334.527 688.025L303.599 688.059C302.548 685.288 304.908 682.434 308.029 681.067C310.675 679.907 313.759 679.537 316.815 679.169C317.002 679.148 317.19 679.125 317.377 679.102L318.453 678.968C325.935 678.002 333.159 676.082 339.759 673.304L322.138 654.853C325.623 661.418 330.326 667.626 336.046 673.211L302.57 680.367C299.651 680.98 296.348 681.485 293.756 680.153C293.092 679.811 292.475 679.353 291.863 678.899C290.608 677.966 289.376 677.051 287.797 677.195C286.432 677.32 285.488 678.242 284.721 679.113C279.725 684.804 276.221 691.322 274.476 698.179C276.908 700.706 281.91 700.609 285.289 699.126C287.265 698.257 288.918 697.048 290.574 695.836C291.751 694.977 292.927 694.116 294.222 693.376C301.447 689.241 311.066 689.342 320.433 689.793L326.002 690.075C336.995 690.598 349.785 689.536 355.272 682.295C358.51 678.023 358.295 672.601 357.419 667.547C354.891 652.963 347.547 638.73 336.302 626.623C342.698 623.089 343.795 616.092 344.366 609.869L345.484 597.683C345.857 593.611 348.118 588.279 353.329 588.922C368.226 590.758 383.324 586 393.655 577.9C403.987 569.799 409.902 558.691 412.46 547.248L412.527 546.94C413.016 544.67 412.86 539.614 411.275 539.345C410.638 539.119 409.905 539.828 409.406 540.312C409.136 540.573 408.934 540.768 408.853 540.714C408.802 540.68 408.821 540.395 408.849 539.991C408.956 538.401 409.188 534.969 405.831 537.783ZM340.275 617.222C339.697 620.396 338.246 624.274 334.166 624.626C331.982 624.814 329.933 623.849 328.032 622.82L327.009 622.258C315.919 616.153 302.768 613.17 289.705 610.603L285.356 609.759C294.101 606.591 297.201 598.273 298.852 590.772L299.378 588.381C300.901 581.562 302.875 574.469 309.578 570.279C310.505 569.7 311.616 569.169 312.827 569.282C313.011 569.298 313.21 569.32 313.417 569.342C314.92 569.502 316.856 569.709 316.462 568.698C313.709 568.369 312.274 565.593 313.056 563.546C313.77 561.678 315.685 560.32 317.624 559.096L318.178 558.75C316.195 557.461 313.582 559.342 312.488 561.075L312.397 561.217C311.286 562.922 309.358 564.922 307.081 564.127C297.667 560.845 286.843 561.243 277.408 563.789C267.974 566.336 259.731 570.866 252.026 575.726C249.201 577.507 246.365 579.404 244.707 581.94C243.424 583.902 244.006 586.087 244.591 588.283C244.762 588.925 244.932 589.57 245.057 590.209C245.36 591.756 244.337 592.007 243.436 592.229C242.953 592.347 242.506 592.458 242.316 592.754C242.3 592.778 242.259 592.879 242.198 593.03C241.889 593.804 241.05 595.898 240.311 595.843C239.224 595.761 239.119 593.973 239.119 593.973C239.119 593.973 236.419 595.186 235.96 594.561C234.356 592.376 237.048 586.793 237.048 586.793C241.349 576.779 249.76 567.569 260.345 561.155C271.126 554.622 285.196 551.129 299.116 552.49C314.809 554.025 329.641 561.908 337.457 572.87C339.406 575.602 344.129 576.089 348.028 575.878C348.385 575.859 348.747 575.838 349.11 575.817L349.12 575.816L349.138 575.815C352.729 575.6 356.546 575.372 359.485 577.042C360.352 577.534 360.5 578.474 360.559 579.293L360.575 579.529C360.759 582.457 360.453 585.827 357.351 587.303C354.531 588.645 350.152 587.351 348.992 584.835C348.89 584.613 348.798 584.376 348.705 584.136C348.32 583.145 347.914 582.103 346.711 581.888L340.275 617.222ZM316.477 637.844C313.621 633.351 308.577 629.77 302.841 627.522C303.689 629.338 305.325 630.95 307.407 632.018C300.296 635.442 294.029 639.887 288.987 645.081C287.639 646.472 285.044 647.994 283.472 646.64C277.29 641.318 269.101 637.427 260.311 635.639L286.542 615.523C287.727 614.614 288.988 613.672 290.619 613.354C291.883 613.108 293.226 613.269 294.534 613.503L295.185 613.625C308.653 616.228 321.569 620.943 332.922 627.401C335.734 629 337.626 631.366 339.364 633.73L347.258 644.58C347.781 645.299 348.303 646.211 347.731 646.865C347.41 647.234 346.829 647.395 346.282 647.534L345.642 647.696C336.555 649.991 329.223 651.843 319.532 652.512C317.383 650.662 317.49 647.854 317.601 644.955C317.696 642.47 317.794 639.918 316.477 637.844ZM267.239 639.433C271.595 641.212 275.72 643.364 279.511 645.834C279.917 646.098 280.345 646.397 280.455 646.796C280.584 647.26 280.242 647.699 279.916 648.082L249.492 683.732C248.224 685.218 245.452 685.515 243.213 684.91C241.254 684.381 239.605 683.317 238.046 682.211L237.383 681.735C246.367 675.37 250.306 666.23 254.281 657.01C256.774 651.226 259.281 645.409 263.055 640.226C263.422 639.723 263.849 639.193 264.549 638.993C265.415 638.748 266.392 639.087 267.239 639.433ZM357.077 539.067L358.204 539.127C360.399 539.245 361.504 541.322 361.846 543.028C363.259 550.093 360.319 557.895 352.774 561.576L352.506 561.711C347.634 564.233 345.379 569.44 347.251 573.948C343.809 575.164 339.08 573.587 337.648 570.745C337.362 570.178 337.308 569.383 338.005 569.159C341.164 568.142 343.623 565.972 344.545 563.387C345.467 560.803 344.833 557.853 342.86 555.545C342.458 555.074 341.995 554.612 341.532 554.151C340.215 552.838 338.894 551.521 338.919 549.945C340.218 549.801 340.954 551.131 341.181 552.157L341.211 552.282C341.464 553.288 342.14 554.513 343.397 554.42C343.672 552.822 343.253 551.169 342.836 549.528C342.311 547.457 341.791 545.404 342.679 543.511C343.695 541.346 346.409 539.933 349.281 539.369C351.794 538.876 354.446 538.937 357.077 539.067ZM216.607 688.77L216.781 688.484C218.142 687.962 220.058 689.175 219.711 690.339C219.488 691.086 221.142 691.475 221.782 690.908C222.422 690.34 222.275 689.457 222.091 688.689C222.816 688.343 223.766 688.937 224.151 689.56C224.252 689.724 224.341 689.898 224.43 690.07C224.677 690.553 224.925 691.036 225.454 691.335C226.173 691.742 227.5 691.216 227.038 690.625C226.349 689.742 227.483 688.707 228.665 688.338C228.95 688.249 229.248 688.172 229.548 688.095C230.495 687.852 231.45 687.606 231.976 686.976L232.058 686.889C232.772 686.219 234.217 686.944 235.191 687.644L235.65 687.987C237.796 689.539 240.784 690.35 243.614 690.136C244.168 690.094 244.134 690.803 243.847 691.169L237.125 699.735C236.799 700.149 235.992 700.047 235.379 699.892C228.968 698.262 222.781 696.013 217.009 693.212C215.191 692.33 215.725 690.284 216.607 688.77ZM301.605 686.565C301.653 687.479 301.247 688.587 300.103 688.73C297.346 689.075 294.7 689.842 292.358 690.977C292.281 690.062 291.452 689.187 290.345 688.849C289.946 689.738 290.648 690.869 291.81 691.21L289.963 693.699L287.926 691.69C287.365 691.93 287.56 692.523 287.797 693.056L287.948 693.386C288.582 694.78 287.56 696.441 285.805 696.869C284.049 697.298 281.876 696.418 281.246 695.022C280.562 693.502 281.588 691.928 282.584 690.581L289.659 681.015C289.811 680.818 289.999 680.626 290.283 680.578C290.597 680.524 290.919 680.664 291.202 680.799L296.159 683.157C297.12 683.615 296.977 684.615 296.839 685.59C296.696 686.593 296.556 687.569 297.628 687.899C298.513 687.777 299.022 687.044 299.126 686.346C299.18 685.988 299.16 685.627 299.14 685.264C299.12 684.916 299.102 684.568 299.147 684.225C299.241 683.524 299.721 682.784 300.597 682.637C301.474 682.489 302.501 683.35 301.985 683.913C301.435 684.513 301.504 685.31 301.569 686.084C301.583 686.246 301.598 686.408 301.605 686.565ZM235.413 702.532C225.196 700.428 215.461 696.619 207.068 691.44C207.654 690.69 209.09 691.104 210.111 691.641L210.368 691.784C218.231 696.395 227.237 699.775 236.651 701.646C236.769 702.17 236.073 702.668 235.413 702.532ZM277.405 693.184C279.81 688.494 282.722 683.977 286.099 679.695C286.623 679.032 287.978 678.397 288.434 679.126C284.529 684.183 280.926 689.39 277.643 694.725C276.982 694.46 277.138 693.704 277.405 693.184ZM244.332 688.731C241.381 688.475 238.492 687.531 236.132 686.051C235.244 685.494 234.414 684.394 235.264 683.865C235.936 683.446 236.885 683.886 237.625 684.345L238.185 684.705C240.571 686.193 243.534 687.094 246.518 687.234C246.732 687.814 246.321 688.471 245.617 688.675C245.216 688.79 244.766 688.769 244.332 688.731ZM333.397 546.61C334.664 546.399 336.105 547.24 336.231 548.264L336.265 548.272C336.696 548.951 336.853 549.726 336.708 550.455C334.945 549.642 333.679 548.172 333.397 546.61ZM357.401 542.168C357.556 542.128 357.719 542.085 357.888 542.052C358.1 542.01 358.356 541.995 358.598 541.98C359.249 541.94 359.793 541.907 359.081 541.388C358.103 540.676 356.092 540.95 356.114 541.971C356.379 542.437 356.838 542.317 357.401 542.168ZM360.486 546.014C360.485 545.982 360.484 545.951 360.483 545.922C360.444 544.391 359.755 543.305 358.429 543.552C357.929 543.677 357.891 545.886 358.191 546.498C358.491 547.11 359.591 547.523 360.168 547.084C360.512 546.823 360.498 546.399 360.486 546.014ZM351.578 547.204C350.286 546.359 349.668 544.929 350.058 543.695C350.116 543.511 350.2 543.324 350.372 543.193C350.806 542.861 351.615 543.051 352.002 543.446C352.388 543.841 352.466 544.355 352.531 544.841C352.531 544.841 352.869 548.049 351.578 547.204ZM547.489 510.776C529.412 510.64 511.465 513.094 494.805 517.985C495.807 511.899 494.927 505.561 492.255 499.654C488.656 502.988 480.214 501.434 478.476 497.118C476.738 492.802 482.696 488.188 488.201 489.586C489.66 489.956 490.575 488.454 490.681 487.278C491.042 483.271 489.559 479.11 486.563 475.718C485.396 474.398 487.861 473.105 489.804 472.776L506.291 469.982C507.399 469.794 508.568 469.58 509.345 468.951C510.122 468.323 510.262 467.132 509.327 466.581C505.485 464.322 506.948 458.728 511.541 458.112C516.134 457.497 520.48 462.313 518.121 465.403C517.682 465.979 519.076 466.356 519.925 466.215L541.502 462.616C545.795 461.9 550.103 464.936 551.494 468.277C552.671 471.105 552.375 474.077 552.085 477.013C552.059 477.269 552.034 477.525 552.01 477.78L551.935 478.609C551.179 487.75 553.257 497.132 557.944 505.732C558.857 507.41 557.399 509.325 555.38 510.101C553.598 510.786 551.521 510.822 549.482 510.799L547.489 510.776Z" fill="#00160A"/>
<path fill-rule="evenodd" clip-rule="evenodd" d="M262.276 408.242C262.146 407.42 263.318 406.712 264.384 406.805C265.45 406.898 266.71 407.833 266.225 408.585C265.457 409.775 262.532 409.837 262.276 408.242Z" fill="#FFB61D"/>
<path fill-rule="evenodd" clip-rule="evenodd" d="M761.994 514.028C761.524 514.555 760.34 514.934 759.997 514.322C761.707 511.929 762.456 509.096 762.121 506.299C762.847 505.986 763.432 506.936 763.46 507.6C763.555 509.835 763.592 512.237 761.994 514.028Z" fill="#00160A"/>
<path d="M124.471 405.471C124.68 406.13 123.421 406.325 122.575 406.205C122.637 405.57 123.666 405.169 124.378 405.501L124.471 405.471Z" fill="black"/>
<path fill-rule="evenodd" clip-rule="evenodd" d="M541.962 497.917C541.317 498.687 539.53 498.027 539.33 497.092C539.131 496.156 539.914 495.315 540.713 494.642C543.578 492.232 547.248 490.417 551.294 489.409C551.854 490.638 549.998 491.535 548.535 492.064C545.43 493.186 542.703 494.9 540.647 497.025C541.208 497.169 541.697 497.501 541.962 497.917Z" fill="#00160A"/>
<path fill-rule="evenodd" clip-rule="evenodd" d="M553.987 497.071C552.331 498.158 550.622 499.197 548.864 500.184C549.327 500.802 550.521 500.557 551.252 500.174C551.982 499.79 552.966 499.347 553.69 499.792C552.933 501.656 549.704 502.524 547.498 501.456C546.539 500.992 545.34 501.637 544.25 501.45C542.692 501.181 542.356 499.5 542.795 498.331C543.71 495.891 546.447 493.983 549.671 493.539C550.899 493.37 552.512 493.572 552.936 494.511C549.081 495.026 545.665 496.976 543.908 499.666C545.681 500.283 547.526 499.234 548.927 498.274C550.329 497.315 552.283 496.333 553.987 497.071Z" fill="#00160A"/>
<path fill-rule="evenodd" clip-rule="evenodd" d="M347.761 548.435C349.131 549.082 349.713 549.386 350.161 550.629C350.609 551.871 350.046 552.827 348.74 553.46C348.139 553.751 347.175 553.793 346.811 553.291C351.319 551.626 348.964 550.301 347.761 548.435Z" fill="#00160A"/>
<path fill-rule="evenodd" clip-rule="evenodd" d="M339.594 544.744C339.622 543.233 341.656 542.036 343.52 542.433C344.258 542.59 344.969 542.995 345.209 543.571C343.338 543.961 341.437 543.277 339.594 544.744Z" fill="#00160A"/>
<path fill-rule="evenodd" clip-rule="evenodd" d="M347.849 555.566C335.719 552.894 346.043 557.296 347.849 555.566V555.566Z" fill="#00160A"/>
</svg>
