<svg width="1004" height="850" viewBox="0 0 1004 850" fill="none" xmlns="http://www.w3.org/2000/svg">
<path d="M942.69 536.081C962.332 608.51 905.523 688.654 813.253 721.458C720.982 754.263 601.914 737.882 532.873 684.242C525.253 678.322 518.089 671.953 510.925 665.584C492.43 649.142 473.941 632.706 447.658 624.034C417.649 614.131 384.249 616.416 350.513 618.725C329.091 620.191 307.532 621.665 286.62 620.035C236.208 616.105 189.978 592.56 167.962 559.604C132.285 506.199 163.382 438.544 221.041 395.131C278.699 351.718 357.617 327.404 434.748 305.496C464.252 297.116 483.195 275.783 494.569 254.314C498.972 246.003 502.569 237.469 506.163 228.943C511.852 215.444 517.534 201.961 526.4 189.399C563.939 136.205 659.034 109.97 736.489 127.91C813.944 145.851 867.89 203.22 869.455 262.525C869.724 272.739 868.624 282.951 867.524 293.162L867.523 293.164C866.469 302.94 865.416 312.715 865.563 322.495C865.88 343.4 871.675 363.97 877.921 384.301C885.366 408.542 893.507 432.715 904.917 456.082C908.887 464.211 913.254 472.25 917.622 480.288C927.545 498.553 937.464 516.81 942.69 536.081Z" fill="#FB6340"/>
<path d="M455.712 257.514C487.05 234.126 506.787 200.317 514.166 164.287C515.133 159.563 515.882 154.598 514.17 149.861C512.456 145.125 507.589 140.706 501.953 140.525C493.875 140.264 489.604 147.845 486.798 154.196C467.526 197.82 430.9 236.288 380.429 253.016C361.046 259.442 340.196 262.551 319.49 265.626L287.147 270.431C261.098 274.3 234.701 278.263 211.226 287.958C187.752 297.651 167.146 313.928 159.892 335.713C157.583 342.647 156.747 350.447 160.401 357.327C164.144 364.377 172.154 369.411 180.592 371.943C189.03 374.474 197.944 374.82 206.674 374.859C213.066 374.888 219.538 374.754 225.526 373.175C235.318 370.591 242.895 364.429 250.267 358.433C250.759 358.034 251.249 357.636 251.74 357.239C264.637 346.793 278.377 337.067 293.385 328.898C315.272 316.987 339.658 308.473 363.986 299.98C396.757 288.538 429.421 277.134 455.712 257.514Z" fill="#FB6340"/>
<path d="M394.044 727.833L394.066 727.83C395.572 727.591 397.078 727.354 398.584 727.132C422.419 723.626 447.377 724.13 471.677 728.604C480.943 730.31 490.597 732.823 497.489 738.668C506.016 745.902 515.472 752.328 525.595 757.768C529.524 759.879 533.679 761.882 538.156 762.479C542.633 763.076 547.531 761.987 549.927 758.891C552.838 755.129 551.258 749.763 548.51 745.561C544.007 738.673 536.85 733.301 529.819 728.134C506.747 711.182 482.824 694.398 455.276 684.015C427.728 673.634 395.667 670.344 369.943 680.796C361.061 684.405 352.894 689.824 348.831 697.502C344.766 705.179 345.631 715.374 352.75 721.985C358.397 727.23 366.948 729.469 374.979 729.664C381.451 729.821 387.754 728.825 394.044 727.833Z" fill="#FB6340"/>
<path d="M859.433 703.634L859.423 703.652C858.809 704.84 858.193 706.028 857.563 707.206C847.584 725.841 833.235 742.619 815.54 756.342C808.792 761.575 801.074 766.545 791.779 767.438C780.277 768.541 769.012 770.81 758.298 774.183C754.141 775.492 749.958 777.027 746.91 779.704C743.863 782.382 742.157 786.453 743.718 790.125C745.615 794.586 751.508 797.02 756.964 797.892C765.906 799.32 774.907 797.935 783.645 796.503C812.32 791.801 841.31 786.405 866.333 774.328C891.355 762.251 912.26 742.431 916.796 717.948C918.363 709.494 917.84 700.344 912.924 692.525C908.009 684.706 898 678.617 887.862 679.163C879.819 679.596 872.972 683.988 868.323 689.366C864.578 693.699 862.003 698.673 859.433 703.634Z" fill="#FB6340"/>
<path d="M632.507 108.216L632.528 108.204C633.892 107.358 635.258 106.512 636.633 105.684C658.392 92.5721 681.106 87.8883 710.506 78.3792C720.76 76.5219 732.042 78.0034 741.058 76.8858C754.682 75.1971 761.126 77.6423 776.185 83.8342C780.386 85.5616 780.273 85.0766 788.623 89.1955C796.973 93.3143 844.746 123.063 845.329 118.848C846.037 113.727 802.372 69.2977 797.17 65.9458C788.644 60.4525 778.354 57.6066 768.31 54.9283C735.351 46.1398 701.641 37.8657 668.053 37.781C634.466 37.6974 600.516 46.8828 580.932 68.0732C574.169 75.3897 569.18 84.3356 569.61 94.0459C570.038 103.756 576.863 114.177 587.839 118.346C596.547 121.654 606.397 120.642 614.534 117.677C621.09 115.287 626.805 111.747 632.507 108.216Z" fill="#FB6340"/>
<path d="M934.638 332.172C928.129 331.362 922.313 335.082 918.517 339.503C911.02 348.234 908.795 359.988 909.801 371.352C910.807 382.716 914.78 393.884 918.727 404.93L952.63 499.834C955.107 506.767 957.969 514.202 964.572 518.739C966.638 520.158 969.184 521.258 971.669 520.996C974.681 520.677 976.827 518.477 978.321 516.217C986.489 503.856 982.694 487.727 979.237 473.026L979.111 472.492C974.036 450.912 970.485 429.149 968.486 407.376C967.923 401.253 967.487 395.065 968.611 389.112C972.133 370.449 962.775 349.532 945.294 336.995C942.132 334.728 938.565 332.66 934.638 332.172Z" fill="#FB6340"/>
<path d="M743.132 505.668C750.392 505.873 758.004 509.421 760.621 515.216C761.122 512.596 763.367 510.318 766.316 509.439L763.226 514.327L768.83 513.283L762.364 518.498C769.587 525.018 771.862 534.416 771.487 543.148C771.257 548.494 770.199 554.018 772.436 559.103C774.636 564.106 781.679 568.236 787.155 566.003L787.427 565.885C793.925 562.951 801.871 562.259 809.151 563.992C819.611 566.483 827.742 573.414 836.279 579.219C843.816 584.344 852.214 588.826 861.512 590.787C870.81 592.75 881.143 591.914 888.597 587.186C892.296 584.841 895.234 581.608 899.421 579.914C903.608 578.222 908.858 579.398 911.673 582.653C912.919 584.094 913.305 590.295 911.613 597.975C912.204 597.687 912.844 597.447 913.535 597.264C933.953 591.868 953.673 583.729 968.572 570.976C973.308 566.923 977.505 562.449 981.656 557.956L984.072 555.331L985.531 553.731C994.59 543.726 1003.21 532.873 1004.14 520.279L1004.18 519.603L1004.26 518.121C1004.42 515.314 1004.83 512.361 1007.51 510.953C1011.22 509.002 1016.04 511.607 1019.5 514.077L1044.43 531.885C1045.07 532.343 1045.73 532.817 1046.12 533.44C1047.86 536.198 1043.23 538.715 1039.6 538.351C1032.99 537.691 1026.34 533.063 1020.38 535.308C1016.19 536.886 1014.75 541.066 1013.7 544.942L1013.43 545.931C1007.16 569.715 990.479 591.127 967.247 605.202C961.258 608.83 954.872 611.977 948.496 615.119L935.614 621.465L938.209 621.335C960.172 620.188 983.133 617.537 999.537 605.751C1010.46 597.906 1017.22 586.857 1023.4 575.824L1025.64 571.801L1026.56 570.124C1030.3 563.202 1033.63 555.931 1032.87 548.284C1032.57 545.347 1036.29 543.158 1039.78 543.259C1043.26 543.358 1046.44 545.036 1049.42 546.657L1072.01 558.946C1073.79 559.914 1075.68 560.997 1076.44 562.654C1077.2 564.313 1076.05 566.6 1073.96 566.517L1053.6 565.702C1051.69 565.627 1049.59 565.598 1048.15 566.608C1047.04 567.382 1046.57 568.602 1046.18 569.789L1035.54 603.05C1032.54 612.415 1023.54 619.328 1014.33 625.004C992.251 638.616 966.56 648.14 939.466 652.756C936.524 653.257 933.559 653.702 930.553 653.903C919.261 654.66 907.949 651.97 896.929 649.161C900.292 653.99 900.25 658.65 890.511 660.993C881.883 663.067 850.433 636.829 843.264 636.599C804.139 635.341 792.547 619.451 777.045 610.146C777.045 610.146 754.352 617.548 737.895 617.961C699.319 618.93 668.267 604.018 659.019 604.554C649.772 605.09 645.538 611.1 641.849 608.732L641.15 606.612C641.38 605.945 644.492 601.723 657.247 601.447C675.058 601.062 705.715 607.076 726.94 605.034C749.223 602.891 766.484 596.18 766.219 595.699C765.677 594.719 769.66 589.272 764.612 587.962C759.564 586.653 689.69 578.003 670.144 562.895L669.906 562.706C666.467 559.866 661.966 551.983 667.932 554.794L668.596 552.526C675.027 555.574 694.798 561.503 715.173 567.167C736.716 573.157 764.662 574.103 765.046 573.733C773.593 565.497 762.785 563.007 760.612 562.071C755.527 559.88 749.555 559.339 744.879 556.555C733.661 549.877 734.741 533.611 722.646 528.184C720.815 527.363 718.752 526.844 717.228 525.65C714.618 523.603 714.402 520.058 715.883 517.435C717.363 514.813 720.176 512.942 723.044 511.347C728.997 508.035 735.872 505.462 743.132 505.668Z" fill="white"/>
<path d="M764.098 553.258C765.456 552.982 766.248 551.827 765.866 550.677C765.485 549.528 764.075 548.819 762.717 549.095C761.359 549.37 760.567 550.526 760.948 551.675C761.33 552.825 762.74 553.533 764.098 553.258Z" fill="#FFB61D"/>
<path d="M748.649 556.652C749.649 556.449 750.152 555.358 749.774 554.216C749.395 553.074 748.278 552.312 747.279 552.515C746.279 552.718 745.776 553.809 746.154 554.951C746.532 556.093 747.65 556.855 748.649 556.652Z" fill="#FFB61D"/>
<path d="M659.73 586.517C635.167 586.151 610.714 589.877 588.213 597.416C587.528 589.647 587.314 581.863 587.573 574.105C580.643 577.733 569.683 573.646 567.932 566.779C566.18 559.912 574.332 552.995 582.543 554.38C583.421 549.002 581.69 543.273 577.821 538.758C575.966 536.592 579.756 534.355 582.766 533.744L599.394 530.367C601.719 529.895 604.656 528.324 603.447 526.535C600.579 522.293 602.538 516.384 607.534 514.204C612.44 512.065 619.375 513.913 622.2 518.057L622.353 518.29C625.19 522.78 632.792 522.846 638.508 521.587L641.35 520.948C646.291 519.851 651.516 518.937 655.819 521.205C660.966 523.918 661.935 529.703 662.209 534.748L662.226 535.083C662.568 542.092 662.778 549.103 662.857 556.11C676.171 583.108 666.54 586.619 659.73 586.517Z" fill="white"/>
<path d="M457.729 604.935C450.855 592.029 446.311 578.313 444.305 564.419L444.213 563.746C443.811 560.582 443.809 557.157 446.255 554.873C448.085 553.162 450.891 552.492 453.597 551.942L474.332 547.787C475.276 547.598 476.319 547.417 477.203 547.799C478.087 548.182 478.468 549.394 477.63 549.793C475.628 550.742 475.084 553.114 475.974 554.954C476.866 556.794 478.864 558.138 480.984 559.035C486.039 561.173 492.719 560.941 496.407 557.555C500.095 554.169 499.045 547.586 493.859 545.698C503.482 543.567 513.173 541.628 522.922 539.883L526.58 539.236C527.764 539.031 529.087 538.847 530.141 539.392C530.934 539.801 531.394 540.536 531.776 541.244C534.729 546.699 535.533 552.895 534.031 558.614C533.792 559.524 532.912 560.652 531.908 560.2C527.642 558.277 522.041 559.793 519.404 563.037C516.767 566.281 516.819 570.768 518.712 574.496C520.534 578.084 525.038 581.397 529.391 580.314C532.819 579.461 535.832 576.103 539.099 577.503L540.226 595.145C540.426 598.28 540.184 602.094 536.875 603.446C517.773 611.251 496.372 615.297 474.797 615.183L473.748 615.172C471.119 615.126 468.447 614.919 466.077 613.922C461.952 612.186 459.609 608.463 457.729 604.935Z" fill="white"/>
<path d="M580.093 440.686L629.569 431.535L630.377 431.389C631.869 431.129 633.393 430.937 634.898 431.192C638.299 431.771 640.65 434.421 642.459 436.938C652.122 450.372 656.73 466.211 655.436 481.55L655.375 482.18C655.174 484.076 654.731 486.016 653.219 487.366C651.973 488.478 650.186 489.02 648.42 489.466L648.042 489.559C640.824 491.339 633.431 492.671 625.94 493.541C629.081 490.791 628.441 485.777 624.979 483.091C621.515 480.404 615.984 480.112 612.038 482.015C609.632 483.173 607.699 485.181 607.469 487.53C607.238 489.88 609.07 492.465 611.835 493.028C613.748 493.417 614.22 495.77 613.088 497.067C611.958 498.363 609.948 498.846 608.077 499.254L583.506 504.604C581.659 505.006 579.711 505.409 577.832 504.986C575.168 504.388 573.345 502.304 571.978 500.276C568.68 495.384 566.645 489.926 566.057 484.404C568.845 488.293 575.759 489.596 579.992 487.028C584.224 484.459 584.814 478.605 581.178 475.23C577.543 471.854 570.511 471.726 567.006 474.97L566.381 473.659C564.201 469.063 562.137 464.376 561.666 459.508C561.151 454.178 562.837 448.496 567.553 445.069C570.992 442.568 575.58 441.538 580.093 440.686Z" fill="white"/>
<path d="M443.202 521.46C436.301 522.884 429.311 524.046 422.261 524.939L421.576 525.023C419.041 525.314 416.318 525.421 414.188 524.198C411.314 522.545 410.798 519.279 410.537 516.384L410.512 516.096C409.417 503.379 406.443 490.716 401.685 478.49L400.855 476.384C399.4 472.589 398.249 468.185 401.355 465.451C402.301 464.619 403.536 464.071 404.786 463.577L405.202 463.414C427.962 454.558 453.164 449.874 478.618 449.768C481.97 449.755 484.041 453.183 483.857 455.983C483.672 458.782 482.153 461.412 482.192 464.222C482.23 467.033 484.951 470.296 488.207 469.727C494.986 468.542 502.597 473.164 503.564 478.986C504.532 484.808 498.75 490.546 491.788 490.764C490.154 490.815 490.249 492.861 490.859 494.154L497.622 508.493C498.725 510.833 494.949 512.409 492.041 512.798L475.074 515.074C472.408 515.431 469.036 516.522 469.36 518.792C470.166 524.444 464.977 530.039 458.296 530.721C451.614 531.402 444.536 527.058 443.202 521.46Z" fill="white"/>
<path fill-rule="evenodd" clip-rule="evenodd" d="M419.665 617.848C421.65 617.854 424.536 617.994 424.882 619.519C431.854 650.239 417.219 647.306 408.653 658.267C406.39 661.163 406.37 666.927 405.115 667.315C410.542 668.222 420.016 674.369 432.13 672.271C465.885 666.421 471.206 643.201 471.206 643.201C469.795 636.39 461.872 625.222 467.932 627.567C472.116 629.185 467.715 618.045 472.755 618.216C474.27 618.268 474.295 626.266 475.492 626.5C476.152 626.631 476.333 624.411 477.289 622.481C478.087 620.871 479.677 619.476 480.172 619.691C480.507 619.837 480.89 621.828 480.31 623.696C479.495 626.322 477.591 629.077 478.083 629.371C478.622 629.696 483.757 622.781 484.339 623.175C488.205 625.792 482.515 666.129 454.746 679.184L452.544 680.213C436.33 687.74 429.149 689.78 411.249 688.047C402.762 687.225 405.349 710.525 403.523 718.828C402.37 724.069 393.046 738.242 385.905 735.986C376.485 733.009 367.218 725.783 359.064 722.834L358.542 722.653C353.035 720.792 341.263 718.664 323.229 716.269L323.863 715.834C326.804 713.845 334.433 708.892 339.493 702.668C346.681 693.824 346.908 677.928 350.865 668.574C354.774 659.338 363.907 658.721 358.166 658.397C358.166 658.397 342.796 655.097 336.463 655.799C315.313 658.142 291.261 671.851 284.451 678.914C275.107 688.606 290.332 696.966 272.353 695.011C266.361 694.361 273.363 668.678 290.332 655.386C313.917 636.911 339.054 628.029 372.157 643.044C385.628 649.155 389.13 656.325 393.867 661.37L392.823 660.111C424.044 651.846 367.441 634.484 404.993 619.601C408.937 618.038 413.567 617.886 418.028 617.856L419.665 617.848Z" fill="white"/>
<path d="M407.906 643.695C409.264 643.42 410.056 642.264 409.675 641.115C409.294 639.965 407.884 639.257 406.526 639.532C405.167 639.808 404.376 640.963 404.757 642.113C405.138 643.262 406.548 643.971 407.906 643.695Z" fill="#FFB61D"/>
<path d="M423.078 644.656C424.436 644.381 425.228 643.225 424.847 642.076C424.466 640.926 423.055 640.218 421.697 640.493C420.339 640.769 419.547 641.924 419.929 643.074C420.31 644.223 421.72 644.932 423.078 644.656Z" fill="#FFB61D"/>
<path fill-rule="evenodd" clip-rule="evenodd" d="M298.857 748.004C330.941 758.317 289.359 743.516 327.304 763.514C334.967 767.552 355.061 731.509 364.033 748.626C367.305 754.87 367.073 762.108 370.699 768.222C374.083 773.925 403.61 764.087 405.116 760.985C410.574 749.742 375.73 730.791 368.827 728.032C330.304 712.641 320.467 716.251 298.655 744.71L298.857 748.004Z" fill="white"/>
<path fill-rule="evenodd" clip-rule="evenodd" d="M890.132 212.058C895.571 211.523 900.629 211.024 898.907 205.825C898.497 204.588 877.185 197.321 873.323 202.571C868.356 209.324 865.04 216.583 861.827 223.615C855.084 238.377 848.8 252.135 828.665 258.085L828.423 258.159C820.667 260.611 837.625 263.611 852.144 253.315C862.125 246.235 872.53 228.137 877.473 219.542C878.766 217.292 879.686 215.694 880.126 215.114L880.242 214.972C882.19 212.841 886.258 212.44 890.132 212.058ZM919.78 221.053L941.211 229.283C945.385 230.886 943.027 236.648 938.756 237.769C936.277 238.42 933.639 238.253 930.986 238.085C929.068 237.964 927.141 237.843 925.264 238.029C914.63 239.089 909.504 248.898 905.412 257.114C901.673 264.622 897.257 271.875 892.213 278.794L891.529 279.724L890.811 280.676C886.694 286.057 881.771 291.175 874.847 293.769C864.65 297.588 852.439 295.094 841.845 291.377C839.261 290.469 836.693 289.488 834.122 288.507C826.162 285.466 818.189 282.421 809.652 281.541C803.982 285.997 798.956 291.012 794.648 296.442L794.846 296.22C807.156 302.429 817.375 311.637 823.866 322.367L821.938 322.468L820.667 322.539C808.781 323.231 796.308 324.746 788.421 331.842C785.641 334.344 783.466 337.49 781.314 340.601C779.816 342.767 778.331 344.915 776.661 346.817C777.299 346.982 777.954 347.154 778.625 347.336C790.46 348.859 802.492 348.93 814.217 347.546C816.01 347.335 817.811 347.09 819.616 346.844C827.98 345.708 836.45 344.558 844.602 346.62L847.468 347.364C852.061 348.541 857.068 349.531 859.61 346.573C860.341 345.721 860.663 344.694 860.987 343.661C861.184 343.032 861.381 342.402 861.672 341.809C862.439 340.241 864.522 338.824 866.381 339.606L868.328 343.525C867.908 340.835 870.168 338.12 873.29 337.563C876.413 337.007 879.977 338.685 881.113 341.247C883.177 345.898 877.763 350.033 872.87 352.64L847.44 365.957C838.355 370.714 826.811 371.551 816.009 369.97C805.952 368.499 796.381 365.094 787.076 361.361L785.012 360.527C777.969 357.661 768.804 354.854 763.347 359.25C774.794 357.544 785.725 364.096 795.013 370.507L795.907 371.127C797.414 372.176 798.976 373.285 799.758 374.782C801.949 378.974 797.082 383.041 792.62 385.42C797.388 386.461 797.144 392.341 794.897 395.903C791.627 401.086 786.518 405.376 780.419 408.226L780.401 410.115C780.402 410.242 780.406 410.308 780.41 410.309C783.462 409.493 786.556 412.648 786.088 415.321C785.62 417.995 782.917 419.918 780.152 421.247C771.043 425.628 759.248 426.028 749.377 422.289L748.035 423.304C742.194 427.689 736.049 431.913 728.767 434.401C720.926 437.08 711.449 437.48 703.914 433.784L704.543 434.427C705.899 435.828 707.189 437.302 707.784 439.009C708.468 440.979 707.969 443.357 705.971 444.439C702.673 446.225 698.397 443.572 695.565 441.116C695.253 443.513 697.136 445.756 698.967 447.937C701.057 450.425 703.077 452.832 701.695 455.294C700.255 457.858 696.005 458.14 692.637 457.484C680.02 455.029 670.905 444.251 669.893 433.478C668.882 422.705 674.755 412.317 683.263 404.517C674.756 401.568 667.433 396.09 662.946 389.32C663.708 389.819 665.557 387.341 668.183 383.819C672.987 377.378 680.393 367.449 688.514 365.879C690.069 365.577 692.911 366.085 695.693 366.583L695.694 366.583C697.71 366.944 699.694 367.299 701.138 367.337C701.21 367.194 701.308 367.056 701.431 366.928L699.591 366.307C695.895 365.078 692.1 363.987 688.196 363.959C683.643 363.927 678.847 365.688 677.103 369.161C672.838 377.653 666.41 385.318 658.359 391.514L666.88 399.155C664.871 400.565 661.924 400.98 659.379 400.233L659.064 400.134L659.288 400.276C663.705 403.192 662.927 409.998 657.87 411.78C653.134 414.78 645.829 410.177 644.73 405.155C643.958 401.635 644.961 398.173 645.966 394.705C646.393 393.224 646.822 391.743 647.114 390.255C648.099 385.23 647.527 379.985 646.959 374.774C646.179 367.631 645.407 360.552 648.661 354.184C650.94 349.724 655.006 346.118 659.354 342.956C676.611 330.404 699.683 323.554 722.966 324.07C722.945 312.121 726.835 300.31 734.103 290.267L734.539 289.676C737.354 285.939 741.2 282.331 746.399 281.794L746.812 281.758C752.027 281.388 755.291 277.234 757.924 273.468L758.736 272.308L759.376 271.412C764.656 264.107 771.246 257.017 780.909 254.433C789.506 252.135 799.029 253.841 807.851 256.092C817.834 258.639 827.597 261.869 837.009 265.74L838.666 266.43L839.152 266.634L839.693 266.863L840.004 266.994C848.918 270.765 858.675 274.89 867.869 272.516C877.294 270.082 882.064 261.914 886.459 254.389L886.459 254.386L886.462 254.384C886.816 253.777 887.168 253.173 887.521 252.578C892.966 243.366 899.816 234.837 906.821 226.423L909.83 222.822C910.74 221.735 911.731 220.593 913.215 220.11C915.305 219.431 917.685 220.249 919.78 221.053ZM789.152 385C787.096 385.067 784.485 385.751 781.321 387.051C783.542 386.608 785.397 386.195 786.889 385.812C787.597 385.587 788.296 385.342 788.973 385.073L789.152 385ZM704.941 363.292C705.447 362.529 705.981 361.726 706.628 360.999C707.946 359.993 709.573 359.289 711.373 359.073C717.469 358.345 723.737 362.783 724.622 367.953C723.668 375.171 717.156 380.502 710.715 385.775C706.747 389.023 702.807 392.25 700.211 395.882C700.691 394.451 701.338 393.256 702.127 392.442C704.591 389.902 707.28 387.59 709.813 385.41C711.944 383.577 713.966 381.839 715.652 380.139C718.305 377.464 719.902 375.111 721.139 373.287L721.14 373.286C722.085 371.892 722.822 370.806 723.658 370.125C723.727 370.069 725.339 362.882 714.904 360.518C707.023 358.733 705.31 363.363 704.389 365.852C704.09 366.66 703.875 367.242 703.559 367.306C703.477 367.323 703.36 367.335 703.209 367.343C703.209 366.613 703.333 365.882 703.569 365.174C704.044 364.64 704.482 363.984 704.941 363.292ZM706.322 361.242C705.022 362.32 704.056 363.699 703.569 365.174L703.391 365.364C703.032 365.733 702.648 366.029 702.213 366.217C701.336 366.596 698.616 365.595 696.311 364.747C694.933 364.241 693.704 363.789 693.106 363.719C689.171 363.261 688.75 363.328 686.259 363.729C685.837 363.797 685.358 363.874 684.792 363.96L683.754 364.112C683.528 364.147 683.279 364.189 683.013 364.233C680.952 364.574 677.984 365.065 678.125 363.604C680.64 337.45 723.658 323.131 725.256 351.793C725.388 354.163 724.432 356.455 723.477 358.747C722.999 359.893 722.521 361.038 722.18 362.195C718.135 359.299 714.376 358.104 710.903 358.607C708.967 358.888 707.656 359.845 706.628 360.999L706.322 361.242ZM780.355 323.199L780.361 323.184C779.212 327.652 778.149 332.965 777.173 339.122C777.654 333.729 778.729 328.396 780.355 323.199ZM801.52 322.805L801.18 322.885C798.482 323.538 796.147 324.381 794.176 325.418C791.99 326.567 789.795 328.192 787.594 330.292C791.606 327.098 796.36 324.54 801.52 322.805Z" fill="white"/>
<path fill-rule="evenodd" clip-rule="evenodd" d="M689.227 451.671C687.844 454.169 684.64 454.116 681.156 452.387C673.865 448.767 668.541 439.982 667.569 429.486C666.597 418.991 674.214 413.014 682.383 405.415C677.387 404.752 665.993 396.369 661.988 386.765C665.747 389.259 667.687 394.725 671.448 397.219C675.015 399.585 681.404 402.044 684.972 404.41C685.427 404.712 685.919 405.276 685.521 405.606C677.48 412.25 671.787 415.074 670.287 428.926C668.789 442.777 684.076 452.153 685.485 451.494C687.221 450.681 685.859 448.679 684.329 447.515C680.013 444.228 681.2 438.416 682.307 433.71C684.047 434.714 682.06 439.032 683.973 442.7C685.842 446.282 690.459 449.447 689.227 451.671Z" fill="#E7EAEE"/>
<path d="M718.109 402.617C719.468 402.342 720.259 401.186 719.878 400.037C719.497 398.887 718.087 398.179 716.729 398.454C715.371 398.73 714.579 399.885 714.96 401.035C715.341 402.184 716.751 402.893 718.109 402.617Z" fill="#FFB61D"/>
<path d="M706.777 396.5C708.136 396.224 708.927 395.069 708.546 393.92C708.165 392.77 706.755 392.062 705.397 392.337C704.038 392.613 703.247 393.768 703.628 394.917C704.009 396.067 705.419 396.775 706.777 396.5Z" fill="#FFB61D"/>
<path d="M334.139 502.345C336.311 504.306 335.139 507.978 332.135 508.626C325.478 496.861 318.476 484.712 306.671 476.16C284.069 459.787 248.773 460.065 228.079 441.998C220.573 449.553 205.753 451.022 195.758 445.203C189.542 441.584 181.163 442.685 174.444 445.137C167.724 447.589 161.577 451.243 154.357 452.503C151.224 453.05 147.606 453.03 145.09 451.258C142.573 449.485 142.368 445.509 145.32 444.512C158.18 440.17 171.04 435.828 183.9 431.486C184.91 431.145 185.976 430.766 186.578 430.011C187.259 429.156 187.187 428.025 187.09 426.979C186.29 418.322 184.42 408.188 175.299 403.819C167.74 400.199 158.392 402.272 150.745 405.261C143.099 408.252 135.492 412.161 126.926 411.999C118.359 411.839 109.029 405.172 111.352 398.341C112.908 393.765 107.896 389.102 102.531 387.222C97.1666 385.344 91.1839 385.097 85.9061 383.04C80.628 380.983 76.0202 375.884 78.2341 371.522C79.2079 369.604 81.288 368.275 83.3998 367.186C90.3898 363.582 98.8897 361.691 107.171 362.87C115.452 364.05 123.36 368.575 126.795 375.061C129.594 380.346 129.847 387.103 135.522 390.431C142.94 394.783 152.267 389.605 160.811 387.802C169.549 385.957 179.515 388.131 186.357 393.374C193.2 398.619 196.699 406.762 195.326 414.251C202.595 403.423 214.069 393.919 228.728 391.434C242.267 389.138 256.743 393.165 268.504 399.789C280.265 406.413 289.788 415.455 299.151 424.391C302.638 427.721 308.983 428.622 313.343 426.406C317.702 424.191 319.559 419.122 317.497 415.069C321.911 414.993 323.923 419.665 325.246 423.241C328.025 430.755 333.742 437.57 341.282 442.36C342.18 439.069 342.571 435.665 342.439 432.258C347.822 435.393 351.243 440.818 351.236 446.212C351.229 451.606 347.797 456.804 342.406 459.583C339.537 461.062 335.822 462.246 335.076 465.025C343.88 472.575 351.99 480.692 359.305 489.273C363.226 493.875 367.004 500.053 363.483 504.643C356.888 502.337 351.986 497.551 347.364 492.94C340.154 485.749 332.943 478.557 325.731 471.366" fill="white"/>
<path fill-rule="evenodd" clip-rule="evenodd" d="M323.791 405.108C325.874 415.25 333.645 424.641 344.322 429.917C346.8 427.783 347.739 424.464 346.694 421.523C351.277 425.258 351.483 431.544 348.877 436.243C346.271 440.942 341.452 444.421 336.763 447.76C334.078 449.672 331.281 451.635 327.853 452.425C322.625 453.631 317.011 451.902 311.847 450.2L296.694 445.207C306.654 454.222 323.521 457.221 336.387 452.264C349.56 461.587 359.795 473.849 365.671 487.344L361.812 483.879C361.773 483.836 361.727 483.793 361.673 483.753L361.812 483.879C362.431 484.568 361.283 485.704 360.19 485.504C359.029 485.292 358.297 484.326 357.688 483.459C350.179 472.772 339.953 463.38 327.932 456.132L349.7 477.883C354.352 482.531 359.283 487.357 365.92 489.681C369.464 485.054 365.662 478.825 361.715 474.186C354.355 465.535 346.194 457.352 337.336 449.738C337.945 447.465 340.524 446.249 343.018 445.075L343.019 445.074C343.595 444.803 344.168 444.533 344.71 444.253C350.135 441.451 353.589 436.211 353.596 430.773C353.603 425.334 350.161 419.865 344.744 416.704C344.877 420.139 344.484 423.571 343.579 426.889C335.992 422.06 330.241 415.189 327.444 407.614C326.113 404.008 324.088 399.298 319.646 399.375C321.721 403.461 319.853 408.571 315.466 410.805C311.079 413.037 304.695 412.129 301.185 408.773C291.765 399.764 282.182 390.649 270.347 383.969C258.512 377.29 243.947 373.232 230.323 375.546C215.573 378.052 204.027 387.634 196.712 398.55C198.094 391 194.573 382.789 187.689 377.502C180.804 372.216 170.775 370.024 161.982 371.885C159.752 372.356 157.469 373.057 155.179 373.759C148.645 375.765 142.064 377.784 136.535 374.535C132.631 372.24 131.277 368.33 129.911 364.382C129.279 362.557 128.645 360.724 127.755 359.04C124.298 352.501 116.34 347.938 108.007 346.749C99.6743 345.56 91.1217 347.466 84.0881 351.1C81.9631 352.198 79.8697 353.537 78.8902 355.472C76.6624 359.869 81.2991 365.01 86.6098 367.083C89.4048 368.174 92.3966 368.761 95.3905 369.347C98.0852 369.875 100.782 370.403 103.339 371.3C108.737 373.195 113.781 377.896 112.215 382.51C109.877 389.397 119.266 396.118 127.886 396.28C135.011 396.415 141.477 393.744 147.851 391.112C149.187 390.56 150.52 390.009 151.854 389.487C159.548 386.473 168.954 384.382 176.561 388.032C185.739 392.437 187.62 402.654 188.426 411.383C188.523 412.436 188.596 413.577 187.911 414.439C187.305 415.201 186.232 415.583 185.216 415.926L146.395 429.058C143.425 430.063 143.631 434.072 146.163 435.86C148.695 437.646 152.336 437.667 155.488 437.115C160.308 436.272 164.653 434.367 169.006 432.458C171.215 431.49 173.425 430.521 175.7 429.689C182.462 427.216 190.892 426.106 197.147 429.755C207.205 435.622 222.118 434.141 229.67 426.525C240.628 436.108 255.653 440.572 270.745 445.055C284.334 449.092 297.977 453.145 308.753 460.965C320.631 469.586 327.677 481.836 334.376 493.697C337.398 493.043 338.578 489.342 336.394 487.365L334.599 491.134C327.082 471.821 309.059 455.289 286.765 447.254C281.245 445.264 275.403 443.724 269.573 442.186C256.764 438.809 244.015 435.447 234.869 427.371C234.044 426.643 233.243 425.859 232.837 424.922C232.326 423.736 232.508 422.456 232.683 421.22L232.708 421.044C233.405 416.101 233.3 410.855 230.643 406.293C227.987 401.732 222.249 398.075 216.336 398.508C227.666 401.767 233.914 414.296 228.539 422.976C223.163 431.655 207.604 434.159 198.156 427.864C190.584 422.82 179.776 425.824 171.454 429.382C163.132 432.941 153.256 436.903 144.691 433.198C158.266 426.776 172.704 421.587 187.688 417.744C191.258 416.827 191.41 412.7 190.888 409.546C190.085 404.697 189.256 399.773 186.882 395.254C184.507 390.734 180.333 386.593 174.791 384.97C168.136 383.021 161.025 384.978 154.548 386.928L137.336 392.106C133.627 393.221 129.811 394.353 125.82 394.243C121.83 394.133 117.569 392.498 115.798 389.441C114.68 387.509 114.704 385.38 114.727 383.232C114.744 381.686 114.761 380.131 114.353 378.634C113.189 374.373 108.701 371.164 103.935 369.339C101.014 368.221 97.9336 367.5 94.8506 366.779C92.9014 366.323 90.9511 365.866 89.0394 365.309C85.4408 364.26 81.423 362.2 81.28 359.037C81.1887 357.015 82.7902 355.275 84.5382 353.941C90.4389 349.436 99.0501 347.538 107.06 348.973C115.07 350.41 122.285 355.148 125.931 361.364C126.831 362.898 127.554 364.544 128.275 366.186C129.944 369.985 131.605 373.766 135.426 376.099C139.99 378.885 146.177 378.563 151.436 377.264C153.24 376.819 155.01 376.274 156.778 375.729C160.168 374.686 163.552 373.643 167.154 373.307C179.267 372.179 191.903 380.629 193.423 390.875C193.507 391.442 193.565 392.02 193.623 392.598C193.83 394.662 194.038 396.746 195.446 398.437C197.249 400.603 202.117 400.962 202.791 398.451C205.81 387.204 218.64 379.237 232.324 377.86C246.009 376.483 260.105 380.838 271.643 387.648C283.179 394.457 292.513 403.576 301.335 412.825C304.442 416.083 310.538 416.252 314.7 414.249C318.863 412.246 321.502 408.65 323.791 405.108ZM305.798 427.299C305.922 427.258 306.383 427.692 307.08 428.347C308.794 429.959 311.927 432.904 314.932 433.384C315.128 434.359 313.195 434.208 312.221 433.631C309.452 431.988 306.453 430.061 305.798 427.299ZM317.491 442.328C319.434 443.76 311.472 446.287 308.239 445.351C308.695 445.174 309.345 445.087 310.064 444.99C310.918 444.875 311.869 444.748 312.712 444.442C313.946 443.994 315.085 443.402 315.945 442.956C316.78 442.522 317.351 442.226 317.491 442.328ZM313.408 436.374C310.285 437.518 305.026 434.631 303.872 431.145C305.671 433.531 309.708 434.892 311.939 435.644C313.074 436.027 313.741 436.252 313.408 436.374ZM329.99 448.561C325.62 449.45 321.57 443.602 323.417 442.798C323.831 442.519 324.038 443.074 324.346 443.895C324.668 444.757 325.099 445.911 325.996 446.697C326.991 447.57 328.615 447.958 329.564 448.185C330.28 448.356 330.611 448.435 329.99 448.561ZM332.041 439.061C333.149 439.314 334.254 439.832 334.803 440.685C335.35 441.54 335.117 442.758 334.106 443.165C333.632 442.815 333.726 442.511 333.825 442.191C333.971 441.721 334.128 441.216 332.508 440.473C331.827 440.159 331.135 440.103 330.65 440.064C330.277 440.034 330.026 440.014 329.995 439.894C329.802 439.131 331.142 438.855 332.041 439.061ZM321.165 432.579C320.991 432.751 320.872 432.869 321.033 432.944C321.53 433.175 322.044 433.229 322.434 432.909C322.73 432.664 322.794 432.278 322.766 431.921C322.605 429.933 319.6 428.456 317.523 429.347C317.866 429.747 318.29 429.811 318.805 429.889C319.399 429.979 320.114 430.088 320.964 430.752C322.11 431.647 321.523 432.227 321.165 432.579ZM326.326 450.582C323.543 450.47 319.292 445.833 320.532 445.163C321.307 444.747 321.315 444.787 321.401 445.205C321.478 445.587 321.621 446.286 322.475 447.243C323.535 448.428 324.763 449.316 325.546 449.882C326.081 450.269 326.408 450.505 326.326 450.582ZM876.978 213.753C871.645 215.452 868.542 220.116 867.155 224.78C866.485 227.035 866.118 229.352 865.751 231.668L865.75 231.67C865.359 234.145 864.966 236.619 864.206 239.016C860.573 250.457 849.179 258.622 838.005 265.674C836.078 266.89 832.135 267.304 832.18 265.245C851.798 257.698 865.033 240.155 864.975 221.771C864.969 219.606 861.288 218.524 859.062 219.55C857.049 220.478 856.01 222.33 855.119 224.141L854.841 224.71C847.513 239.79 834.506 253.922 815.816 258.464C814.494 258.785 812.348 258.482 812.599 257.341C826.481 254.094 837.749 245.542 845.515 235.457C853.283 225.371 857.91 213.767 861.994 202.17C862.626 200.376 865.493 200.149 867.742 200.326C874.644 200.867 881.5 202.096 888.119 203.978C891.674 204.989 890.718 209.806 887.57 211.353C885.761 212.242 883.664 212.542 881.557 212.843C879.998 213.066 878.435 213.29 876.978 213.753ZM868.307 204.911L867.782 204.885C866.189 204.826 864.477 204.961 863.548 205.979C863.188 206.373 862.996 206.856 862.834 207.341L860.756 213.782C862.962 213.767 865.183 214.084 867.288 214.711C869.007 215.223 871.016 214.848 872.25 213.784C873.483 212.72 873.877 211.021 873.222 209.59C872.978 209.056 873.984 208.693 874.559 209.005C874.988 209.239 875.222 209.631 875.457 210.022L875.458 210.023C875.536 210.155 875.615 210.286 875.702 210.412C876.043 210.909 876.743 211.376 877.342 211.139C877.813 210.489 877.911 209.649 877.6 208.911C877.574 208.089 879.229 208.49 879.706 209.222C880.184 209.954 880.964 210.975 881.805 210.583C883.049 210.03 882.948 208.365 881.955 207.468C880.962 206.57 879.458 206.256 878.045 206.018C874.823 205.477 871.57 205.107 868.307 204.911ZM859.356 216.516C861.996 217.855 865.303 218.181 868.145 217.383C865.729 215.841 862.366 215.462 859.655 216.406L859.356 216.516ZM769.878 421.512C760.757 425.903 748.945 426.304 739.06 422.558C732.808 427.307 726.275 432.009 718.422 434.693C710.57 437.379 701.08 437.78 693.535 434.076C695.108 435.675 696.723 437.338 697.409 439.311C698.095 441.286 697.595 443.668 695.594 444.754C692.292 446.544 688.009 443.884 685.173 441.423C684.861 443.824 686.747 446.073 688.58 448.259C690.673 450.751 692.697 453.164 691.312 455.631C689.87 458.201 685.614 458.482 682.241 457.826C669.607 455.366 660.48 444.566 659.466 433.77C658.453 422.974 664.335 412.565 672.855 404.749C664.335 401.792 657.002 396.304 652.509 389.52C654.469 390.802 656.142 392.415 657.815 394.027C659.488 395.639 661.162 397.253 663.123 398.536C664.983 399.753 667.13 400.639 669.278 401.526L669.28 401.526C671.428 402.413 673.575 403.3 675.435 404.517C675.91 404.828 676.423 405.408 676.008 405.747C667.621 412.58 661.622 421.973 661.913 431.979C662.204 441.984 669.828 452.315 681.287 455.431C683.306 455.979 685.599 456.284 687.409 455.448C689.22 454.614 689.997 452.233 688.401 451.035C683.901 447.655 681.7 442.248 682.855 437.409L693.619 443.53C695.365 442.736 695.12 440.495 694.091 439.003C693.766 438.531 693.384 438.077 693.002 437.623L693.001 437.623C692.179 436.646 691.36 435.674 691.114 434.528C690.754 432.849 692.794 430.868 694.524 431.795C701.433 435.499 710.436 435.117 717.745 432.507C725.055 429.897 731.037 425.353 736.88 420.886L743.777 415.614C743.848 417.714 742.506 419.762 740.378 420.797C749.771 423.97 760.717 423.342 769.175 419.144C770.632 418.422 772.08 417.536 772.746 416.225C773.412 414.915 772.986 413.09 771.433 412.415C771.244 412.332 771.042 412.267 770.839 412.202C770.441 412.075 770.046 411.948 769.758 411.691C769.322 411.301 769.518 410.458 770.136 410.551C773.193 409.733 776.291 412.895 775.822 415.575C775.354 418.254 772.647 420.18 769.878 421.512ZM702.927 397.611C700.986 397.487 699.333 398.935 699.038 400.536C698.742 402.137 699.523 403.789 700.607 405.176C700.23 403.439 700.062 402.107 700.45 400.835C700.617 400.288 701.479 399.628 702.237 399.047C703.216 398.297 704.021 397.68 702.927 397.611ZM700.004 393.649C702.419 392.572 705.634 392.824 707.884 394.266C710.133 395.707 711.3 398.263 710.743 400.529C710.348 400.287 710.098 399.755 709.784 399.087C708.856 397.115 707.373 393.963 700.004 393.649ZM702.931 409.751C702.397 410.787 706.02 412.505 709.971 410.009C710.703 409.548 710.015 409.652 708.931 409.815C707.942 409.964 706.625 410.163 705.754 410.028C705.018 409.913 704.552 409.585 704.202 409.339C703.685 408.975 703.424 408.792 702.931 409.751ZM712.963 410.817C715.43 409.022 714.806 412.941 708.662 413.725C708.109 413.795 707.342 413.763 707.194 413.299C707.143 413.136 707.637 412.996 708.408 412.776C709.603 412.437 711.462 411.909 712.963 410.817ZM693.034 407.67C694.409 408.345 695.988 408.049 696.98 407.664C697.584 407.429 697.737 406.881 697.099 406.844C696.95 406.834 696.714 406.85 696.429 406.87C695.778 406.912 694.878 406.973 694.203 406.795C693.769 406.68 693.344 406.075 692.978 405.557C692.604 405.025 692.292 404.583 692.103 404.859C691.73 405.402 691.658 406.995 693.034 407.67ZM694.993 410.5C695.738 411.068 693.672 411.24 693.098 410.885C692.523 410.53 691.55 408.951 692.268 408.805C692.475 408.763 692.634 409.011 692.821 409.307C692.997 409.581 693.198 409.897 693.489 410.066C694.056 410.392 694.364 410.394 694.59 410.396C694.743 410.398 694.859 410.399 694.993 410.5ZM783.397 388.955C785.07 390.555 783.869 392.976 782.5 394.675C776.935 401.589 769.469 407.384 760.814 411.507C770.951 409.508 779.808 403.789 784.643 396.117C786.894 392.546 787.138 386.654 782.364 385.612C786.832 383.227 791.705 379.152 789.512 374.951C788.728 373.451 787.164 372.34 785.655 371.288L784.76 370.667C775.46 364.243 764.513 357.677 753.05 359.387C758.514 354.982 767.692 357.795 774.745 360.667L776.812 361.502C786.13 365.243 795.714 368.654 805.785 370.129C816.602 371.713 828.162 370.875 837.26 366.107L862.725 352.763C867.625 350.149 873.046 346.007 870.98 341.345C869.841 338.778 866.273 337.096 863.146 337.655C860.019 338.212 857.756 340.932 858.176 343.628L856.227 339.702C854.365 338.918 852.28 340.338 851.511 341.909C851.22 342.504 851.023 343.135 850.825 343.764C850.501 344.799 850.179 345.83 849.447 346.682C846.901 349.646 841.887 348.655 837.288 347.476L834.418 346.73C826.254 344.663 817.772 345.816 809.397 346.955C807.59 347.2 805.786 347.446 803.991 347.658C792.249 349.045 780.201 348.973 768.349 347.447C780.342 352.245 793.455 350.794 806.683 349.33C813.35 348.593 820.044 347.851 826.639 347.905C831.871 347.948 837.973 348.963 840.547 352.87C844.283 358.543 837.388 364.927 830.288 366.972C818.677 370.316 805.643 368.379 793.711 364.95L792.365 364.555C788.027 363.261 783.752 361.789 779.48 360.318C771.64 357.619 763.807 354.922 755.612 353.328C763.138 352.136 767.047 346.479 771.042 340.698C773.197 337.581 775.375 334.429 778.158 331.922C786.339 324.556 799.445 323.191 811.722 322.527L813.653 322.427C807.153 311.674 796.92 302.447 784.593 296.225L810.248 320.426C791.215 319.047 772.377 329.435 766.614 344.488C767.023 320.666 779.087 297.507 799.418 281.515C807.968 282.397 815.952 285.449 823.923 288.496L823.929 288.498C826.501 289.481 829.072 290.463 831.657 291.371C842.265 295.097 854.493 297.595 864.705 293.769C872.047 291.018 877.141 285.429 881.411 279.693L882.095 278.763C887.146 271.829 891.568 264.561 895.312 257.037C899.41 248.804 904.543 238.975 915.192 237.913C917.072 237.726 919.001 237.848 920.922 237.969C923.578 238.137 926.22 238.304 928.703 237.652C932.979 236.529 935.342 230.754 931.161 229.148L909.7 220.901C907.602 220.095 905.219 219.275 903.126 219.956C901.639 220.439 900.647 221.583 899.736 222.674L896.724 226.282C889.708 234.714 882.849 243.259 877.396 252.492C877.043 253.09 876.689 253.696 876.332 254.306C871.932 261.848 867.155 270.033 857.717 272.471C848.51 274.85 838.74 270.717 829.813 266.938C829.364 266.748 828.918 266.56 828.473 266.372L826.815 265.681C817.39 261.802 807.612 258.565 797.616 256.014C788.782 253.758 779.245 252.047 770.636 254.35C760.564 257.045 753.828 264.632 748.432 272.262L747.619 273.425C744.983 277.199 741.714 281.363 736.492 281.732L736.078 281.768C730.872 282.307 727.021 285.923 724.202 289.667L723.765 290.259C716.488 300.323 712.591 312.159 712.613 324.133C689.297 323.617 666.193 330.481 648.912 343.058C644.558 346.228 640.487 349.84 638.204 354.309C634.945 360.69 635.72 367.785 636.5 374.943C637.07 380.165 637.642 385.42 636.655 390.456C636.363 391.947 635.934 393.432 635.505 394.915C634.5 398.391 633.495 401.859 634.268 405.386C635.369 410.42 642.683 415.033 647.427 412.027C652.575 410.212 653.294 403.191 648.622 400.355C651.239 401.236 654.354 400.847 656.448 399.374L647.916 391.718C655.978 385.509 662.415 377.828 666.686 369.318C668.433 365.838 673.235 364.072 677.795 364.105C681.704 364.132 685.504 365.227 689.206 366.458L691.048 367.081C689.626 368.547 691.626 371.268 693.864 370.913C690.812 366.284 694.901 359.938 701.004 359.209C707.108 358.479 713.385 362.927 714.27 368.107C713.316 375.341 706.794 380.683 700.344 385.967C693.346 391.701 686.433 397.365 686.805 405.302C687.18 413.297 696.86 420.369 706.285 419.532C715.709 418.696 722.718 410.142 720.388 402.32C720.388 402.32 721.772 402.165 721.847 400.858C721.967 398.799 721.979 396.543 721.99 394.307C722.011 390.103 722.032 385.97 722.77 383.354C724.84 376.019 730.985 369.294 739.648 367.342C742.399 366.722 745.035 365.814 747.669 364.908L747.671 364.907C751.036 363.749 754.396 362.591 757.985 362.038C764.384 361.052 772.328 362.776 774.99 367.888C767.621 368.158 760.394 369.835 754.008 372.756L779.211 370.258C784.747 369.71 788.077 376.54 785.329 380.547C782.74 384.326 777.422 385.941 772.354 387.179L771.435 387.399C772.846 388.77 775.129 388.476 777.414 388.183C779.695 387.891 781.976 387.598 783.397 388.955ZM883.213 272.19C878.008 280.847 871.702 290.296 860.529 292.948C850.76 295.267 840.339 291.627 830.698 288.26L829.987 288.012L827.688 287.217C816.946 283.54 806.01 280.302 794.929 277.517C786.35 275.36 776.704 273.553 769.038 277.046L783.281 277.879C781.406 279.331 781.524 282.222 783.517 283.688C782.952 281.002 785.979 278.605 789.186 278.39C792.395 278.177 795.527 279.581 798.12 281.281C783.399 289.999 772.88 303.473 769.122 318.423C768.423 321.204 767.951 324.03 767.477 326.853C766.837 330.682 766.195 334.507 764.995 338.216C762.906 344.662 758.749 350.986 751.708 354.013C750.721 354.437 749.684 354.793 748.649 355.151C746.575 355.866 744.505 356.58 742.859 357.822C742.77 357.889 742.681 357.958 742.59 358.028L742.417 358.161L742.289 358.26C740.366 359.745 737.994 361.574 736.048 360.192C732.86 357.927 728.595 356.785 724.532 357.107C724.898 337.386 736.34 318.366 754.82 306.755C755.865 306.098 754.914 304.687 753.958 303.881L739.873 292.007C738.572 290.911 739.027 288.968 740.351 287.977C741.675 286.985 743.555 286.712 745.343 286.543C756.733 285.468 768.597 287.144 779.168 291.322C780.859 291.99 783.424 292.462 784.022 291.019C771.418 284.614 756.078 283.575 741.732 284.816C753.357 281.396 766.773 282.075 778.188 286.662L778.743 286.885C781.463 287.96 784.68 289.036 786.925 287.581C773.782 281.261 757.976 279.169 743.548 281.836C745.884 279.374 747.955 276.744 750.027 274.114L750.028 274.112L750.029 274.112C752.133 271.441 754.237 268.769 756.617 266.273C761.344 261.322 767.505 256.952 775.031 255.814C780.495 254.987 786.186 255.931 791.65 257.105C803.202 259.588 814.477 263.129 825.206 267.642C825.966 267.961 826.731 268.286 827.502 268.613C837.716 272.952 848.859 277.686 859.208 274.678C865.519 272.844 870.163 268.356 873.421 263.488C875.223 260.796 876.682 257.952 878.144 255.107C879.323 252.809 880.504 250.511 881.864 248.292C883.827 245.091 886.288 241.956 889.982 240.135C893.674 238.314 898.855 238.148 902.214 240.585L883.213 272.19ZM638.859 373.908C638.077 366.846 637.304 359.863 641.065 353.841C642.906 350.893 645.708 348.469 648.641 346.245C663.649 334.867 683.178 327.726 703.622 326.144C708.625 325.756 715.339 326.834 716.543 330.72C716.593 330.964 716.644 331.206 716.697 331.447C716.667 331.196 716.614 330.953 716.543 330.72C713.143 314.136 719.219 296.647 732.589 284.673C736.85 292.899 743.945 300.147 752.76 305.278C737.178 315.183 726.523 330.304 723.548 346.733L723.501 346.992C722.638 351.604 720.776 357.429 715.249 357.448L713.363 343.475C713.191 342.194 712.966 340.813 711.911 339.85C710.733 338.773 708.899 338.54 707.159 338.456L706.549 338.431C696.518 338.089 685.384 338.066 678.192 343.701C674.387 346.682 672.312 350.803 670.477 354.974L669.122 358.095C665.893 365.463 661.901 372.575 657.205 379.327C655.312 382.045 653.204 384.794 650.013 386.448C646.824 388.102 642.262 388.352 639.333 386.206C639.776 382.198 639.316 378.039 638.859 373.908ZM713.479 414.682C708.537 417.539 703.763 417.596 698.753 416.345C696.609 415.809 694.485 414.989 692.924 413.621C690.584 411.567 689.843 408.579 689.879 405.792C689.933 401.628 691.508 397.536 694.341 394.204C696.299 391.901 698.8 389.995 701.301 388.089L701.302 388.087C702.165 387.429 703.027 386.772 703.868 386.098C712.076 379.516 718.279 371.188 721.785 362.047C722.485 360.221 724.892 359.187 727.201 359.214C729.511 359.242 731.722 360.129 733.723 361.162C735.155 361.902 736.616 363.655 735.293 364.444C726.03 369.968 720.169 379.241 719.81 388.936C719.801 389.201 719.794 389.467 719.788 389.734C719.752 391.264 719.715 392.81 719.006 394.186C718.175 395.802 717.183 401.096 719.244 403.091C719.244 403.091 718.421 411.825 713.479 414.682ZM704.256 340.336C706.045 340.314 708.03 340.401 709.364 341.449C710.456 342.308 710.833 343.604 711.109 344.822C712.204 349.64 712.579 354.55 712.225 359.399C712.166 360.219 711.509 361.324 710.632 360.927C708.718 357.699 704.155 355.685 700.005 356.237C695.854 356.79 692.475 359.858 692.136 363.386C692.069 364.082 691.167 364.519 690.333 364.5C689.707 364.487 689.11 364.288 688.528 364.064L687.949 363.833C682.01 361.484 674.973 361.336 669.103 363.436C670.832 358.092 673.588 353.015 677.235 348.454C678.726 346.587 680.415 344.769 682.684 343.575C684.821 342.451 687.348 341.944 689.851 341.549C694.584 340.802 699.409 340.395 704.256 340.336ZM905.109 235.978C902.054 234.329 898.361 233.562 894.822 233.85L897.307 228.903C898.101 227.35 899.088 225.721 900.953 225.123C902.296 224.69 903.828 224.897 905.265 225.152C910.076 226.004 914.786 227.338 919.262 229.118C920.756 229.712 922.289 230.402 923.232 231.548C924.174 232.692 924.292 234.418 923.066 235.279C921.841 236.14 919.386 235.299 919.557 233.946L919.567 233.796C919.572 233.044 918.923 232.291 918.051 232.073L917.42 234.575C917.359 234.795 917.274 235.013 917.083 235.165C916.313 235.778 915.172 234.725 914.821 233.854L914.77 233.734C914.384 232.884 913.479 231.884 912.625 232.347C912.992 233.862 912.191 235.494 910.68 236.31C909.17 237.127 907.04 237.081 905.504 236.197L905.109 235.978ZM646.926 405.618L643.516 400.641C642.67 400.614 642.125 401.437 642.24 402.144C642.317 402.616 642.587 403.043 642.895 403.455L643.369 404.067C644.963 406.149 645.764 408.637 645.62 411.061C643.044 408.553 641.143 405.564 640.111 402.399C638.879 402.119 638.655 403.782 639.073 404.797L641.569 410.852C638.766 409.597 637.058 406.982 636.602 404.371C636.146 401.759 636.774 399.135 637.631 396.637C638.078 395.334 638.613 394.009 639.678 393.005C640.744 392.002 642.463 391.382 644.033 391.811C645.337 392.167 646.195 393.096 647.065 394.038C647.723 394.75 648.387 395.47 649.257 395.955C649.565 396.127 649.915 396.296 650.269 396.468C651.643 397.132 653.111 397.842 652.67 398.948C649.941 398.209 647.319 397.156 644.905 395.828C645.401 399.485 647.235 403.048 650.094 405.91C650.679 406.494 649.677 407.37 648.802 407.186C647.928 407.003 647.379 406.279 646.926 405.618ZM864.751 342.79C865.647 341.653 866.467 340.613 867.068 340.729C868.82 341.066 865.591 344.771 863.648 346.028C864.107 346.9 865.521 346.18 866.261 345.497C867 344.813 869.354 343.761 869.039 344.406C867.072 348.422 861.999 352.327 856.659 353.976C854.495 354.644 851.563 354.699 850.253 353.034C849.056 351.515 849.963 349.593 851.086 348.055L851.359 347.693C851.841 347.075 852.716 346.389 853.485 346.8C855.528 347.894 857.899 346.178 859.32 344.619C859.32 344.619 862.76 339.801 863.632 339.887C864.499 339.972 862.801 344.963 862.801 344.963C863.456 344.434 864.122 343.589 864.751 342.791L864.751 342.79ZM843.359 350.962C843.887 350.738 844.539 350.812 845.114 350.978C847.206 351.584 848.726 353.446 848.622 355.275C848.516 357.107 846.796 358.733 844.653 359.031C844.348 359.074 844.021 359.09 843.735 358.977C843.134 358.744 842.986 358.095 842.921 357.548L842.442 353.548C842.326 352.582 842.346 351.39 843.359 350.962ZM740.565 362.555C743.46 361.502 746.641 360.969 749.841 361.002C750.015 362.082 748.732 362.849 747.584 363.311C744.042 364.734 740.203 365.666 736.263 366.06C736.714 364.342 738.655 363.251 740.565 362.555ZM902.892 238.707L893.596 236.335C897.36 235.038 902.13 235.936 905.035 238.489C904.624 239.029 903.644 238.899 902.892 238.707ZM754.658 354.339C751.53 355.785 748.479 357.346 745.52 359.018C749.469 359.926 753.899 357.658 754.658 354.339ZM720.411 357.43C721.396 357.403 721.385 358.732 720.809 359.385C719.056 361.375 715.666 362.205 712.805 361.345L720.411 357.43ZM901.962 221.639C902.474 221.418 903.1 221.491 903.677 221.584C907.431 222.181 911.076 223.36 914.375 225.042L901.273 222.409C901.352 222.081 901.611 221.792 901.962 221.639ZM736.239 283.944L736.374 283.989C737.367 283.652 738.458 283.509 739.542 283.575C739.135 285.144 738.336 286.63 737.21 287.911C736.079 286.837 735.692 285.256 736.239 283.944ZM927.832 230.442L927.877 230.498C929.287 230.677 930.535 231.667 930.83 232.841C927.841 232.225 925.088 230.712 923.19 228.647C924.899 228.787 926.567 229.432 927.832 230.442ZM718.63 363.513L718.513 363.771C718.105 364.667 717.591 365.654 716.52 365.988C715.448 366.322 713.912 365.338 714.47 364.505C715.616 363.739 717.14 363.376 718.63 363.513ZM643.319 388.888C644.372 388.883 645.69 389.268 645.816 390.149C643.47 390.359 641.09 390.369 638.724 390.179C640.027 389.355 641.658 388.897 643.319 388.888ZM853.451 345.998C852.999 346.292 852.271 345.591 852.682 345.259C852.682 345.259 854.396 339.553 855.706 343.039C856.067 343.899 854.24 345.413 853.451 345.998ZM719.387 400.758C719.133 399.184 718.654 396.215 719.613 396.02C720.933 395.621 721.06 397.692 721.15 399.151C721.174 399.553 721.196 399.909 721.24 400.153C721.391 401.01 720.692 401.849 719.51 401.662C719.512 401.532 719.458 401.2 719.387 400.758ZM420.503 517.733C427.593 516.833 434.623 515.662 441.563 514.226C442.904 519.867 450.024 524.244 456.744 523.558C463.463 522.872 468.682 517.235 467.871 511.539C467.545 509.252 470.937 508.153 473.618 507.792L490.682 505.5C493.606 505.107 497.404 503.52 496.294 501.162L489.492 486.713C488.879 485.411 488.784 483.349 490.427 483.298C497.429 483.078 503.243 477.298 502.27 471.431C501.297 465.565 493.642 460.906 486.825 462.1C483.551 462.674 480.814 459.387 480.776 456.555C480.755 455.032 481.188 453.562 481.62 452.089C481.992 450.823 482.365 449.556 482.45 448.252C482.636 445.432 480.553 441.977 477.182 441.991C451.583 442.098 426.237 446.817 403.345 455.739L402.928 455.904C401.671 456.403 400.428 456.954 399.477 457.792C396.353 460.547 397.511 464.985 398.974 468.809L399.809 470.93C404.595 483.25 407.585 496.008 408.686 508.822L408.712 509.112C408.975 512.03 409.493 515.321 412.383 516.985C414.526 518.219 417.264 518.111 419.814 517.817L420.503 517.733ZM464.09 512.06C464.549 512.823 464.584 513.708 464.453 514.537L464.407 514.79C463.497 519.247 457.413 522.315 452.181 520.88C446.849 519.419 443.752 513.653 446.066 509.496C437.577 512.174 428.696 514.042 419.64 515.054C416.838 515.368 412.865 514.845 412.669 512.458C411.324 496.046 407.192 479.707 400.437 464.09C399.213 461.26 402.905 458.912 406.088 457.707C426.624 449.935 449.075 445.52 471.873 444.771C474.788 444.675 478.934 445.733 478.421 448.133C477.216 453.783 477.972 459.779 480.574 465.214C481.237 466.599 483.17 468.196 484.4 467.185C487.713 464.458 493.939 464.838 497.012 467.955C500.085 471.072 499.324 476.235 495.471 478.414C491.619 480.593 485.527 479.305 483.131 475.804C484.642 483.709 487.602 491.462 491.874 498.703C493.355 501.214 489.162 503.126 485.94 503.568L460.221 507.098C459.791 508.286 460.935 509.192 462.138 510.143C462.89 510.738 463.662 511.349 464.09 512.06ZM578.464 437.275L628.086 428.086L628.897 427.939C630.393 427.677 631.922 427.484 633.431 427.741C636.842 428.322 639.2 430.984 641.015 433.511C650.706 447.002 655.328 462.909 654.03 478.313L653.969 478.946C653.767 480.85 653.323 482.797 651.807 484.154C650.557 485.271 648.765 485.815 646.994 486.262L646.615 486.356C639.375 488.143 631.96 489.481 624.447 490.355C627.595 487.594 626.955 482.558 623.482 479.86C620.008 477.163 614.461 476.869 610.503 478.78C608.091 479.943 606.152 481.96 605.921 484.319C605.689 486.678 607.527 489.275 610.3 489.84C612.218 490.231 612.692 492.593 611.557 493.896C610.423 495.198 608.406 495.683 606.531 496.092L581.887 501.465C580.035 501.869 578.08 502.273 576.196 501.849C573.525 501.248 571.695 499.155 570.324 497.119C567.017 492.206 564.976 486.725 564.386 481.178C567.182 485.085 574.117 486.393 578.363 483.814C582.607 481.235 583.198 475.356 579.552 471.966C575.906 468.576 568.853 468.447 565.338 471.705L564.711 470.388C562.524 465.772 560.455 461.066 559.982 456.178C559.465 450.823 561.156 445.119 565.886 441.677C569.336 439.166 573.937 438.131 578.464 437.275ZM633.777 430.703C632.332 430.324 630.807 430.518 629.341 430.761L628.975 430.823C613.465 433.457 598.024 436.333 582.662 439.449L577.545 440.497C574.308 441.165 570.977 441.884 568.38 443.594C564.503 446.145 562.904 450.559 563.052 454.775C563.199 458.99 564.859 463.101 566.502 467.134C573.678 463.736 584.263 468.738 585.591 475.723C586.918 482.708 579.657 489.423 571.306 489.722C571.657 491.943 572.042 494.244 573.473 496.168C574.903 498.092 577.696 499.527 580.229 498.938L602.975 493.645C604.384 493.318 606.141 492.295 605.346 491.225C600.832 485.149 605.066 476.125 613.165 474.561C621.264 472.997 630.4 479.44 630.035 486.458C635.398 486.396 640.711 485.532 645.649 483.919C647.253 483.396 648.891 482.743 649.86 481.558C650.813 480.391 650.973 478.889 651.056 477.454C651.901 462.835 647.568 447.864 638.745 434.92C637.604 433.247 636.205 431.481 634.098 430.797L633.777 430.703ZM458.67 603.888C451.763 590.899 447.198 577.095 445.183 563.111L445.091 562.434C444.686 559.249 444.684 555.802 447.141 553.503C448.98 551.781 451.8 551.107 454.519 550.553L475.352 546.371C476.299 546.181 477.348 545.999 478.236 546.384C479.124 546.769 479.507 547.99 478.665 548.39C476.654 549.345 476.107 551.733 477.002 553.585C477.898 555.437 479.905 556.789 482.035 557.692C487.114 559.843 493.825 559.61 497.531 556.202C501.237 552.794 500.181 546.169 494.971 544.269C504.639 542.125 514.376 540.173 524.171 538.416L527.847 537.766C529.036 537.559 530.365 537.373 531.425 537.922C532.221 538.333 532.683 539.073 533.067 539.786C536.034 545.276 536.842 551.513 535.333 557.268C535.092 558.184 534.209 559.32 533.2 558.865C528.913 556.929 523.287 558.455 520.637 561.719C517.987 564.984 518.039 569.501 519.941 573.253C521.771 576.864 526.297 580.198 530.671 579.108C531.903 578.802 533.082 578.172 534.238 577.554C536.313 576.445 538.317 575.374 540.425 576.28L541.557 594.035C541.758 597.19 541.515 601.029 538.19 602.389C518.998 610.245 497.496 614.317 475.819 614.202L474.765 614.191C472.123 614.145 469.439 613.936 467.058 612.933C462.913 611.186 460.559 607.439 458.67 603.888ZM537.481 580.095C532.468 583.573 524.287 583.125 519.195 579.398C514.103 575.67 512.346 569.222 514.597 564.062C516.848 558.901 522.74 555.205 529.253 554.372L529.797 554.304C530.709 554.187 531.633 554.029 532.265 553.497C533.064 552.824 533.147 551.758 533.111 550.789C532.965 546.922 531.621 543.054 529.25 539.667L502.393 545.305C504.981 551.541 500.877 558.973 493.649 561.145C486.421 563.316 477.254 559.871 474.114 553.8L473.655 552.896C473.183 551.985 472.626 551.104 471.598 550.675C470.876 550.374 470.055 550.363 469.257 550.389L468.958 550.401C460.712 550.737 450.613 552.234 448.421 558.86C447.674 561.115 448.08 563.552 448.553 565.898C451.267 579.37 456.064 592.61 462.786 605.177L463.105 605.764C464.139 607.627 465.41 609.498 467.546 610.455C469.015 611.113 470.7 611.244 472.348 611.299L472.758 611.312C493.793 611.897 514.782 608.279 533.508 600.85L534.546 600.433C535.465 600.06 536.413 599.653 537.001 598.957C537.767 598.049 537.775 596.835 537.755 595.701L537.481 580.095ZM693.762 583.961C693.762 583.961 693.004 581.312 693.11 580.37C693.3 578.668 694.647 576.029 694.647 576.029C694.701 576.659 694.711 577.341 694.722 578.046C694.757 580.461 694.796 583.129 696.612 584.74C698.012 585.983 714.065 590.761 719.31 591.58C741.738 595.082 764.028 597.846 786.422 600.623L786.425 600.623L786.426 600.623L786.447 600.626C795.597 601.76 804.765 602.898 813.967 604.088C799.297 605.505 784.383 602.558 769.831 599.634C771.363 613.117 784.168 624.419 798.55 630.926C809.021 635.664 820.42 638.436 831.816 641.21L831.818 641.21L831.819 641.211C836.072 642.245 840.326 643.28 844.531 644.417L846.079 644.841C861.046 649.012 876.044 655.069 885.56 665.693C887.304 667.641 890.876 668.227 893.228 666.95C895.58 665.673 896.345 662.733 894.871 660.637C898.219 661.978 898.049 666.53 895.099 668.247C892.148 669.963 887.899 669.311 884.752 667.648C882.381 666.396 880.443 664.67 878.509 662.947L878.507 662.946L878.506 662.944L878.501 662.94C877.871 662.378 877.24 661.817 876.594 661.271C864.955 651.444 848.726 647.17 832.806 643.475L825.336 641.754C808.05 637.714 789.925 632.325 779.09 620.23C756.889 628.08 731.999 630.876 707.661 628.254C702.455 627.693 697.273 626.89 692.094 626.087C683.844 624.809 675.6 623.531 667.274 623.235C662.635 623.069 656.678 624.162 656.24 628.023C656.238 628.022 656.238 628.024 656.235 628.033C656.212 628.111 656.057 628.628 654.72 629.006C654.092 629.183 653.186 628.347 652.793 627.752C652.578 627.606 652.359 627.116 652.019 626.089C651.836 625.535 652.365 622.845 654.372 620.838C655.769 619.443 657.604 618.668 658.564 618.26C658.998 618.077 659.254 617.969 659.212 617.913C659.113 617.784 657.203 617.755 655.805 618.749C654.726 619.516 653.769 620.436 652.889 621.28L652.888 621.281C651.527 622.588 650.349 623.717 649.195 623.834C647.633 623.993 646.361 623.612 645.916 622.324C645.473 621.036 645.357 619.382 646.263 618.333C648.2 616.088 651.125 614.474 654.376 613.854C655.079 613.72 655.881 613.648 656.487 614.005C657.091 614.362 657.164 615.305 656.474 615.473C652.33 616.486 647.675 618.069 647.25 622.053C647.126 623.212 650.187 622.773 651.16 621.97C651.725 621.504 652.157 620.944 652.591 620.383C652.904 619.978 653.218 619.572 653.582 619.201C654.671 618.091 656.221 617.312 657.919 617.021C658.602 616.903 659.392 616.884 659.945 617.267C660.499 617.651 660.495 618.551 659.822 618.698C655.49 619.643 652.578 623.649 653.498 627.391C653.558 627.521 653.88 628.104 654.435 628.146C655.082 628.194 655.601 627.652 655.614 627.606C656.744 623.714 660.121 620.581 664.947 620.826C666.772 620.918 668.608 621.25 670.437 621.58C673.634 622.159 676.807 622.732 679.846 622.011L675.259 614.096C665.863 609.805 653.922 610.046 645.191 614.703C644.257 615.201 643.283 615.847 643.143 616.781C643.004 617.714 644.334 618.759 645.238 618.225C644.059 619.799 640.663 618.224 640.684 616.334C640.705 614.442 642.69 613.069 644.638 612.179C655.566 607.184 668.815 609.325 681.618 611.394L681.629 611.395C684.001 611.779 686.358 612.159 688.683 612.492C714.584 616.197 741.484 613.237 764.811 604.118C764.563 606.82 761.162 608.314 758.159 609.24C736.867 615.806 713.433 617.831 690.579 615.079C688.963 618.295 691.551 622.256 695.219 624.121C698.887 625.986 703.297 626.276 707.514 626.471C731.142 627.565 755.653 627.093 776.628 618.636L767.087 601.455L766.906 601.144C766.491 600.464 765.919 599.792 765.056 599.725L764.837 599.709C733.564 597.289 709.73 595.445 673.915 578.346C673.842 578.311 673.771 578.276 673.702 578.238C675.766 585.146 673.698 587.179 662.375 587.484C637.667 588.148 613.045 590.872 590.401 598.473C589.711 590.638 589.495 582.789 589.756 574.967C582.781 578.625 571.751 574.505 569.99 567.58C568.227 560.657 576.43 553.68 584.694 555.078C585.577 549.655 583.836 543.878 579.942 539.325C578.075 537.141 581.89 534.886 584.919 534.27L601.653 530.865C603.993 530.389 606.949 528.804 605.731 527.001C602.846 522.723 604.817 516.765 609.845 514.568C614.782 512.41 621.762 514.274 624.604 518.452L624.759 518.686C627.613 523.214 635.264 523.28 641.016 522.011L643.876 521.367C648.849 520.262 654.108 519.34 658.438 521.627C663.618 524.361 664.594 530.196 664.869 535.282L664.887 535.619C665.004 538.053 664.685 540.114 664.365 542.188C663.753 546.138 663.134 550.131 665.521 556.822C666.494 559.549 667.443 562.041 668.338 564.317C668.267 562.605 668.323 561.454 668.323 561.454C668.323 561.454 734.271 584.81 769.507 582.638C772.543 578.793 768.261 573.372 763.205 571.203C761.073 570.289 758.784 569.665 756.501 569.042C753.367 568.188 750.245 567.336 747.553 565.741C742.206 562.573 739.668 557.224 737.151 551.922C734.414 546.156 731.703 540.444 725.435 537.645C724.876 537.395 724.295 537.174 723.715 536.952C722.405 536.452 721.096 535.954 720.046 535.136C717.449 533.109 717.234 529.598 718.707 527C720.18 524.403 722.978 522.551 725.831 520.972C731.753 517.692 738.593 515.144 745.816 515.348C753.038 515.551 760.611 519.065 763.214 524.803C763.712 522.209 765.946 519.953 768.879 519.083L765.805 523.923L771.38 522.889L764.947 528.053C772.133 534.51 774.396 543.817 774.023 552.464C773.978 553.523 773.898 554.59 773.819 555.658C773.504 559.93 773.186 564.235 774.967 568.264C777.156 573.218 784.162 577.308 789.609 575.096L789.88 574.98C796.345 572.075 804.25 571.39 811.492 573.106C819.937 575.107 826.857 580.006 833.704 584.854C835.293 585.98 836.879 587.102 838.479 588.185C845.977 593.26 854.331 597.698 863.581 599.641C872.83 601.584 883.11 600.756 890.526 596.075C891.889 595.214 893.149 594.232 894.407 593.253C896.543 591.589 898.672 589.93 901.294 588.874C905.459 587.198 911.699 587.889 913.482 591.586C910.121 588.81 904.511 589.336 900.609 591.296C898.406 592.403 896.52 593.862 894.632 595.324C893.173 596.452 891.715 597.581 890.107 598.551C882.057 603.401 870.918 603.718 861.183 601.162C851.753 598.687 843.4 593.827 835.59 588.619L834.836 588.114C834.042 587.579 833.249 587.041 832.457 586.501L832.455 586.501L832.453 586.499L832.452 586.498L832.449 586.497L832.448 586.495L832.446 586.494L832.443 586.493L832.442 586.492C826.921 582.738 821.359 578.956 814.917 576.556C807.691 573.864 798.957 573.18 792.431 576.504L792.035 576.712C785.849 580.066 776.773 575.991 773.546 570.21C770.32 564.429 771.224 557.813 772.198 551.608C773.203 545.208 765.586 539.526 757.945 538.287C750.855 537.137 743.324 538.726 737.921 542.514C736.17 543.74 736.549 546.063 737.254 547.972L737.333 548.183C739.93 554.898 744.428 561.597 751.809 565.058C754.003 566.087 756.379 566.795 758.75 567.502C761.718 568.386 764.681 569.268 767.27 570.775C771.929 573.485 774.596 579.795 770.313 582.644C779.14 582.222 788.016 582.236 796.881 582.684C751.68 587.805 705.462 578.44 669.429 563.105C669.161 564.209 669.086 565.333 669.185 566.452C669.605 567.502 670.009 568.502 670.395 569.454C670.938 570.796 671.442 572.044 671.897 573.202C674.584 576.815 678.985 579.587 683.967 580.186C682.705 577.521 682.85 574.45 684.354 571.966C683.828 574.936 683.286 580.535 693.762 583.961ZM743.888 517.78C739.773 517.957 735.69 518.437 731.701 519.21C731.572 519.689 731.636 520.21 731.879 520.669C736.416 520.081 741.111 520.185 745.669 520.972C744.459 522.742 741.396 522.453 738.908 522.217L738.762 522.204C734.509 521.803 730.178 522.378 726.363 523.848C724.417 524.598 722.557 525.614 721.358 527.096C720.159 528.579 719.72 530.596 720.653 532.275C721.844 534.418 724.828 535.44 727.587 535.797C734.425 536.681 741.576 534.587 746.097 530.376C746.463 530.035 747.234 530.323 747.411 530.773C747.588 531.223 747.359 531.698 747.085 532.097C745.493 534.41 742.405 535.672 739.345 536.457C738.451 536.687 737.544 536.888 736.635 537.088C734.434 537.575 732.232 538.062 730.246 538.956C731.03 540.393 733.403 540.46 735.222 540.207C742.173 539.242 748.825 537.059 754.64 533.837C756.096 533.031 758.034 534.101 759.385 535.112L769.24 542.491C770.918 540.205 769.739 537.087 767.837 534.809C767.094 533.92 766.249 533.088 765.402 532.257C764.085 530.962 762.769 529.67 761.854 528.165C761.349 527.335 760.975 526.455 760.602 525.576C760.077 524.342 759.553 523.111 758.672 522.029C755.567 518.218 749.271 517.549 743.888 517.78ZM686.553 615.071L679.233 613.281C678.421 613.083 677.113 613.287 677.409 613.954C678.107 616.758 679.493 620.085 682.345 621.96C684.143 623.14 685.341 623.689 690.321 623.723L687.419 616.064C687.266 615.658 687.04 615.19 686.553 615.071ZM768.627 553.513C769.27 552.979 769.536 552.208 769.778 551.471C770.213 550.153 770.649 548.762 770.241 547.411C769.833 546.06 768.252 544.818 766.651 545.086C765.854 545.22 765.211 545.69 764.696 546.207C763.552 547.355 762.86 548.821 762.748 550.339C763.772 551.081 765.157 549.95 765.597 548.913C766.037 547.876 766.752 546.533 768.066 546.738C768.045 549.161 767.385 551.557 766.145 553.706C766.841 554.234 767.986 554.045 768.627 553.513ZM802.849 616.231C800.315 614.227 797.577 612.062 794.199 611.929C804.791 621.582 818.618 628.72 833.527 632.23C838.733 633.456 844.057 634.25 849.378 635.042C856.798 636.147 864.208 637.252 871.27 639.524C880.117 642.373 888.198 647.037 894.59 652.981C889.756 643.635 877.764 638.166 866.064 635.662C860.767 634.528 855.371 633.842 849.976 633.159C843.454 632.331 836.936 631.504 830.605 629.884C820.513 627.303 811.075 622.708 803.311 616.596C803.158 616.476 803.003 616.354 802.849 616.231ZM825.7 615.079L826.014 615.404C827.421 616.906 828.708 618.888 827.482 620.347C826.506 621.51 824.456 621.557 822.753 621.264C819.071 620.63 815.624 618.889 813.191 616.434C814.984 615.728 816.497 614.557 817.474 613.114C818.288 611.914 820.357 611.703 821.908 612.273C823.461 612.843 824.611 613.981 825.7 615.079ZM825.978 619.25C826.791 616.42 822.228 613.418 820.516 613.512C819.771 613.552 819.235 614.297 818.659 615.099C818.068 615.921 817.436 616.801 816.493 617.038C816.493 617.038 825.165 622.08 825.978 619.25ZM911.035 609.62C950.475 600.419 983.893 576.072 1000.16 544.684C1001.01 543.058 1003.56 542.515 1005.64 543.005C1007.72 543.496 1009.43 544.753 1011.06 545.971C1012.26 545.561 1011.76 543.904 1010.63 543.294C1010.08 542.993 1009.45 542.821 1008.82 542.647C1008.18 542.47 1007.53 542.293 1006.97 541.977C1004.69 540.698 1004.77 537.938 1005.12 535.708L1006.67 525.765C1006.88 524.432 1007.37 522.829 1008.92 522.533C1010.06 522.316 1011.2 522.942 1012.16 523.538C1022.68 530.044 1032.76 537.059 1042.34 544.533C1038.41 545.906 1033.9 544.994 1029.45 544.095C1024.49 543.09 1019.59 542.1 1015.68 544.326C1012.27 546.264 1011.11 549.961 1010.08 553.34C1006.72 564.392 1002.28 575.281 995.309 584.968C979.107 607.464 950.767 621.536 922.275 632.582C942.887 634.776 963.966 632.282 982.657 625.437C993.354 621.52 1003.49 616.027 1010.2 608.056C1012.92 604.829 1015.02 601.26 1017.11 597.707L1032.52 571.527C1033.42 569.995 1036.26 570.713 1037.93 571.791C1039.6 572.869 1041.82 574.185 1043.51 573.237C1041.32 570.96 1038.27 569.265 1034.95 568.481C1033.77 565.47 1032.58 562.229 1033.63 559.258C1034.69 556.284 1039.03 554.058 1042.24 555.766C1052.76 561.36 1063.03 567.299 1073.03 573.561C1068.86 575.026 1064.2 574.279 1059.57 573.536L1059.57 573.536L1059.57 573.536C1058.14 573.306 1056.72 573.078 1055.31 572.915C1049.35 572.224 1041.83 573.794 1040.84 578.721C1038.15 592.198 1035.3 606.038 1026.83 617.536C1012.69 636.738 985.764 645.897 960.415 653.738C949.173 657.215 937.595 660.7 925.459 660.491C916.626 660.338 907.936 658.229 899.37 656.137L892.573 654.477C890.971 655.193 893.088 657.125 894.871 657.58C906.294 660.489 918.05 663.431 929.786 662.648C932.776 662.449 935.725 662.009 938.653 661.512C965.606 656.941 991.164 647.51 1013.13 634.03C1022.29 628.409 1031.24 621.563 1034.22 612.288L1044.73 579.602C1045.14 578.35 1045.59 577.021 1046.77 576.201C1048.21 575.201 1050.29 575.228 1052.19 575.304L1072.45 576.111C1074.52 576.192 1075.67 573.927 1074.92 572.286C1074.16 570.644 1072.28 569.572 1070.51 568.614L1048.04 556.444C1045.08 554.838 1041.91 553.177 1038.44 553.077C1034.98 552.979 1031.28 555.145 1031.57 558.055C1032.43 566.642 1028.06 574.749 1023.78 582.416C1017.17 594.282 1010.24 606.504 998.413 614.964C981.449 627.095 957.437 629.454 934.82 630.525L947.635 624.241C953.979 621.129 960.331 618.013 966.29 614.42C989.401 600.482 1006 579.278 1012.24 555.724C1013.32 551.636 1014.62 546.901 1019.15 545.204C1022.87 543.81 1026.86 545.093 1030.94 546.405C1033.36 547.185 1035.82 547.974 1038.27 548.218C1041.88 548.578 1046.48 546.086 1044.75 543.355C1044.36 542.738 1043.71 542.268 1043.07 541.815L1018.27 524.18C1014.83 521.733 1010.03 519.154 1006.34 521.085C1003.38 522.637 1003.21 526.076 1003.06 529.11L1003.05 529.386L1003.04 529.511L1003.04 529.652C1002.3 543.753 991.727 555.648 981.576 566.605C977.135 571.398 972.681 576.203 967.608 580.526C952.786 593.156 933.168 601.214 912.856 606.559C907.118 608.069 904.983 613.467 903.03 618.407C902.798 618.994 902.569 619.575 902.336 620.143C898.933 628.429 892.612 635.774 884.35 641.039C886.406 642.19 888.97 640.728 890.604 639.275C898.359 632.377 904.052 623.848 907.061 614.615C907.725 612.578 908.613 610.185 911.035 609.62ZM760.892 558.741C760.538 560.627 758.903 562.265 756.763 562.877C754.623 563.488 752.062 563.05 750.299 561.768C749.651 561.297 749.291 560.193 750.116 560.09C752.421 561.638 756.084 561.417 757.946 559.613C758.752 558.832 760.262 557.808 760.892 558.741ZM739.156 549.972C738.884 548.508 739.891 546.983 741.492 546.43C743.095 545.879 745.15 546.351 746.265 547.526C745.043 547.774 744.161 547.753 743.427 547.736C741.934 547.699 741.052 547.679 739.156 549.972ZM754.744 555.27L753.07 556.349L752.942 556.318C752.712 557.215 750.96 556.608 750.552 555.735C750.468 555.555 750.393 555.362 750.316 555.166C750.023 554.416 749.717 553.636 748.866 553.446C748.315 554.763 748.384 556.334 749.351 557.521C750.318 558.708 752.278 559.358 753.791 558.791C755.304 558.223 755.901 556.332 754.744 555.27ZM753.386 543.803C755.847 543.478 756.524 543.458 757.632 544.665C757.851 544.903 756.74 544.863 755.681 544.825C754.903 544.797 754.15 544.771 753.979 544.856C746.594 548.519 750.924 544.128 753.386 543.803ZM753.875 547.47C755.499 548.093 756.294 551.734 754.109 551.462C753.193 551.349 750.421 546.145 753.875 547.47ZM849.119 629.908C848.263 629.367 848.587 628.023 849.613 627.859C850.142 628.014 850.588 628.377 850.787 628.817C850.578 629.423 849.881 629.875 849.121 629.892L849.119 629.908ZM828.732 626.642L830.056 626.182L830.156 626.126C830.385 625.267 828.526 624.717 828.123 625.525C828.116 625.943 828.347 626.366 828.732 626.642ZM840.113 629.268C839.372 629.615 838.876 628.469 839.132 627.786L841.291 628.135C841.142 628.634 840.696 629.055 840.126 629.238L840.113 629.268ZM810.568 617.107C810.209 616.704 809.391 616.689 809.046 617.078L809.202 617.156C808.959 617.66 809.504 618.325 810.161 618.325C810.709 618.163 810.928 617.51 810.568 617.107ZM744.614 553.481C743.843 553.638 742.825 553.163 742.497 552.043C742.17 550.925 742.185 549.826 743.507 550.139C744.83 550.453 745.408 553.32 744.614 553.481ZM340.956 491.501C341.593 491.924 342.578 491.48 342.804 490.848C343.031 490.214 342.747 489.524 342.459 488.892C338.292 479.749 332.379 471.121 325.023 463.449C322.928 461.264 320.566 458.489 321.841 455.995C329.584 464.714 337.403 473.545 342.467 483.5C343.849 486.217 345.03 489.26 343.966 492C342.901 494.738 338.6 496.579 335.808 494.757C338.779 493.558 340.296 490.357 339.165 487.675C340.902 488.222 341.813 490.17 340.956 491.501ZM439.251 669.866C455.507 665.743 473.962 659.834 478.668 646.127C479.887 642.573 477.797 637.801 476.073 633.868C474.689 630.708 473.543 628.091 474.541 627.083C476.781 624.819 480.47 628.732 480.47 628.732C480.463 628.6 480.455 628.453 480.446 628.296C480.435 628.091 480.419 627.865 480.403 627.625C480.201 624.488 479.827 618.713 482.432 619.283C483.503 619.518 484.066 622.248 484.451 624.124L484.452 624.125C484.542 624.565 484.623 624.958 484.698 625.261C484.739 625.554 484.81 625.792 484.906 625.952C484.933 625.934 484.961 625.912 484.988 625.885C485.001 625.881 485.015 625.87 485.028 625.854C485.038 625.843 485.047 625.829 485.056 625.811C485.336 625.474 485.622 624.725 485.943 623.891C486.604 622.163 487.404 620.073 488.561 620.547C490.377 621.29 487.349 629.005 487.349 629.005C487.349 629.005 491.644 621.952 492.984 624.31C494.324 626.667 487.543 651.8 477.661 663.124C467.78 674.449 451.401 682.994 434.551 684.552C433.102 679.005 432.897 671.479 439.251 669.866ZM485.056 625.811C485.033 625.839 485.011 625.863 484.988 625.885C484.895 625.918 484.802 625.674 484.698 625.261C484.605 624.592 484.667 623.638 484.956 622.679C484.944 622.99 484.93 623.293 484.915 623.576C484.852 624.848 484.807 625.769 485.126 625.634C485.111 625.681 485.097 625.722 485.083 625.756C485.074 625.778 485.065 625.795 485.056 625.811ZM486.469 620.164C485.716 620.841 485.233 621.761 484.956 622.679C485.05 620.23 484.957 617.184 482.795 617.379C479.127 617.708 477.286 623.296 478.759 625.765C477.093 623.898 473.303 625.624 472.997 627.889C472.762 629.628 473.659 631.297 474.551 632.954L474.551 632.955C474.82 633.457 475.089 633.959 475.327 634.46C479.115 642.476 474.385 651.652 466.738 656.995C459.528 662.034 450.244 664.423 441.09 666.543L438.955 667.034C433.722 668.222 427.979 669.28 423.011 667.244C417.893 665.146 415.589 658.168 420.385 655.877C432.562 650.062 439.025 637.094 435.586 625.382C434.57 621.92 436.252 618.525 437.876 615.245C438.022 614.951 438.168 614.656 438.311 614.364L438.664 613.631C440.448 609.854 441.327 604.973 437.796 602.001C435.429 606.778 429.037 609.81 422.816 609.106C420.22 608.812 417.721 607.947 415.237 607.089C411.911 605.938 408.613 604.798 405.148 605.049C398.374 605.54 393.774 612.432 396.706 617.701C394.531 616.806 392.428 619.257 392.88 621.237C393.146 622.401 393.867 623.44 394.592 624.482C395.1 625.214 395.61 625.948 395.965 626.729C396.378 627.638 396.574 628.593 396.771 629.549C396.903 630.194 397.036 630.84 397.237 631.474C398.273 634.755 400.992 637.432 403.671 640.069L403.674 640.072L403.677 640.076C403.946 640.34 404.213 640.603 404.479 640.866L405.202 641.592C408.302 644.743 411.127 648.669 410.228 652.578C409.332 656.486 402.705 659.001 399.559 655.882C384.143 640.596 358.258 633.315 335.724 637.927C309.632 643.266 290.976 662.63 281.513 683.643C280.333 686.263 279.251 689.048 279.739 691.872C280.227 694.695 282.766 697.532 286.14 697.824C289.515 698.116 292.648 694.745 290.778 692.32C292.847 693.547 295.551 691.44 295.645 689.357C295.697 688.187 295.313 687.042 294.928 685.893C294.627 684.997 294.326 684.099 294.23 683.185C293.762 678.702 298.144 675.168 302.226 672.405L303.05 671.85C312.677 665.374 322.916 659.26 334.741 656.09C346.904 652.827 361.112 653.061 372.181 659.008C361.321 663.715 357.842 674.989 355.484 685.229L355.159 686.656C352.787 697.022 349.01 708.574 337.735 712.962C338.849 714.865 341.471 716.093 343.933 715.863L307.514 746.793L312.036 749.64C305.972 765.639 298.258 781.149 289.006 795.947C283.976 803.993 276.873 812.715 265.931 813.303C263.952 813.411 261.941 813.233 259.936 813.056C257.001 812.797 254.081 812.539 251.3 813.176C246.621 814.25 243.498 820.08 247.673 822.369C256.92 827.438 266.909 831.519 277.307 834.472L277.576 834.548C278.838 834.897 280.195 835.187 281.401 834.812C282.62 834.434 283.394 833.466 284.091 832.551L328.14 774.731C331.757 770.025 335.861 765.219 342.141 763.36L342.667 763.193C347.258 761.659 350.345 758.297 353.442 754.925C354.79 753.457 356.139 751.987 357.616 750.666C362.612 746.194 372.567 743.815 376.827 749.077C379.09 751.873 378.476 755.31 377.872 758.698L377.872 758.699C377.692 759.708 377.511 760.713 377.409 761.696C376.963 765.975 380.391 771.72 385.311 770.64L412.843 764.6C413.834 764.39 414.897 764.224 415.841 764.583C416.829 764.958 417.41 765.799 417.857 766.648L418.055 767.039C421.477 774.015 423.753 781.354 424.798 788.778C425.929 796.823 424.934 806.126 417.25 810.722C412.403 813.621 406.036 813.923 399.937 813.974L362.837 814.154C361.596 810.59 364.446 806.903 368.199 805.129C371.381 803.624 375.082 803.133 378.75 802.647C378.974 802.618 379.2 802.588 379.425 802.558L380.716 802.381C389.697 801.104 398.375 798.598 406.311 794.992L385.297 771.306C389.433 779.746 395.034 787.72 401.858 794.888L361.655 804.253C358.149 805.054 354.184 805.719 351.084 804.015C350.289 803.578 349.553 802.99 348.822 802.408C347.323 801.213 345.851 800.039 343.955 800.233C342.318 800.4 341.179 801.59 340.254 802.716C334.222 810.067 329.976 818.478 327.837 827.316C330.737 830.56 336.738 830.413 340.801 828.487C343.177 827.36 345.168 825.796 347.163 824.228C348.579 823.116 349.996 822.002 351.555 821.043C360.249 815.686 371.786 815.773 383.019 816.313L389.697 816.652C402.88 817.277 418.23 815.852 424.859 806.503C428.771 800.986 428.55 794.004 427.533 787.499C424.598 768.728 415.883 750.43 402.475 734.887C410.172 730.308 411.534 721.291 412.26 713.274L413.682 697.575C414.156 692.329 416.904 685.452 423.151 686.257C441.008 688.557 459.149 682.362 471.596 671.884C484.044 661.406 491.213 647.073 494.357 632.325L494.44 631.928C495.042 629.002 494.888 622.491 492.989 622.153C492.226 621.863 491.342 622.78 490.74 623.405C490.414 623.743 490.171 623.995 490.074 623.925C490.013 623.883 490.039 623.515 490.074 622.995C490.213 620.946 490.515 616.525 486.469 620.164ZM407.303 722.762C406.59 726.852 404.823 731.853 399.927 732.324C397.305 732.577 394.854 731.343 392.581 730.025L391.357 729.307C378.095 721.492 362.34 717.71 346.688 714.461L341.477 713.393C351.988 709.275 355.762 698.548 357.792 688.88L358.439 685.799C360.311 677.01 362.727 667.866 370.795 662.44C371.911 661.691 373.247 661.002 374.699 661.142C374.919 661.162 375.158 661.189 375.407 661.217C377.208 661.416 379.529 661.674 379.063 660.374C375.762 659.962 374.06 656.394 375.012 653.754C375.881 651.345 378.187 649.588 380.521 648.003L381.188 647.554C378.818 645.903 375.671 648.337 374.347 650.574L374.237 650.757C372.893 652.957 370.567 655.542 367.84 654.529C356.57 650.343 343.584 650.904 332.25 654.224C320.917 657.546 310.999 663.417 301.724 669.71C298.324 672.016 294.909 674.472 292.904 677.745C291.352 680.277 292.035 683.089 292.722 685.915C292.923 686.741 293.123 687.57 293.268 688.393C293.622 690.383 292.393 690.712 291.31 691.001C290.73 691.156 290.193 691.3 289.963 691.683C289.944 691.713 289.894 691.844 289.82 692.039C289.444 693.037 288.424 695.737 287.537 695.669C286.234 695.569 286.12 693.267 286.12 693.267C286.12 693.267 282.873 694.84 282.327 694.038C280.417 691.231 283.684 684.029 283.684 684.029C288.909 671.113 299.06 659.214 311.8 650.907C324.775 642.445 341.676 637.885 358.364 639.577C377.178 641.484 394.916 651.57 404.219 665.654C406.538 669.164 412.201 669.771 416.879 669.482C417.308 669.455 417.741 669.427 418.178 669.398L418.189 669.396L418.211 669.395C422.519 669.103 427.1 668.792 430.614 670.93C431.651 671.56 431.823 672.77 431.887 673.825L431.905 674.129C432.106 677.898 431.717 682.24 427.986 684.154C424.595 685.895 419.351 684.248 417.976 681.013C417.855 680.728 417.746 680.422 417.636 680.113C417.181 678.839 416.701 677.499 415.26 677.227L407.303 722.762ZM378.62 749.427C375.225 743.652 369.198 739.062 362.332 736.192C363.337 738.528 365.289 740.596 367.78 741.962C359.227 746.404 351.679 752.157 345.597 758.868C343.971 760.665 340.848 762.636 338.972 760.9C331.591 754.073 321.794 749.098 311.263 746.834L342.861 720.811C344.288 719.636 345.808 718.416 347.766 718C349.284 717.678 350.894 717.879 352.461 718.174L353.241 718.329C369.379 721.622 384.841 727.637 398.416 735.904C401.778 737.951 404.032 740.989 406.101 744.026L415.497 757.965C416.12 758.888 416.74 760.062 416.05 760.907C415.663 761.382 414.964 761.593 414.307 761.774L413.538 761.985C402.623 764.981 393.816 767.399 382.186 768.303C379.621 765.93 379.768 762.313 379.921 758.579C380.052 755.378 380.186 752.091 378.62 749.427ZM319.547 751.69C324.761 753.962 329.694 756.714 334.226 759.879C334.711 760.217 335.222 760.601 335.352 761.114C335.503 761.711 335.09 762.279 334.696 762.773L297.965 808.82C296.433 810.74 293.107 811.135 290.425 810.365C288.078 809.692 286.108 808.329 284.245 806.911L283.453 806.302C294.271 798.065 299.058 786.277 303.887 774.384C306.916 766.924 309.962 759.422 314.523 752.73C314.967 752.08 315.482 751.395 316.324 751.136C317.365 750.815 318.535 751.248 319.547 751.69ZM427.98 622.033L429.33 622.105C431.962 622.248 433.275 624.917 433.674 627.114C435.321 636.207 431.742 646.267 422.668 651.041L422.345 651.216C416.485 654.485 413.745 661.202 415.96 667C411.823 668.581 406.161 666.57 404.462 662.916C404.123 662.187 404.063 661.164 404.901 660.872C408.697 659.549 411.661 656.743 412.785 653.41C413.908 650.078 413.167 646.282 410.816 643.318C410.336 642.713 409.784 642.12 409.232 641.528C407.661 639.844 406.086 638.152 406.125 636.122C407.684 635.932 408.558 637.642 408.825 638.962L408.859 639.122C409.156 640.417 409.959 641.992 411.468 641.867C411.807 639.807 411.316 637.68 410.828 635.569C410.211 632.903 409.601 630.263 410.679 627.82C411.912 625.027 415.177 623.195 418.626 622.457C421.644 621.811 424.824 621.877 427.98 622.033ZM258.484 815.453L258.696 815.085C260.331 814.407 262.622 815.961 262.197 817.461C261.925 818.424 263.906 818.917 264.678 818.184C265.45 817.45 265.278 816.314 265.063 815.325C265.935 814.877 267.07 815.638 267.528 816.438C267.649 816.649 267.754 816.872 267.859 817.094C268.153 817.714 268.447 818.336 269.079 818.719C269.939 819.239 271.534 818.556 270.984 817.796C270.163 816.663 271.531 815.324 272.952 814.844C273.293 814.728 273.652 814.627 274.012 814.527C275.15 814.21 276.296 813.889 276.931 813.076L277.031 812.963C277.892 812.097 279.62 813.024 280.783 813.922L281.332 814.361C283.896 816.351 287.475 817.382 290.871 817.094C291.536 817.037 291.49 817.951 291.144 818.423L283.024 829.484C282.63 830.02 281.662 829.892 280.928 829.695C273.249 827.624 265.842 824.754 258.937 821.173C256.762 820.046 257.417 817.407 258.484 815.453ZM360.456 812.239C360.507 813.416 360.013 814.845 358.64 815.034C355.331 815.49 352.152 816.49 349.335 817.961C349.248 816.784 348.259 815.66 346.934 815.23C346.45 816.376 347.285 817.83 348.676 818.264L346.444 821.478L344.014 818.899C343.339 819.211 343.569 819.974 343.85 820.659L344.029 821.084C344.78 822.877 343.544 825.02 341.435 825.579C339.325 826.14 336.725 825.015 335.979 823.221C335.168 821.266 336.41 819.234 337.613 817.495L346.163 805.143C346.348 804.889 346.574 804.641 346.915 804.578C347.292 804.507 347.677 804.686 348.016 804.859L353.946 807.874C355.096 808.459 354.918 809.748 354.745 811.003C354.567 812.296 354.393 813.553 355.677 813.975C356.739 813.814 357.354 812.867 357.484 811.967C357.551 811.507 357.529 811.041 357.508 810.574C357.487 810.126 357.466 809.677 357.523 809.236C357.64 808.333 358.221 807.378 359.273 807.184C360.326 806.99 361.552 808.094 360.93 808.822C360.265 809.596 360.343 810.623 360.417 811.62C360.432 811.828 360.449 812.036 360.456 812.239ZM280.951 833.094C268.709 830.43 257.058 825.567 247.025 818.935C247.732 817.966 249.452 818.493 250.674 819.181L250.98 819.363C260.382 825.267 271.162 829.58 282.442 831.949C282.58 832.623 281.742 833.267 280.951 833.094ZM331.383 820.87C334.3 814.819 337.823 808.989 341.902 803.46C342.535 802.603 344.165 801.78 344.706 802.717C339.989 809.246 335.633 815.968 331.659 822.853C330.867 822.515 331.059 821.541 331.383 820.87ZM291.742 815.281C288.203 814.964 284.744 813.762 281.923 811.866C280.862 811.152 279.874 809.74 280.897 809.054C281.706 808.512 282.841 809.074 283.726 809.662L284.395 810.123C287.247 812.029 290.795 813.177 294.373 813.343C294.627 814.09 294.129 814.938 293.283 815.203C292.801 815.354 292.262 815.328 291.742 815.281ZM399.524 631.852C401.046 631.576 402.769 632.651 402.913 633.97L402.953 633.98C403.465 634.852 403.649 635.85 403.47 636.789C401.36 635.75 399.852 633.862 399.524 631.852ZM428.347 626.026C428.534 625.973 428.73 625.918 428.932 625.874C429.186 625.819 429.494 625.798 429.784 625.778C430.565 625.724 431.218 625.679 430.367 625.014C429.198 624.101 426.785 624.463 426.805 625.777C427.119 626.376 427.671 626.219 428.347 626.026ZM432.022 630.965C432.021 630.925 432.019 630.884 432.019 630.846C431.982 628.875 431.163 627.479 429.571 627.803C428.97 627.967 428.91 630.812 429.266 631.599C429.622 632.385 430.938 632.913 431.634 632.345C432.047 632.007 432.034 631.46 432.022 630.965ZM421.329 632.537C419.785 631.454 419.052 629.616 419.529 628.025C419.6 627.787 419.702 627.546 419.909 627.376C420.432 626.947 421.401 627.189 421.862 627.695C422.322 628.202 422.413 628.864 422.488 629.49C422.488 629.49 422.872 633.619 421.329 632.537ZM656.571 584.757C634.888 584.661 613.344 587.901 593.327 594.273C594.57 586.432 593.556 578.273 590.39 570.676C586.051 574.986 575.936 573.022 573.879 567.472C571.823 561.921 579.001 555.952 585.595 557.728C587.342 558.198 588.45 556.26 588.585 554.745C589.044 549.582 587.294 544.23 583.723 539.876C582.331 538.181 585.297 536.504 587.629 536.071L607.425 532.401C608.755 532.154 610.159 531.873 611.095 531.06C612.031 530.247 612.207 528.712 611.089 528.007C606.496 525.115 608.288 517.904 613.801 517.09C619.314 516.278 624.496 522.461 621.646 526.451C621.115 527.196 622.785 527.675 623.804 527.489L649.711 522.759C654.864 521.818 660.012 525.708 661.658 530.005C663.051 533.642 662.676 537.471 662.308 541.254C662.276 541.584 662.243 541.913 662.213 542.241L662.118 543.31C661.15 555.086 663.58 567.159 669.145 578.215C670.229 580.372 668.467 582.845 666.04 583.853C663.898 584.743 661.407 584.798 658.961 584.778L656.571 584.757Z" fill="#00160A"/>
<path fill-rule="evenodd" clip-rule="evenodd" d="M315.492 450.445C315.34 449.384 316.753 448.466 318.033 448.581C319.313 448.696 320.821 449.898 320.233 450.87C319.303 452.41 315.788 452.503 315.492 450.445Z" fill="#FFB61D"/>
<path fill-rule="evenodd" clip-rule="evenodd" d="M913.481 592.194C912.91 592.88 911.475 593.377 911.065 592.585C913.148 589.471 914.073 585.792 913.686 582.164C914.566 581.754 915.267 582.985 915.296 583.846C915.396 586.746 915.424 589.863 913.481 592.194Z" fill="#00160A"/>
<path d="M150.914 445.691C151.16 446.536 149.652 446.792 148.639 446.642C148.718 445.827 149.952 445.308 150.803 445.731L150.914 445.691Z" fill="black"/>
<path fill-rule="evenodd" clip-rule="evenodd" d="M650.491 569.438C649.714 570.432 647.576 569.591 647.343 568.389C647.11 567.186 648.054 566.101 649.016 565.232C652.467 562.119 656.878 559.769 661.733 558.455C662.397 560.034 660.166 561.195 658.409 561.882C654.679 563.338 651.4 565.555 648.921 568.297C649.593 568.479 650.177 568.904 650.491 569.438Z" fill="#00160A"/>
<path fill-rule="evenodd" clip-rule="evenodd" d="M664.994 568.377C662.998 569.788 660.937 571.137 658.818 572.419C659.37 573.215 660.806 572.893 661.688 572.396C662.568 571.897 663.752 571.321 664.619 571.891C663.698 574.302 659.812 575.437 657.169 574.067C656.02 573.472 654.575 574.311 653.267 574.074C651.395 573.734 651.004 571.565 651.539 570.054C652.654 566.9 655.956 564.425 659.833 563.836C661.309 563.612 663.246 563.867 663.75 565.077C659.113 565.759 654.996 568.292 652.867 571.772C654.994 572.562 657.217 571.199 658.907 569.953C660.598 568.708 662.953 567.433 664.994 568.377Z" fill="#00160A"/>
<path fill-rule="evenodd" clip-rule="evenodd" d="M419.308 633.667C420.959 634.499 421.659 634.891 422.192 636.501C422.725 638.11 422.038 639.352 420.457 640.179C419.73 640.559 418.566 640.618 418.129 639.969C423.584 637.789 420.749 636.081 419.308 633.667Z" fill="#00160A"/>
<path fill-rule="evenodd" clip-rule="evenodd" d="M409.438 628.78C409.481 626.848 411.923 625.307 414.149 625.808C415.03 626.005 415.878 626.52 416.162 627.255C413.921 627.763 411.652 626.896 409.438 628.78Z" fill="#00160A"/>
<path fill-rule="evenodd" clip-rule="evenodd" d="M419.458 642.891C404.953 639.516 417.284 645.118 419.458 642.891V642.891Z" fill="#00160A"/>
</svg>
